<svg width="491" height="72" viewBox="0 0 491 72" fill="none" xmlns="http://www.w3.org/2000/svg">
<path d="M31.192 71.96C24.792 71.96 19.832 69.816 16.312 65.528V68.6C16.312 69.24 16.088 69.816 15.64 70.328C15.192 70.776 14.616 71 13.912 71H3.064C2.424 71 1.848 70.776 1.336 70.328C0.888 69.816 0.664 69.24 0.664 68.6V5.23999C0.664 4.536 0.888 3.96 1.336 3.512C1.848 3.064 2.424 2.84 3.064 2.84H14.776C15.48 2.84 16.056 3.064 16.504 3.512C16.952 3.96 17.176 4.536 17.176 5.23999V25.784C20.76 22.008 25.432 20.12 31.192 20.12C37.4 20.12 42.296 22.136 45.88 26.168C49.464 30.2 51.384 35.672 51.64 42.584C51.704 43.416 51.736 44.568 51.736 46.04C51.736 47.448 51.704 48.568 51.64 49.4C51.32 56.568 49.4 62.136 45.88 66.104C42.36 70.008 37.464 71.96 31.192 71.96ZM26.008 59.096C29.016 59.096 31.16 58.2 32.44 56.408C33.784 54.616 34.552 52.152 34.744 49.016C34.872 47.736 34.936 46.744 34.936 46.04C34.936 45.336 34.872 44.344 34.744 43.064C34.552 39.928 33.784 37.464 32.44 35.672C31.16 33.88 29.016 32.984 26.008 32.984C23.192 32.984 21.048 33.848 19.576 35.576C18.104 37.304 17.304 39.48 17.176 42.104L17.08 45.656L17.176 49.304C17.368 52.184 18.136 54.552 19.48 56.408C20.888 58.2 23.064 59.096 26.008 59.096ZM63.5305 13.88C62.8265 13.88 62.2505 13.656 61.8025 13.208C61.3545 12.76 61.1305 12.184 61.1305 11.48V2.84C61.1305 2.136 61.3545 1.56 61.8025 1.112C62.2505 0.663998 62.8265 0.439999 63.5305 0.439999H75.0505C75.7545 0.439999 76.3305 0.663998 76.7785 1.112C77.2265 1.56 77.4505 2.136 77.4505 2.84V11.48C77.4505 12.184 77.2265 12.76 76.7785 13.208C76.3305 13.656 75.7545 13.88 75.0505 13.88H63.5305ZM63.6265 71C62.9225 71 62.3465 70.776 61.8985 70.328C61.4505 69.88 61.2265 69.304 61.2265 68.6V23.48C61.2265 22.776 61.4505 22.2 61.8985 21.752C62.3465 21.304 62.9225 21.08 63.6265 21.08H74.9545C75.6585 21.08 76.2345 21.304 76.6825 21.752C77.1305 22.2 77.3545 22.776 77.3545 23.48V68.6C77.3545 69.24 77.1305 69.816 76.6825 70.328C76.2345 70.776 75.6585 71 74.9545 71H63.6265ZM109.239 71.96C104.055 71.96 99.7033 71.224 96.1833 69.752C92.7273 68.28 90.1673 66.52 88.5033 64.472C86.8393 62.424 86.0073 60.6 86.0073 59C86.0073 58.36 86.2313 57.848 86.6793 57.464C87.1913 57.016 87.7353 56.792 88.3113 56.792H99.2553C99.6393 56.792 99.9913 56.952 100.311 57.272C101.079 57.784 101.655 58.2 102.039 58.52C103.447 59.544 104.663 60.312 105.687 60.824C106.775 61.272 108.087 61.496 109.623 61.496C111.479 61.496 112.983 61.144 114.135 60.44C115.351 59.672 115.959 58.616 115.959 57.272C115.959 56.184 115.639 55.32 114.999 54.68C114.423 54.04 113.271 53.432 111.543 52.856C109.815 52.216 107.191 51.544 103.671 50.84C98.3593 49.752 94.2633 47.992 91.3833 45.56C88.5673 43.064 87.1593 39.736 87.1593 35.576C87.1593 32.952 87.9913 30.456 89.6553 28.088C91.3193 25.72 93.7833 23.8 97.0473 22.328C100.375 20.856 104.311 20.12 108.855 20.12C113.399 20.12 117.367 20.824 120.759 22.232C124.151 23.64 126.711 25.368 128.439 27.416C130.231 29.4 131.127 31.224 131.127 32.888C131.127 33.464 130.903 33.976 130.455 34.424C130.071 34.872 129.591 35.096 129.015 35.096H119.031C118.519 35.096 118.039 34.936 117.591 34.616C116.759 34.168 116.023 33.688 115.383 33.176C114.295 32.344 113.271 31.704 112.311 31.256C111.351 30.808 110.167 30.584 108.759 30.584C107.095 30.584 105.751 30.968 104.727 31.736C103.767 32.504 103.287 33.496 103.287 34.712C103.287 35.672 103.543 36.472 104.055 37.112C104.631 37.752 105.783 38.392 107.511 39.032C109.303 39.608 111.927 40.216 115.383 40.856C121.591 41.944 126.103 43.864 128.919 46.616C131.799 49.368 133.239 52.6 133.239 56.312C133.239 61.048 131.127 64.856 126.903 67.736C122.679 70.552 116.791 71.96 109.239 71.96ZM164.702 71.96C157.47 71.96 151.614 70.04 147.134 66.2C142.654 62.296 140.254 56.888 139.934 49.976L139.838 46.136L139.934 42.2C140.19 35.288 142.558 29.88 147.038 25.976C151.582 22.072 157.47 20.12 164.702 20.12C170.142 20.12 174.718 21.112 178.43 23.096C182.206 25.016 184.99 27.352 186.782 30.104C188.638 32.792 189.63 35.256 189.758 37.496C189.822 38.136 189.598 38.712 189.086 39.224C188.638 39.672 188.062 39.896 187.358 39.896H175.166C174.462 39.896 173.918 39.736 173.534 39.416C173.15 39.096 172.798 38.616 172.478 37.976C171.71 35.992 170.718 34.584 169.502 33.752C168.35 32.92 166.846 32.504 164.99 32.504C159.742 32.504 157.022 35.896 156.83 42.68L156.734 46.328L156.83 49.496C156.958 52.952 157.694 55.512 159.038 57.176C160.446 58.776 162.43 59.576 164.99 59.576C166.974 59.576 168.542 59.16 169.694 58.328C170.846 57.496 171.774 56.088 172.478 54.104C172.798 53.464 173.15 52.984 173.534 52.664C173.918 52.344 174.462 52.184 175.166 52.184H187.358C187.998 52.184 188.542 52.408 188.99 52.856C189.502 53.24 189.758 53.752 189.758 54.392C189.758 56.44 188.862 58.84 187.07 61.592C185.342 64.344 182.59 66.776 178.814 68.888C175.038 70.936 170.334 71.96 164.702 71.96ZM216.719 71.96C211.087 71.96 206.543 70.072 203.087 66.296C199.631 62.456 197.903 57.112 197.903 50.264V23.48C197.903 22.776 198.127 22.2 198.575 21.752C199.023 21.304 199.599 21.08 200.303 21.08H212.303C213.007 21.08 213.583 21.304 214.031 21.752C214.543 22.2 214.799 22.776 214.799 23.48V49.688C214.799 55.96 217.583 59.096 223.151 59.096C225.839 59.096 227.951 58.264 229.487 56.6C231.023 54.936 231.791 52.632 231.791 49.688V23.48C231.791 22.776 232.015 22.2 232.463 21.752C232.975 21.304 233.551 21.08 234.191 21.08H246.191C246.895 21.08 247.471 21.304 247.919 21.752C248.367 22.2 248.591 22.776 248.591 23.48V68.6C248.591 69.24 248.367 69.816 247.919 70.328C247.471 70.776 246.895 71 246.191 71H235.055C234.415 71 233.839 70.776 233.327 70.328C232.879 69.816 232.655 69.24 232.655 68.6V64.952C229.327 69.624 224.015 71.96 216.719 71.96ZM262.187 13.88C261.483 13.88 260.907 13.656 260.459 13.208C260.011 12.76 259.787 12.184 259.787 11.48V2.84C259.787 2.136 260.011 1.56 260.459 1.112C260.907 0.663998 261.483 0.439999 262.187 0.439999H273.707C274.411 0.439999 274.987 0.663998 275.435 1.112C275.883 1.56 276.107 2.136 276.107 2.84V11.48C276.107 12.184 275.883 12.76 275.435 13.208C274.987 13.656 274.411 13.88 273.707 13.88H262.187ZM262.283 71C261.579 71 261.003 70.776 260.555 70.328C260.107 69.88 259.883 69.304 259.883 68.6V23.48C259.883 22.776 260.107 22.2 260.555 21.752C261.003 21.304 261.579 21.08 262.283 21.08H273.611C274.315 21.08 274.891 21.304 275.339 21.752C275.787 22.2 276.011 22.776 276.011 23.48V68.6C276.011 69.24 275.787 69.816 275.339 70.328C274.891 70.776 274.315 71 273.611 71H262.283ZM312.888 71C299.64 71 293.016 64.696 293.016 52.088V33.656H285.528C284.824 33.656 284.216 33.432 283.704 32.984C283.256 32.536 283.032 31.96 283.032 31.256V23.48C283.032 22.776 283.256 22.2 283.704 21.752C284.216 21.304 284.824 21.08 285.528 21.08H293.016V5.23999C293.016 4.536 293.24 3.96 293.688 3.512C294.2 3.064 294.776 2.84 295.416 2.84H306.552C307.256 2.84 307.832 3.064 308.28 3.512C308.728 3.96 308.952 4.536 308.952 5.23999V21.08H320.952C321.656 21.08 322.232 21.304 322.68 21.752C323.192 22.2 323.448 22.776 323.448 23.48V31.256C323.448 31.96 323.192 32.536 322.68 32.984C322.232 33.432 321.656 33.656 320.952 33.656H308.952V50.744C308.952 55.48 310.776 57.848 314.424 57.848H321.816C322.52 57.848 323.096 58.072 323.544 58.52C323.992 58.968 324.216 59.544 324.216 60.248V68.6C324.216 69.24 323.992 69.816 323.544 70.328C323.096 70.776 322.52 71 321.816 71H312.888ZM352.708 71.96C347.524 71.96 343.172 71.224 339.652 69.752C336.196 68.28 333.636 66.52 331.972 64.472C330.308 62.424 329.476 60.6 329.476 59C329.476 58.36 329.7 57.848 330.148 57.464C330.66 57.016 331.204 56.792 331.78 56.792H342.724C343.108 56.792 343.46 56.952 343.78 57.272C344.548 57.784 345.124 58.2 345.508 58.52C346.916 59.544 348.132 60.312 349.156 60.824C350.244 61.272 351.556 61.496 353.092 61.496C354.948 61.496 356.452 61.144 357.604 60.44C358.82 59.672 359.428 58.616 359.428 57.272C359.428 56.184 359.108 55.32 358.468 54.68C357.892 54.04 356.74 53.432 355.012 52.856C353.284 52.216 350.66 51.544 347.14 50.84C341.828 49.752 337.732 47.992 334.852 45.56C332.036 43.064 330.628 39.736 330.628 35.576C330.628 32.952 331.46 30.456 333.124 28.088C334.788 25.72 337.252 23.8 340.516 22.328C343.844 20.856 347.78 20.12 352.324 20.12C356.868 20.12 360.836 20.824 364.228 22.232C367.62 23.64 370.18 25.368 371.908 27.416C373.7 29.4 374.596 31.224 374.596 32.888C374.596 33.464 374.372 33.976 373.924 34.424C373.54 34.872 373.06 35.096 372.484 35.096H362.5C361.988 35.096 361.508 34.936 361.06 34.616C360.228 34.168 359.492 33.688 358.852 33.176C357.764 32.344 356.74 31.704 355.78 31.256C354.82 30.808 353.636 30.584 352.228 30.584C350.564 30.584 349.22 30.968 348.196 31.736C347.236 32.504 346.756 33.496 346.756 34.712C346.756 35.672 347.012 36.472 347.524 37.112C348.1 37.752 349.252 38.392 350.98 39.032C352.772 39.608 355.396 40.216 358.852 40.856C365.06 41.944 369.572 43.864 372.388 46.616C375.268 49.368 376.708 52.6 376.708 56.312C376.708 61.048 374.596 64.856 370.372 67.736C366.148 70.552 360.26 71.96 352.708 71.96ZM408.267 71.96C400.587 71.96 394.539 69.88 390.123 65.72C385.707 61.56 383.403 55.512 383.211 47.576V44.216C383.467 36.664 385.803 30.776 390.219 26.552C394.699 22.264 400.683 20.12 408.171 20.12C413.611 20.12 418.187 21.24 421.899 23.48C425.675 25.656 428.491 28.664 430.347 32.504C432.267 36.344 433.227 40.76 433.227 45.752V48.056C433.227 48.696 433.003 49.272 432.555 49.784C432.107 50.232 431.531 50.456 430.827 50.456H400.107V51.128C400.235 54.136 400.971 56.568 402.315 58.424C403.659 60.28 405.611 61.208 408.171 61.208C409.771 61.208 411.083 60.888 412.107 60.248C413.131 59.544 414.059 58.712 414.891 57.752C415.467 57.048 415.915 56.632 416.235 56.504C416.619 56.312 417.195 56.216 417.963 56.216H429.867C430.443 56.216 430.923 56.408 431.307 56.792C431.755 57.112 431.979 57.56 431.979 58.136C431.979 59.8 431.019 61.72 429.099 63.896C427.243 66.072 424.523 67.96 420.939 69.56C417.355 71.16 413.131 71.96 408.267 71.96ZM416.331 40.952V40.76C416.331 37.624 415.595 35.16 414.123 33.368C412.715 31.512 410.731 30.584 408.171 30.584C405.675 30.584 403.691 31.512 402.219 33.368C400.811 35.16 400.107 37.624 400.107 40.76V40.952H416.331ZM465.171 71.96C457.939 71.96 452.083 70.04 447.603 66.2C443.123 62.296 440.723 56.888 440.403 49.976L440.307 46.136L440.403 42.2C440.659 35.288 443.027 29.88 447.507 25.976C452.051 22.072 457.939 20.12 465.171 20.12C470.611 20.12 475.187 21.112 478.899 23.096C482.675 25.016 485.458 27.352 487.25 30.104C489.107 32.792 490.099 35.256 490.227 37.496C490.291 38.136 490.067 38.712 489.555 39.224C489.107 39.672 488.531 39.896 487.827 39.896H475.635C474.931 39.896 474.387 39.736 474.003 39.416C473.619 39.096 473.267 38.616 472.947 37.976C472.179 35.992 471.187 34.584 469.971 33.752C468.819 32.92 467.315 32.504 465.459 32.504C460.211 32.504 457.491 35.896 457.299 42.68L457.203 46.328L457.299 49.496C457.427 52.952 458.163 55.512 459.507 57.176C460.915 58.776 462.899 59.576 465.459 59.576C467.443 59.576 469.011 59.16 470.163 58.328C471.315 57.496 472.243 56.088 472.947 54.104C473.267 53.464 473.619 52.984 474.003 52.664C474.387 52.344 474.931 52.184 475.635 52.184H487.827C488.467 52.184 489.011 52.408 489.458 52.856C489.971 53.24 490.227 53.752 490.227 54.392C490.227 56.44 489.331 58.84 487.539 61.592C485.811 64.344 483.059 66.776 479.283 68.888C475.507 70.936 470.803 71.96 465.171 71.96Z" fill="#9F6A0C"/>
</svg>
