<svg width="733" height="231" viewBox="0 0 733 231" fill="none" xmlns="http://www.w3.org/2000/svg">
<path d="M37.267 43.3318H165.396L165.396 193.408H37.267L37.267 43.3318Z" fill="#D1A26A"/>
<path d="M0 219.815C0 225.045 4.11015 230 9.1745 230C13.7369 230 17.5049 226.562 18.2172 222.064H25.8191C26.5332 226.561 30.3066 230 34.8627 230C39.417 230 43.1914 226.562 43.9054 222.064H51.5074C52.2214 226.561 55.9948 230 60.5509 230C65.1134 230 68.8805 226.562 69.5936 222.064H77.1956C77.9096 226.561 81.6831 230 86.2392 230C90.8016 230 94.5687 226.562 95.2819 222.064H102.884C103.598 226.561 107.371 230 111.927 230C116.482 230 120.256 226.562 120.97 222.064H128.572C129.286 226.561 133.06 230 137.616 230C142.179 230 145.946 226.562 146.658 222.064H154.26C154.974 226.561 158.748 230 163.304 230C167.867 230 171.634 226.562 172.347 222.064H179.948C180.663 226.561 184.436 230 188.992 230C194.055 230 198.166 225.755 198.166 220.526C198.166 216.832 196.111 213.638 193.123 212.075V205.056C197.079 204.001 200 200.302 200 195.892C200 191.481 197.079 187.782 193.123 186.728V178.526C197.079 177.472 200 173.772 200 169.362C200 164.951 197.079 161.253 193.123 160.199V151.997C197.079 150.943 200 147.243 200 142.833C200 138.422 197.079 134.724 193.123 133.669V125.468C197.079 124.413 200 120.714 200 116.304C200 111.893 197.079 108.194 193.123 107.14V98.9384C197.079 97.8839 200 94.1844 200 89.7745C200 85.3637 197.079 81.6652 193.123 80.6107V72.409C197.079 71.3546 200 67.6551 200 63.2452C200 58.8344 197.079 55.1349 193.123 54.0814V45.8797C197.079 44.8253 200 41.1258 200 36.7159C200 32.3041 197.079 28.6056 193.123 27.5521V19.3504C197.079 18.296 200 14.5965 200 10.1866C200 4.95624 195.899 0.711364 190.826 0.711364C186.514 0.711364 182.903 3.79456 181.924 7.93688H174.87C174.151 3.43842 170.385 0 165.821 0C161.265 0 157.493 3.43842 156.778 7.93595L149.175 7.93595C148.464 3.43842 144.698 0 140.133 0C135.577 0 131.805 3.43842 131.091 7.93595H123.488C122.776 3.43842 119.01 0 114.446 0C109.891 0 106.117 3.43842 105.403 7.93595L97.8005 7.93595C97.0882 3.43842 93.3229 0 88.7587 0C84.2035 0 80.4301 3.43842 79.716 7.93595H72.1132C71.4009 3.43842 67.6347 0 63.0714 0C58.5162 0 54.7428 3.43842 54.0287 7.93595H46.4258C45.7118 3.43842 41.9393 0 37.3841 0C32.8289 0 29.0554 3.43842 28.3414 7.93595L20.7385 7.93595C20.0263 3.43842 16.2601 0 11.6967 0C6.63149 0 2.52314 4.24488 2.52314 9.47429C2.52314 12.8782 4.27084 15.8579 6.88335 17.5286L6.88335 24.2339C2.92847 25.2865 0 28.9869 0 33.3987C0 37.8095 2.92847 41.509 6.88335 42.5634V50.7632C2.92847 51.814 0 55.5079 0 59.928C0 64.3398 2.92847 68.0383 6.88335 69.0928L6.88335 77.2926C2.92847 78.3452 0 82.0456 0 86.4573C0 90.8682 2.92847 94.5676 6.88335 95.6221V103.822C2.92847 104.874 0 108.575 0 112.987C0 117.397 2.92847 121.097 6.88335 122.151V130.351C2.92847 131.404 0 135.104 0 139.516C0 143.927 2.92847 147.626 6.88335 148.681L6.88335 156.881C2.92847 157.933 0 161.634 0 166.045C0 170.456 2.92847 174.156 6.88335 175.21V183.41C2.92847 184.462 0 188.163 0 192.575C0 196.986 2.92847 200.685 6.88335 201.739V209.939C2.92847 210.993 0 215.404 0 219.815ZM76.2089 168.605C74.5027 170.367 72.1357 171.38 69.7227 171.38C67.3097 171.38 64.9427 170.367 63.2357 168.605C61.5286 166.833 60.5482 164.397 60.5482 161.896C60.5482 159.404 61.5286 156.969 63.2357 155.197C64.9427 153.434 67.3097 152.421 69.7227 152.421C72.1357 152.421 74.5027 153.435 76.2089 155.197C77.9241 156.968 78.8963 159.404 78.8963 161.896C78.8963 164.397 77.9241 166.832 76.2089 168.605ZM76.2089 121.694C74.5027 123.465 72.1357 124.47 69.7227 124.47C67.3097 124.47 64.9427 123.466 63.2357 121.694C61.5286 119.941 60.5482 117.496 60.5482 114.995C60.5482 112.503 61.5286 110.058 63.2357 108.295C64.9427 106.532 67.3097 105.529 69.7227 105.529C72.1448 105.529 74.5027 106.532 76.2089 108.295C77.9241 110.067 78.8963 112.511 78.8963 114.995C78.8963 117.488 77.9241 119.932 76.2089 121.694ZM76.2089 74.7939C74.5027 76.5654 72.1448 77.5713 69.7227 77.5713C67.3097 77.5713 64.9427 76.5663 63.2357 74.7939C61.5286 73.0318 60.5482 70.5966 60.5482 68.0952C60.5482 65.6031 61.5286 63.1688 63.2357 61.3955C64.9427 59.6334 67.3097 58.62 69.7227 58.62C72.1357 58.62 74.5027 59.6334 76.2089 61.3955C77.9159 63.1585 78.8963 65.6031 78.8963 68.0952C78.8963 70.5966 77.915 73.0412 76.2089 74.7939ZM136.757 168.605C135.051 170.367 132.684 171.38 130.272 171.38C127.86 171.38 125.493 170.367 123.786 168.605C122.079 166.833 121.098 164.397 121.098 161.896C121.098 159.404 122.08 156.969 123.786 155.197C125.493 153.434 127.86 152.421 130.272 152.421C132.685 152.421 135.052 153.435 136.757 155.197C138.472 156.968 139.446 159.404 139.446 161.896C139.445 164.397 138.472 166.832 136.757 168.605ZM136.757 121.694C135.051 123.465 132.693 124.47 130.272 124.47C127.86 124.47 125.493 123.466 123.786 121.694C122.079 119.932 121.098 117.496 121.098 114.995C121.098 112.503 122.08 110.068 123.786 108.295C125.493 106.532 127.86 105.529 130.272 105.529C132.694 105.529 135.052 106.532 136.757 108.295C138.472 110.067 139.446 112.503 139.446 114.995C139.445 117.496 138.472 119.932 136.757 121.694ZM136.757 74.7939C135.051 76.5654 132.693 77.5713 130.272 77.5713C127.86 77.5713 125.493 76.5663 123.786 74.7939C122.079 73.0318 121.098 70.5966 121.098 68.0952C121.098 65.6031 122.08 63.1688 123.786 61.3955C125.493 59.6334 127.86 58.62 130.272 58.62C132.685 58.62 135.052 59.6334 136.757 61.3955C138.472 63.1585 139.446 65.6031 139.446 68.0952C139.445 70.5966 138.472 73.0318 136.757 74.7939Z" fill="#D1A26A"/>
<mask id="mask0" mask-type="alpha" maskUnits="userSpaceOnUse" x="92" y="40" width="17" height="18">
<path d="M92.9979 48.848C92.9979 53.3551 96.5407 57.0119 100.914 57.0119C105.287 57.0119 108.832 53.3551 108.832 48.848C108.832 44.3409 105.287 40.6896 100.914 40.6896C96.5407 40.6896 92.9979 44.3409 92.9979 48.848Z" fill="#9F6A0C"/>
</mask>
<g mask="url(#mask0)">
<path d="M92.9979 48.848C92.9979 53.3551 96.5407 57.0119 100.914 57.0119C105.287 57.0119 108.832 53.3551 108.832 48.848C108.832 44.3409 105.287 40.6896 100.914 40.6896C96.5407 40.6896 92.9979 44.3409 92.9979 48.848Z" fill="#9F6A0C" stroke="#9DA0A2"/>
</g>
<mask id="mask1" mask-type="alpha" maskUnits="userSpaceOnUse" x="92" y="73" width="17" height="18">
<path d="M92.9979 81.9365C92.9979 86.4436 96.5407 90.0976 100.914 90.0976C105.287 90.0976 108.832 86.4436 108.832 81.9365C108.832 77.4294 105.287 73.7753 100.914 73.7753C96.5407 73.7753 92.9979 77.4294 92.9979 81.9365Z" fill="#9F6A0C"/>
</mask>
<g mask="url(#mask1)">
<path d="M92.9979 81.9365C92.9979 86.4436 96.5407 90.0976 100.914 90.0976C105.287 90.0976 108.832 86.4436 108.832 81.9365C108.832 77.4294 105.287 73.7753 100.914 73.7753C96.5407 73.7753 92.9979 77.4294 92.9979 81.9365Z" fill="#9F6A0C" stroke="#9DA0A2"/>
</g>
<mask id="mask2" mask-type="alpha" maskUnits="userSpaceOnUse" x="124" y="107" width="17" height="18">
<path d="M124.667 115.684C124.667 120.313 128.211 124.066 132.584 124.066C136.956 124.066 140.501 120.313 140.501 115.684C140.501 111.055 136.956 107.302 132.584 107.302C128.211 107.302 124.667 111.055 124.667 115.684Z" fill="#9F6A0C"/>
</mask>
<g mask="url(#mask2)">
<path d="M124.667 115.684C124.667 120.313 128.211 124.066 132.584 124.066C136.956 124.066 140.501 120.313 140.501 115.684C140.501 111.055 136.956 107.302 132.584 107.302C128.211 107.302 124.667 111.055 124.667 115.684Z" fill="#9F6A0C" stroke="#9DA0A2"/>
</g>
<mask id="mask3" mask-type="alpha" maskUnits="userSpaceOnUse" x="124" y="140" width="17" height="18">
<path d="M124.667 149.211C124.667 153.84 128.211 157.592 132.584 157.592C136.956 157.592 140.501 153.84 140.501 149.211C140.501 144.582 136.956 140.829 132.584 140.829C128.211 140.829 124.667 144.582 124.667 149.211Z" fill="#9F6A0C"/>
</mask>
<g mask="url(#mask3)">
<path d="M124.667 149.211C124.667 153.84 128.211 157.592 132.584 157.592C136.956 157.592 140.501 153.84 140.501 149.211C140.501 144.582 136.956 140.829 132.584 140.829C128.211 140.829 124.667 144.582 124.667 149.211Z" fill="#9F6A0C" stroke="#9DA0A2"/>
</g>
<mask id="mask4" mask-type="alpha" maskUnits="userSpaceOnUse" x="156" y="73" width="17" height="84">
<path d="M156.335 82.0901V148.395C156.335 153.084 159.991 156.71 164.253 156.71C168.717 156.71 172.17 152.871 172.17 148.395V82.0901C172.17 77.4013 168.517 73.7753 164.253 73.7753C159.788 73.7753 156.335 77.4013 156.335 82.0901Z" fill="#9F6A0C"/>
</mask>
<g mask="url(#mask4)">
<path d="M156.335 82.0901V148.395C156.335 153.084 159.991 156.71 164.253 156.71C168.717 156.71 172.17 152.871 172.17 148.395V82.0901C172.17 77.4013 168.517 73.7753 164.253 73.7753C159.788 73.7753 156.335 77.4013 156.335 82.0901Z" fill="#9F6A0C" stroke="#9DA0A2"/>
</g>
<mask id="mask5" mask-type="alpha" maskUnits="userSpaceOnUse" x="92" y="106" width="17" height="84">
<path d="M92.9979 115.176L92.9979 181.481C92.9979 186.173 96.6514 189.796 100.914 189.796C105.382 189.796 108.832 185.959 108.832 181.481L108.832 115.176C108.832 110.487 105.179 106.861 100.914 106.861C96.6514 106.861 92.9979 110.697 92.9979 115.176Z" fill="#9F6A0C"/>
</mask>
<g mask="url(#mask5)">
<path d="M92.9979 115.176L92.9979 181.481C92.9979 186.173 96.6514 189.796 100.914 189.796C105.382 189.796 108.832 185.959 108.832 181.481L108.832 115.176C108.832 110.487 105.179 106.861 100.914 106.861C96.6514 106.861 92.9979 110.697 92.9979 115.176Z" fill="#9F6A0C" stroke="#9DA0A2"/>
</g>
<mask id="mask6" mask-type="alpha" maskUnits="userSpaceOnUse" x="61" y="73" width="17" height="84">
<path d="M61.7458 82.0901L61.7458 148.395C61.7458 153.084 65.3025 156.71 69.4546 156.71C73.8018 156.71 77.1635 152.871 77.1635 148.395L77.1635 82.0901C77.1635 77.4013 73.6042 73.7753 69.4546 73.7753C65.1049 73.7753 61.7458 77.4013 61.7458 82.0901Z" fill="#9F6A0C"/>
</mask>
<g mask="url(#mask6)">
<path d="M61.7458 82.0901L61.7458 148.395C61.7458 153.084 65.3025 156.71 69.4546 156.71C73.8018 156.71 77.1635 152.871 77.1635 148.395L77.1635 82.0901C77.1635 77.4013 73.6042 73.7753 69.4546 73.7753C65.1049 73.7753 61.7458 77.4013 61.7458 82.0901Z" fill="#9F6A0C" stroke="#9DA0A2"/>
</g>
<mask id="mask7" mask-type="alpha" maskUnits="userSpaceOnUse" x="61" y="173" width="17" height="18">
<path d="M61.7458 181.857C61.7458 186.486 65.1973 190.237 69.4546 190.237C73.7119 190.237 77.1635 186.486 77.1635 181.857C77.1635 177.224 73.7119 173.474 69.4546 173.474C65.1973 173.474 61.7458 177.224 61.7458 181.857Z" fill="#9F6A0C"/>
</mask>
<g mask="url(#mask7)">
<path d="M61.7458 181.857C61.7458 186.486 65.1973 190.237 69.4546 190.237C73.7119 190.237 77.1635 186.486 77.1635 181.857C77.1635 177.224 73.7119 173.474 69.4546 173.474C65.1973 173.474 61.7458 177.224 61.7458 181.857Z" fill="#9F6A0C" stroke="#9DA0A2"/>
</g>
<mask id="mask8" mask-type="alpha" maskUnits="userSpaceOnUse" x="61" y="40" width="17" height="18">
<path d="M61.7458 48.848C61.7458 53.3551 65.1973 57.0119 69.4546 57.0119C73.7119 57.0119 77.1635 53.3551 77.1635 48.848C77.1635 44.3409 73.7119 40.6896 69.4546 40.6896C65.1973 40.6896 61.7458 44.3409 61.7458 48.848Z" fill="#9F6A0C"/>
</mask>
<g mask="url(#mask8)">
<path d="M61.7458 48.848C61.7458 53.3551 65.1973 57.0119 69.4546 57.0119C73.7119 57.0119 77.1635 53.3551 77.1635 48.848C77.1635 44.3409 73.7119 40.6896 69.4546 40.6896C65.1973 40.6896 61.7458 44.3409 61.7458 48.848Z" fill="#9F6A0C" stroke="#9DA0A2"/>
</g>
<mask id="mask9" mask-type="alpha" maskUnits="userSpaceOnUse" x="30" y="73" width="16" height="84">
<path d="M30.4937 82.1102L30.4937 147.934C30.4937 152.634 34.0504 156.269 38.2025 156.269C42.5522 156.269 45.9114 152.421 45.9114 147.934L45.9114 82.1102C45.9114 77.6237 42.3521 73.7753 38.2025 73.7753C33.8554 73.7753 30.4937 77.6237 30.4937 82.1102Z" fill="#9F6A0C"/>
</mask>
<g mask="url(#mask9)">
<path d="M30.4937 82.1102L30.4937 147.934C30.4937 152.634 34.0504 156.269 38.2025 156.269C42.5522 156.269 45.9114 152.421 45.9114 147.934L45.9114 82.1102C45.9114 77.6237 42.3521 73.7753 38.2025 73.7753C33.8554 73.7753 30.4937 77.6237 30.4937 82.1102Z" fill="#9F6A0C" stroke="#142D4B"/>
</g>
<path d="M270.192 224.96C263.792 224.96 258.832 222.816 255.312 218.528V221.6C255.312 222.24 255.088 222.816 254.64 223.328C254.192 223.776 253.616 224 252.912 224H242.064C241.424 224 240.848 223.776 240.336 223.328C239.888 222.816 239.664 222.24 239.664 221.6V158.24C239.664 157.536 239.888 156.96 240.336 156.512C240.848 156.064 241.424 155.84 242.064 155.84H253.776C254.48 155.84 255.056 156.064 255.504 156.512C255.952 156.96 256.176 157.536 256.176 158.24V178.784C259.76 175.008 264.432 173.12 270.192 173.12C276.4 173.12 281.296 175.136 284.88 179.168C288.464 183.2 290.384 188.672 290.64 195.584C290.704 196.416 290.736 197.568 290.736 199.04C290.736 200.448 290.704 201.568 290.64 202.4C290.32 209.568 288.4 215.136 284.88 219.104C281.36 223.008 276.464 224.96 270.192 224.96ZM265.008 212.096C268.016 212.096 270.16 211.2 271.44 209.408C272.784 207.616 273.552 205.152 273.744 202.016C273.872 200.736 273.936 199.744 273.936 199.04C273.936 198.336 273.872 197.344 273.744 196.064C273.552 192.928 272.784 190.464 271.44 188.672C270.16 186.88 268.016 185.984 265.008 185.984C262.192 185.984 260.048 186.848 258.576 188.576C257.104 190.304 256.304 192.48 256.176 195.104L256.08 198.656L256.176 202.304C256.368 205.184 257.136 207.552 258.48 209.408C259.888 211.2 262.064 212.096 265.008 212.096ZM302.531 166.88C301.827 166.88 301.251 166.656 300.803 166.208C300.355 165.76 300.131 165.184 300.131 164.48V155.84C300.131 155.136 300.355 154.56 300.803 154.112C301.251 153.664 301.827 153.44 302.531 153.44H314.051C314.755 153.44 315.331 153.664 315.779 154.112C316.227 154.56 316.451 155.136 316.451 155.84V164.48C316.451 165.184 316.227 165.76 315.779 166.208C315.331 166.656 314.755 166.88 314.051 166.88H302.531ZM302.627 224C301.923 224 301.347 223.776 300.898 223.328C300.451 222.88 300.227 222.304 300.227 221.6V176.48C300.227 175.776 300.451 175.2 300.898 174.752C301.347 174.304 301.923 174.08 302.627 174.08H313.955C314.659 174.08 315.235 174.304 315.683 174.752C316.131 175.2 316.355 175.776 316.355 176.48V221.6C316.355 222.24 316.131 222.816 315.683 223.328C315.235 223.776 314.659 224 313.955 224H302.627ZM348.239 224.96C343.055 224.96 338.703 224.224 335.183 222.752C331.727 221.28 329.167 219.52 327.503 217.472C325.839 215.424 325.007 213.6 325.007 212C325.007 211.36 325.231 210.848 325.679 210.464C326.191 210.016 326.735 209.792 327.311 209.792H338.255C338.639 209.792 338.991 209.952 339.311 210.272C340.079 210.784 340.655 211.2 341.039 211.52C342.447 212.544 343.663 213.312 344.687 213.824C345.775 214.272 347.087 214.496 348.623 214.496C350.479 214.496 351.983 214.144 353.135 213.44C354.351 212.672 354.959 211.616 354.959 210.272C354.959 209.184 354.639 208.32 353.999 207.68C353.423 207.04 352.271 206.432 350.543 205.856C348.815 205.216 346.191 204.544 342.671 203.84C337.359 202.752 333.263 200.992 330.383 198.56C327.567 196.064 326.159 192.736 326.159 188.576C326.159 185.952 326.991 183.456 328.655 181.088C330.319 178.72 332.783 176.8 336.047 175.328C339.375 173.856 343.311 173.12 347.855 173.12C352.399 173.12 356.367 173.824 359.759 175.232C363.151 176.64 365.711 178.368 367.439 180.416C369.231 182.4 370.127 184.224 370.127 185.888C370.127 186.464 369.903 186.976 369.455 187.424C369.071 187.872 368.591 188.096 368.015 188.096H358.031C357.519 188.096 357.039 187.936 356.591 187.616C355.759 187.168 355.023 186.688 354.383 186.176C353.295 185.344 352.271 184.704 351.311 184.256C350.351 183.808 349.167 183.584 347.759 183.584C346.095 183.584 344.751 183.968 343.727 184.736C342.767 185.504 342.287 186.496 342.287 187.712C342.287 188.672 342.543 189.472 343.055 190.112C343.631 190.752 344.783 191.392 346.511 192.032C348.303 192.608 350.927 193.216 354.383 193.856C360.591 194.944 365.103 196.864 367.919 199.616C370.799 202.368 372.239 205.6 372.239 209.312C372.239 214.048 370.127 217.856 365.903 220.736C361.679 223.552 355.791 224.96 348.239 224.96ZM403.702 224.96C396.47 224.96 390.614 223.04 386.134 219.2C381.654 215.296 379.254 209.888 378.934 202.976L378.838 199.136L378.934 195.2C379.19 188.288 381.558 182.88 386.038 178.976C390.582 175.072 396.47 173.12 403.702 173.12C409.142 173.12 413.718 174.112 417.43 176.096C421.206 178.016 423.99 180.352 425.782 183.104C427.638 185.792 428.63 188.256 428.758 190.496C428.822 191.136 428.598 191.712 428.086 192.224C427.638 192.672 427.062 192.896 426.358 192.896H414.166C413.462 192.896 412.918 192.736 412.534 192.416C412.15 192.096 411.798 191.616 411.478 190.976C410.71 188.992 409.718 187.584 408.502 186.752C407.35 185.92 405.846 185.504 403.99 185.504C398.742 185.504 396.022 188.896 395.83 195.68L395.734 199.328L395.83 202.496C395.958 205.952 396.694 208.512 398.038 210.176C399.446 211.776 401.43 212.576 403.99 212.576C405.974 212.576 407.542 212.16 408.694 211.328C409.846 210.496 410.774 209.088 411.478 207.104C411.798 206.464 412.15 205.984 412.534 205.664C412.918 205.344 413.462 205.184 414.166 205.184H426.358C426.998 205.184 427.542 205.408 427.99 205.856C428.502 206.24 428.758 206.752 428.758 207.392C428.758 209.44 427.862 211.84 426.07 214.592C424.342 217.344 421.59 219.776 417.814 221.888C414.038 223.936 409.334 224.96 403.702 224.96ZM455.719 224.96C450.087 224.96 445.543 223.072 442.087 219.296C438.631 215.456 436.903 210.112 436.903 203.264V176.48C436.903 175.776 437.127 175.2 437.575 174.752C438.023 174.304 438.599 174.08 439.303 174.08H451.303C452.007 174.08 452.583 174.304 453.031 174.752C453.543 175.2 453.799 175.776 453.799 176.48V202.688C453.799 208.96 456.583 212.096 462.151 212.096C464.839 212.096 466.951 211.264 468.487 209.6C470.023 207.936 470.791 205.632 470.791 202.688V176.48C470.791 175.776 471.015 175.2 471.463 174.752C471.975 174.304 472.551 174.08 473.191 174.08H485.191C485.895 174.08 486.471 174.304 486.919 174.752C487.367 175.2 487.591 175.776 487.591 176.48V221.6C487.591 222.24 487.367 222.816 486.919 223.328C486.471 223.776 485.895 224 485.191 224H474.055C473.415 224 472.839 223.776 472.327 223.328C471.879 222.816 471.655 222.24 471.655 221.6V217.952C468.327 222.624 463.015 224.96 455.719 224.96ZM501.187 166.88C500.483 166.88 499.907 166.656 499.459 166.208C499.011 165.76 498.787 165.184 498.787 164.48V155.84C498.787 155.136 499.011 154.56 499.459 154.112C499.907 153.664 500.483 153.44 501.187 153.44H512.707C513.411 153.44 513.987 153.664 514.435 154.112C514.883 154.56 515.107 155.136 515.107 155.84V164.48C515.107 165.184 514.883 165.76 514.435 166.208C513.987 166.656 513.411 166.88 512.707 166.88H501.187ZM501.283 224C500.579 224 500.003 223.776 499.555 223.328C499.107 222.88 498.883 222.304 498.883 221.6V176.48C498.883 175.776 499.107 175.2 499.555 174.752C500.003 174.304 500.579 174.08 501.283 174.08H512.611C513.315 174.08 513.891 174.304 514.339 174.752C514.787 175.2 515.011 175.776 515.011 176.48V221.6C515.011 222.24 514.787 222.816 514.339 223.328C513.891 223.776 513.315 224 512.611 224H501.283ZM551.888 224C538.64 224 532.016 217.696 532.016 205.088V186.656H524.528C523.824 186.656 523.216 186.432 522.704 185.984C522.256 185.536 522.032 184.96 522.032 184.256V176.48C522.032 175.776 522.256 175.2 522.704 174.752C523.216 174.304 523.824 174.08 524.528 174.08H532.016V158.24C532.016 157.536 532.24 156.96 532.688 156.512C533.2 156.064 533.776 155.84 534.416 155.84H545.552C546.256 155.84 546.832 156.064 547.28 156.512C547.728 156.96 547.952 157.536 547.952 158.24V174.08H559.952C560.656 174.08 561.232 174.304 561.68 174.752C562.192 175.2 562.448 175.776 562.448 176.48V184.256C562.448 184.96 562.192 185.536 561.68 185.984C561.232 186.432 560.656 186.656 559.952 186.656H547.952V203.744C547.952 208.48 549.776 210.848 553.424 210.848H560.816C561.52 210.848 562.096 211.072 562.544 211.52C562.992 211.968 563.216 212.544 563.216 213.248V221.6C563.216 222.24 562.992 222.816 562.544 223.328C562.096 223.776 561.52 224 560.816 224H551.888ZM591.708 224.96C586.524 224.96 582.172 224.224 578.652 222.752C575.196 221.28 572.636 219.52 570.972 217.472C569.308 215.424 568.476 213.6 568.476 212C568.476 211.36 568.7 210.848 569.148 210.464C569.66 210.016 570.204 209.792 570.78 209.792H581.724C582.108 209.792 582.46 209.952 582.78 210.272C583.548 210.784 584.124 211.2 584.508 211.52C585.916 212.544 587.132 213.312 588.156 213.824C589.244 214.272 590.556 214.496 592.092 214.496C593.948 214.496 595.452 214.144 596.604 213.44C597.82 212.672 598.428 211.616 598.428 210.272C598.428 209.184 598.108 208.32 597.468 207.68C596.892 207.04 595.74 206.432 594.012 205.856C592.284 205.216 589.66 204.544 586.14 203.84C580.828 202.752 576.732 200.992 573.852 198.56C571.036 196.064 569.628 192.736 569.628 188.576C569.628 185.952 570.46 183.456 572.124 181.088C573.788 178.72 576.252 176.8 579.516 175.328C582.844 173.856 586.78 173.12 591.324 173.12C595.868 173.12 599.836 173.824 603.228 175.232C606.62 176.64 609.18 178.368 610.908 180.416C612.7 182.4 613.596 184.224 613.596 185.888C613.596 186.464 613.372 186.976 612.924 187.424C612.54 187.872 612.06 188.096 611.484 188.096H601.5C600.988 188.096 600.508 187.936 600.06 187.616C599.228 187.168 598.492 186.688 597.852 186.176C596.764 185.344 595.74 184.704 594.78 184.256C593.82 183.808 592.636 183.584 591.228 183.584C589.564 183.584 588.22 183.968 587.196 184.736C586.236 185.504 585.756 186.496 585.756 187.712C585.756 188.672 586.012 189.472 586.524 190.112C587.1 190.752 588.252 191.392 589.98 192.032C591.772 192.608 594.396 193.216 597.852 193.856C604.06 194.944 608.572 196.864 611.388 199.616C614.268 202.368 615.708 205.6 615.708 209.312C615.708 214.048 613.596 217.856 609.372 220.736C605.148 223.552 599.26 224.96 591.708 224.96ZM647.267 224.96C639.587 224.96 633.539 222.88 629.123 218.72C624.707 214.56 622.403 208.512 622.211 200.576V197.216C622.467 189.664 624.803 183.776 629.219 179.552C633.699 175.264 639.683 173.12 647.171 173.12C652.611 173.12 657.187 174.24 660.899 176.48C664.675 178.656 667.491 181.664 669.347 185.504C671.267 189.344 672.227 193.76 672.227 198.752V201.056C672.227 201.696 672.003 202.272 671.555 202.784C671.107 203.232 670.531 203.456 669.827 203.456H639.107V204.128C639.235 207.136 639.971 209.568 641.315 211.424C642.659 213.28 644.611 214.208 647.171 214.208C648.771 214.208 650.083 213.888 651.107 213.248C652.131 212.544 653.059 211.712 653.891 210.752C654.467 210.048 654.915 209.632 655.235 209.504C655.619 209.312 656.195 209.216 656.963 209.216H668.867C669.443 209.216 669.923 209.408 670.307 209.792C670.755 210.112 670.979 210.56 670.979 211.136C670.979 212.8 670.019 214.72 668.099 216.896C666.243 219.072 663.523 220.96 659.939 222.56C656.355 224.16 652.131 224.96 647.267 224.96ZM655.331 193.952V193.76C655.331 190.624 654.595 188.16 653.123 186.368C651.715 184.512 649.731 183.584 647.171 183.584C644.675 183.584 642.691 184.512 641.219 186.368C639.811 188.16 639.107 190.624 639.107 193.76V193.952H655.331ZM704.171 224.96C696.939 224.96 691.083 223.04 686.603 219.2C682.123 215.296 679.723 209.888 679.403 202.976L679.307 199.136L679.403 195.2C679.659 188.288 682.027 182.88 686.507 178.976C691.051 175.072 696.939 173.12 704.171 173.12C709.611 173.12 714.187 174.112 717.899 176.096C721.675 178.016 724.458 180.352 726.25 183.104C728.107 185.792 729.099 188.256 729.227 190.496C729.291 191.136 729.067 191.712 728.555 192.224C728.107 192.672 727.531 192.896 726.827 192.896H714.635C713.931 192.896 713.387 192.736 713.003 192.416C712.619 192.096 712.267 191.616 711.947 190.976C711.179 188.992 710.187 187.584 708.971 186.752C707.819 185.92 706.315 185.504 704.459 185.504C699.211 185.504 696.491 188.896 696.299 195.68L696.203 199.328L696.299 202.496C696.427 205.952 697.163 208.512 698.507 210.176C699.915 211.776 701.899 212.576 704.459 212.576C706.443 212.576 708.011 212.16 709.163 211.328C710.315 210.496 711.243 209.088 711.947 207.104C712.267 206.464 712.619 205.984 713.003 205.664C713.387 205.344 713.931 205.184 714.635 205.184H726.827C727.467 205.184 728.011 205.408 728.458 205.856C728.971 206.24 729.227 206.752 729.227 207.392C729.227 209.44 728.331 211.84 726.539 214.592C724.811 217.344 722.059 219.776 718.283 221.888C714.507 223.936 709.803 224.96 704.171 224.96Z" fill="white"/>
<path d="M253.056 74C252.576 74 252.168 73.856 251.832 73.568C251.544 73.232 251.4 72.824 251.4 72.344V24.536C251.4 24.056 251.544 23.672 251.832 23.384C252.168 23.048 252.576 22.88 253.056 22.88H256.44C256.92 22.88 257.304 23.048 257.592 23.384C257.928 23.672 258.096 24.056 258.096 24.536V72.344C258.096 72.824 257.928 73.232 257.592 73.568C257.304 73.856 256.92 74 256.44 74H253.056ZM269.916 29.576C269.436 29.576 269.028 29.432 268.692 29.144C268.404 28.808 268.26 28.4 268.26 27.92V24.032C268.26 23.552 268.404 23.144 268.692 22.808C269.028 22.472 269.436 22.304 269.916 22.304H274.452C274.932 22.304 275.34 22.472 275.676 22.808C276.012 23.144 276.18 23.552 276.18 24.032V27.92C276.18 28.4 276.012 28.808 275.676 29.144C275.34 29.432 274.932 29.576 274.452 29.576H269.916ZM270.492 74C270.012 74 269.604 73.856 269.268 73.568C268.98 73.232 268.836 72.824 268.836 72.344V38.216C268.836 37.736 268.98 37.352 269.268 37.064C269.604 36.728 270.012 36.56 270.492 36.56H273.948C274.428 36.56 274.812 36.728 275.1 37.064C275.436 37.352 275.604 37.736 275.604 38.216V72.344C275.604 72.824 275.436 73.232 275.1 73.568C274.812 73.856 274.428 74 273.948 74H270.492ZM299.305 74C298.057 74 297.169 73.4 296.641 72.2L283.321 38.792L283.177 38.072C283.177 37.64 283.321 37.28 283.609 36.992C283.897 36.704 284.257 36.56 284.689 36.56H288.145C288.961 36.56 289.561 36.968 289.945 37.784L300.889 66.152L311.833 37.784C312.265 36.968 312.841 36.56 313.561 36.56H317.089C317.473 36.56 317.809 36.704 318.097 36.992C318.433 37.28 318.601 37.64 318.601 38.072L318.457 38.792L305.065 72.2C304.537 73.4 303.649 74 302.401 74H299.305ZM339.781 74.72C334.837 74.72 330.877 73.208 327.901 70.184C324.973 67.112 323.365 62.936 323.077 57.656L323.005 55.208L323.077 52.832C323.413 47.648 325.045 43.52 327.973 40.448C330.949 37.376 334.861 35.84 339.709 35.84C345.037 35.84 349.165 37.544 352.093 40.952C355.021 44.312 356.485 48.872 356.485 54.632V55.856C356.485 56.336 356.317 56.744 355.981 57.08C355.693 57.368 355.309 57.512 354.829 57.512H329.917V58.16C330.061 61.28 330.997 63.944 332.725 66.152C334.501 68.312 336.829 69.392 339.709 69.392C341.917 69.392 343.717 68.96 345.109 68.096C346.549 67.184 347.605 66.248 348.277 65.288C348.709 64.712 349.021 64.376 349.213 64.28C349.453 64.136 349.861 64.064 350.437 64.064H353.965C354.397 64.064 354.757 64.184 355.045 64.424C355.333 64.664 355.477 65 355.477 65.432C355.477 66.488 354.805 67.76 353.461 69.248C352.165 70.736 350.317 72.032 347.917 73.136C345.565 74.192 342.853 74.72 339.781 74.72ZM349.645 52.544V52.328C349.645 49.016 348.733 46.328 346.909 44.264C345.133 42.152 342.733 41.096 339.709 41.096C336.685 41.096 334.285 42.152 332.509 44.264C330.781 46.328 329.917 49.016 329.917 52.328V52.544H349.645ZM396.422 74.72C391.43 74.72 387.662 73.088 385.118 69.824C382.574 66.56 381.23 62.432 381.086 57.44L381.014 55.28L381.086 53.12C381.23 48.176 382.574 44.072 385.118 40.808C387.662 37.496 391.43 35.84 396.422 35.84C401.366 35.84 405.254 37.592 408.086 41.096V24.536C408.086 24.056 408.23 23.672 408.518 23.384C408.854 23.048 409.262 22.88 409.742 22.88H413.198C413.678 22.88 414.062 23.048 414.35 23.384C414.686 23.672 414.854 24.056 414.854 24.536V72.344C414.854 72.824 414.686 73.232 414.35 73.568C414.062 73.856 413.678 74 413.198 74H409.958C409.478 74 409.07 73.856 408.734 73.568C408.446 73.232 408.302 72.824 408.302 72.344V69.32C405.518 72.92 401.558 74.72 396.422 74.72ZM397.934 68.888C401.246 68.888 403.718 67.808 405.35 65.648C407.03 63.44 407.942 60.824 408.086 57.8C408.134 57.272 408.158 56.36 408.158 55.064C408.158 53.72 408.134 52.784 408.086 52.256C407.99 49.424 407.078 46.952 405.35 44.84C403.622 42.728 401.15 41.672 397.934 41.672C394.526 41.672 392.03 42.728 390.446 44.84C388.91 46.952 388.07 49.736 387.926 53.192L387.854 55.28C387.854 64.352 391.214 68.888 397.934 68.888ZM440.538 74.72C435.594 74.72 431.634 73.208 428.658 70.184C425.73 67.112 424.122 62.936 423.834 57.656L423.762 55.208L423.834 52.832C424.17 47.648 425.802 43.52 428.73 40.448C431.706 37.376 435.618 35.84 440.466 35.84C445.794 35.84 449.922 37.544 452.85 40.952C455.778 44.312 457.242 48.872 457.242 54.632V55.856C457.242 56.336 457.074 56.744 456.738 57.08C456.45 57.368 456.066 57.512 455.586 57.512H430.674V58.16C430.818 61.28 431.754 63.944 433.482 66.152C435.258 68.312 437.586 69.392 440.466 69.392C442.674 69.392 444.474 68.96 445.866 68.096C447.306 67.184 448.362 66.248 449.034 65.288C449.466 64.712 449.778 64.376 449.97 64.28C450.21 64.136 450.618 64.064 451.194 64.064H454.722C455.154 64.064 455.514 64.184 455.802 64.424C456.09 64.664 456.234 65 456.234 65.432C456.234 66.488 455.562 67.76 454.218 69.248C452.922 70.736 451.074 72.032 448.674 73.136C446.322 74.192 443.61 74.72 440.538 74.72ZM450.402 52.544V52.328C450.402 49.016 449.49 46.328 447.666 44.264C445.89 42.152 443.49 41.096 440.466 41.096C437.442 41.096 435.042 42.152 433.266 44.264C431.538 46.328 430.674 49.016 430.674 52.328V52.544H450.402ZM484.355 74.72C479.171 74.72 475.235 72.92 472.547 69.32V72.344C472.547 72.824 472.379 73.232 472.043 73.568C471.755 73.856 471.371 74 470.891 74H467.579C467.099 74 466.691 73.856 466.355 73.568C466.067 73.232 465.923 72.824 465.923 72.344V24.536C465.923 24.056 466.067 23.672 466.355 23.384C466.691 23.048 467.099 22.88 467.579 22.88H471.107C471.587 22.88 471.971 23.048 472.259 23.384C472.547 23.672 472.691 24.056 472.691 24.536V41.096C475.523 37.592 479.411 35.84 484.355 35.84C489.347 35.84 493.115 37.496 495.659 40.808C498.203 44.072 499.571 48.176 499.763 53.12C499.811 53.648 499.835 54.368 499.835 55.28C499.835 56.192 499.811 56.912 499.763 57.44C499.571 62.432 498.203 66.56 495.659 69.824C493.115 73.088 489.347 74.72 484.355 74.72ZM482.843 68.888C486.251 68.888 488.723 67.832 490.259 65.72C491.843 63.608 492.707 60.824 492.851 57.368C492.899 56.888 492.923 56.192 492.923 55.28C492.923 46.208 489.563 41.672 482.843 41.672C479.627 41.672 477.155 42.728 475.427 44.84C473.699 46.952 472.787 49.424 472.691 52.256L472.619 55.064L472.691 57.8C472.835 60.824 473.723 63.44 475.355 65.648C477.035 67.808 479.531 68.888 482.843 68.888ZM522.64 74.72C518.08 74.72 514.552 73.256 512.056 70.328C509.56 67.352 508.312 63.416 508.312 58.52V38.216C508.312 37.736 508.456 37.352 508.744 37.064C509.08 36.728 509.488 36.56 509.968 36.56H513.568C514.048 36.56 514.432 36.728 514.72 37.064C515.056 37.352 515.224 37.736 515.224 38.216V58.16C515.224 65.312 518.344 68.888 524.584 68.888C527.608 68.888 530.008 67.952 531.784 66.08C533.56 64.16 534.448 61.52 534.448 58.16V38.216C534.448 37.736 534.592 37.352 534.88 37.064C535.216 36.728 535.624 36.56 536.104 36.56H539.704C540.184 36.56 540.568 36.728 540.856 37.064C541.144 37.352 541.288 37.736 541.288 38.216V72.344C541.288 72.824 541.144 73.232 540.856 73.568C540.568 73.856 540.184 74 539.704 74H536.32C535.84 74 535.432 73.856 535.096 73.568C534.808 73.232 534.664 72.824 534.664 72.344V69.176C533.32 71 531.688 72.392 529.768 73.352C527.848 74.264 525.472 74.72 522.64 74.72ZM567.32 89.84C563.384 89.84 560.216 89.168 557.816 87.824C555.416 86.528 553.712 85.04 552.704 83.36C551.696 81.68 551.144 80.168 551.048 78.824C551 78.344 551.144 77.936 551.48 77.6C551.864 77.264 552.272 77.096 552.704 77.096H556.16C556.592 77.096 556.952 77.192 557.24 77.384C557.528 77.624 557.768 78.032 557.96 78.608C558.536 80.144 559.472 81.464 560.768 82.568C562.112 83.72 564.176 84.296 566.96 84.296C570.512 84.296 573.128 83.528 574.808 81.992C576.488 80.504 577.328 77.84 577.328 74V69.104C576.08 70.688 574.496 71.96 572.576 72.92C570.656 73.832 568.376 74.288 565.736 74.288C560.648 74.288 556.832 72.68 554.288 69.464C551.792 66.2 550.472 62.072 550.328 57.08L550.256 55.064L550.328 53.12C550.472 48.176 551.816 44.072 554.36 40.808C556.904 37.496 560.696 35.84 565.736 35.84C570.776 35.84 574.712 37.688 577.544 41.384V38.288C577.544 37.808 577.688 37.4 577.976 37.064C578.312 36.728 578.72 36.56 579.2 36.56H582.512C582.992 36.56 583.4 36.728 583.736 37.064C584.072 37.4 584.24 37.808 584.24 38.288V73.208C584.24 84.296 578.6 89.84 567.32 89.84ZM567.176 68.528C570.44 68.528 572.912 67.448 574.592 65.288C576.272 63.128 577.184 60.56 577.328 57.584C577.376 57.152 577.4 56.312 577.4 55.064C577.4 53.864 577.376 53.048 577.328 52.616C577.184 49.64 576.272 47.072 574.592 44.912C572.96 42.752 570.488 41.672 567.176 41.672C563.768 41.672 561.296 42.728 559.76 44.84C558.224 46.952 557.384 49.736 557.24 53.192L557.168 55.064L557.24 57.008C557.384 60.416 558.224 63.2 559.76 65.36C561.296 67.472 563.768 68.528 567.176 68.528ZM610.281 89.84C606.345 89.84 603.177 89.168 600.777 87.824C598.377 86.528 596.673 85.04 595.665 83.36C594.657 81.68 594.105 80.168 594.009 78.824C593.961 78.344 594.105 77.936 594.441 77.6C594.825 77.264 595.233 77.096 595.665 77.096H599.121C599.553 77.096 599.913 77.192 600.201 77.384C600.489 77.624 600.729 78.032 600.921 78.608C601.497 80.144 602.433 81.464 603.729 82.568C605.073 83.72 607.137 84.296 609.921 84.296C613.473 84.296 616.089 83.528 617.769 81.992C619.449 80.504 620.289 77.84 620.289 74V69.104C619.041 70.688 617.457 71.96 615.537 72.92C613.617 73.832 611.337 74.288 608.697 74.288C603.609 74.288 599.793 72.68 597.249 69.464C594.753 66.2 593.433 62.072 593.289 57.08L593.217 55.064L593.289 53.12C593.433 48.176 594.777 44.072 597.321 40.808C599.865 37.496 603.657 35.84 608.697 35.84C613.737 35.84 617.673 37.688 620.505 41.384V38.288C620.505 37.808 620.649 37.4 620.937 37.064C621.273 36.728 621.681 36.56 622.161 36.56H625.473C625.953 36.56 626.361 36.728 626.697 37.064C627.033 37.4 627.201 37.808 627.201 38.288V73.208C627.201 84.296 621.561 89.84 610.281 89.84ZM610.137 68.528C613.401 68.528 615.873 67.448 617.553 65.288C619.233 63.128 620.145 60.56 620.289 57.584C620.337 57.152 620.361 56.312 620.361 55.064C620.361 53.864 620.337 53.048 620.289 52.616C620.145 49.64 619.233 47.072 617.553 44.912C615.921 42.752 613.449 41.672 610.137 41.672C606.729 41.672 604.257 42.728 602.721 44.84C601.185 46.952 600.345 49.736 600.201 53.192L600.129 55.064L600.201 57.008C600.345 60.416 601.185 63.2 602.721 65.36C604.257 67.472 606.729 68.528 610.137 68.528ZM652.882 74.72C647.938 74.72 643.978 73.208 641.002 70.184C638.074 67.112 636.466 62.936 636.178 57.656L636.106 55.208L636.178 52.832C636.514 47.648 638.146 43.52 641.074 40.448C644.05 37.376 647.962 35.84 652.81 35.84C658.138 35.84 662.266 37.544 665.194 40.952C668.122 44.312 669.586 48.872 669.586 54.632V55.856C669.586 56.336 669.418 56.744 669.082 57.08C668.794 57.368 668.41 57.512 667.93 57.512H643.018V58.16C643.162 61.28 644.098 63.944 645.826 66.152C647.602 68.312 649.93 69.392 652.81 69.392C655.018 69.392 656.818 68.96 658.21 68.096C659.65 67.184 660.706 66.248 661.378 65.288C661.81 64.712 662.122 64.376 662.314 64.28C662.554 64.136 662.962 64.064 663.538 64.064H667.066C667.498 64.064 667.858 64.184 668.146 64.424C668.434 64.664 668.578 65 668.578 65.432C668.578 66.488 667.906 67.76 666.562 69.248C665.266 70.736 663.418 72.032 661.018 73.136C658.666 74.192 655.954 74.72 652.882 74.72ZM662.746 52.544V52.328C662.746 49.016 661.834 46.328 660.01 44.264C658.234 42.152 655.834 41.096 652.81 41.096C649.786 41.096 647.386 42.152 645.61 44.264C643.882 46.328 643.018 49.016 643.018 52.328V52.544H662.746ZM679.851 74C679.371 74 678.963 73.856 678.627 73.568C678.339 73.232 678.195 72.824 678.195 72.344V38.288C678.195 37.808 678.339 37.4 678.627 37.064C678.963 36.728 679.371 36.56 679.851 36.56H683.163C683.643 36.56 684.051 36.728 684.387 37.064C684.723 37.4 684.891 37.808 684.891 38.288V41.456C686.859 38.192 690.219 36.56 694.971 36.56H697.779C698.259 36.56 698.643 36.728 698.931 37.064C699.267 37.352 699.435 37.736 699.435 38.216V41.168C699.435 41.648 699.267 42.032 698.931 42.32C698.643 42.608 698.259 42.752 697.779 42.752H693.459C690.867 42.752 688.827 43.52 687.339 45.056C685.851 46.544 685.107 48.584 685.107 51.176V72.344C685.107 72.824 684.939 73.232 684.603 73.568C684.267 73.856 683.859 74 683.379 74H679.851Z" fill="white"/>
</svg>
