<svg width="733" height="231" viewBox="0 0 733 231" fill="none" xmlns="http://www.w3.org/2000/svg">
<path d="M37.267 43.3318H165.396L165.396 193.408H37.267L37.267 43.3318Z" fill="white"/>
<path d="M0 219.815C0 225.045 4.11015 230 9.1745 230C13.7369 230 17.5049 226.562 18.2172 222.064H25.8191C26.5332 226.561 30.3066 230 34.8627 230C39.417 230 43.1914 226.562 43.9054 222.064H51.5074C52.2214 226.561 55.9948 230 60.5509 230C65.1134 230 68.8805 226.562 69.5936 222.064H77.1956C77.9096 226.561 81.6831 230 86.2392 230C90.8016 230 94.5687 226.562 95.2819 222.064H102.884C103.598 226.561 107.371 230 111.927 230C116.482 230 120.256 226.562 120.97 222.064H128.572C129.286 226.561 133.06 230 137.616 230C142.179 230 145.946 226.562 146.658 222.064H154.26C154.974 226.561 158.748 230 163.304 230C167.867 230 171.634 226.562 172.347 222.064H179.948C180.663 226.561 184.436 230 188.992 230C194.055 230 198.166 225.755 198.166 220.526C198.166 216.832 196.111 213.638 193.123 212.075V205.056C197.079 204.001 200 200.302 200 195.892C200 191.481 197.079 187.782 193.123 186.728V178.526C197.079 177.472 200 173.772 200 169.362C200 164.951 197.079 161.253 193.123 160.199V151.997C197.079 150.943 200 147.243 200 142.833C200 138.422 197.079 134.724 193.123 133.669V125.468C197.079 124.413 200 120.714 200 116.304C200 111.893 197.079 108.194 193.123 107.14V98.9384C197.079 97.8839 200 94.1844 200 89.7745C200 85.3637 197.079 81.6652 193.123 80.6107V72.409C197.079 71.3546 200 67.6551 200 63.2452C200 58.8344 197.079 55.1349 193.123 54.0814V45.8797C197.079 44.8253 200 41.1258 200 36.7159C200 32.3041 197.079 28.6056 193.123 27.5521V19.3504C197.079 18.296 200 14.5965 200 10.1866C200 4.95624 195.899 0.711364 190.826 0.711364C186.514 0.711364 182.903 3.79456 181.924 7.93688H174.87C174.151 3.43842 170.385 0 165.821 0C161.265 0 157.493 3.43842 156.778 7.93595L149.175 7.93595C148.464 3.43842 144.698 0 140.133 0C135.577 0 131.805 3.43842 131.091 7.93595H123.488C122.776 3.43842 119.01 0 114.446 0C109.891 0 106.117 3.43842 105.403 7.93595L97.8005 7.93595C97.0882 3.43842 93.3229 0 88.7587 0C84.2035 0 80.4301 3.43842 79.716 7.93595H72.1132C71.4009 3.43842 67.6347 0 63.0714 0C58.5162 0 54.7428 3.43842 54.0287 7.93595H46.4258C45.7118 3.43842 41.9393 0 37.3841 0C32.8289 0 29.0554 3.43842 28.3414 7.93595L20.7385 7.93595C20.0263 3.43842 16.2601 0 11.6967 0C6.63149 0 2.52314 4.24488 2.52314 9.47429C2.52314 12.8782 4.27084 15.8579 6.88335 17.5286L6.88335 24.2339C2.92847 25.2865 0 28.9869 0 33.3987C0 37.8095 2.92847 41.509 6.88335 42.5634V50.7632C2.92847 51.814 0 55.5079 0 59.928C0 64.3398 2.92847 68.0383 6.88335 69.0928L6.88335 77.2926C2.92847 78.3452 0 82.0456 0 86.4573C0 90.8682 2.92847 94.5676 6.88335 95.6221V103.822C2.92847 104.874 0 108.575 0 112.987C0 117.397 2.92847 121.097 6.88335 122.151V130.351C2.92847 131.404 0 135.104 0 139.516C0 143.927 2.92847 147.626 6.88335 148.681L6.88335 156.881C2.92847 157.933 0 161.634 0 166.045C0 170.456 2.92847 174.156 6.88335 175.21V183.41C2.92847 184.462 0 188.163 0 192.575C0 196.986 2.92847 200.685 6.88335 201.739V209.939C2.92847 210.993 0 215.404 0 219.815ZM76.2089 168.605C74.5027 170.367 72.1357 171.38 69.7227 171.38C67.3097 171.38 64.9427 170.367 63.2357 168.605C61.5286 166.833 60.5482 164.397 60.5482 161.896C60.5482 159.404 61.5286 156.969 63.2357 155.197C64.9427 153.434 67.3097 152.421 69.7227 152.421C72.1357 152.421 74.5027 153.435 76.2089 155.197C77.9241 156.968 78.8963 159.404 78.8963 161.896C78.8963 164.397 77.9241 166.832 76.2089 168.605ZM76.2089 121.694C74.5027 123.465 72.1357 124.47 69.7227 124.47C67.3097 124.47 64.9427 123.466 63.2357 121.694C61.5286 119.941 60.5482 117.496 60.5482 114.995C60.5482 112.503 61.5286 110.058 63.2357 108.295C64.9427 106.532 67.3097 105.529 69.7227 105.529C72.1448 105.529 74.5027 106.532 76.2089 108.295C77.9241 110.067 78.8963 112.511 78.8963 114.995C78.8963 117.488 77.9241 119.932 76.2089 121.694ZM76.2089 74.7939C74.5027 76.5654 72.1448 77.5713 69.7227 77.5713C67.3097 77.5713 64.9427 76.5663 63.2357 74.7939C61.5286 73.0318 60.5482 70.5966 60.5482 68.0952C60.5482 65.6031 61.5286 63.1688 63.2357 61.3955C64.9427 59.6334 67.3097 58.62 69.7227 58.62C72.1357 58.62 74.5027 59.6334 76.2089 61.3955C77.9159 63.1585 78.8963 65.6031 78.8963 68.0952C78.8963 70.5966 77.915 73.0412 76.2089 74.7939ZM136.757 168.605C135.051 170.367 132.684 171.38 130.272 171.38C127.86 171.38 125.493 170.367 123.786 168.605C122.079 166.833 121.098 164.397 121.098 161.896C121.098 159.404 122.08 156.969 123.786 155.197C125.493 153.434 127.86 152.421 130.272 152.421C132.685 152.421 135.052 153.435 136.757 155.197C138.472 156.968 139.446 159.404 139.446 161.896C139.445 164.397 138.472 166.832 136.757 168.605ZM136.757 121.694C135.051 123.465 132.693 124.47 130.272 124.47C127.86 124.47 125.493 123.466 123.786 121.694C122.079 119.932 121.098 117.496 121.098 114.995C121.098 112.503 122.08 110.068 123.786 108.295C125.493 106.532 127.86 105.529 130.272 105.529C132.694 105.529 135.052 106.532 136.757 108.295C138.472 110.067 139.446 112.503 139.446 114.995C139.445 117.496 138.472 119.932 136.757 121.694ZM136.757 74.7939C135.051 76.5654 132.693 77.5713 130.272 77.5713C127.86 77.5713 125.493 76.5663 123.786 74.7939C122.079 73.0318 121.098 70.5966 121.098 68.0952C121.098 65.6031 122.08 63.1688 123.786 61.3955C125.493 59.6334 127.86 58.62 130.272 58.62C132.685 58.62 135.052 59.6334 136.757 61.3955C138.472 63.1585 139.446 65.6031 139.446 68.0952C139.445 70.5966 138.472 73.0318 136.757 74.7939Z" fill="white"/>
<mask id="mask0" mask-type="alpha" maskUnits="userSpaceOnUse" x="92" y="40" width="17" height="18">
<path d="M92.9979 48.848C92.9979 53.3551 96.5407 57.0119 100.914 57.0119C105.287 57.0119 108.832 53.3551 108.832 48.848C108.832 44.3409 105.287 40.6896 100.914 40.6896C96.5407 40.6896 92.9979 44.3409 92.9979 48.848Z" fill="#E2D5C2"/>
</mask>
<g mask="url(#mask0)">
<path d="M92.9979 48.848C92.9979 53.3551 96.5407 57.0119 100.914 57.0119C105.287 57.0119 108.832 53.3551 108.832 48.848C108.832 44.3409 105.287 40.6896 100.914 40.6896C96.5407 40.6896 92.9979 44.3409 92.9979 48.848Z" fill="#E2D5C2" stroke="#9DA0A2"/>
</g>
<mask id="mask1" mask-type="alpha" maskUnits="userSpaceOnUse" x="92" y="73" width="17" height="18">
<path d="M92.9979 81.9365C92.9979 86.4436 96.5407 90.0976 100.914 90.0976C105.287 90.0976 108.832 86.4436 108.832 81.9365C108.832 77.4294 105.287 73.7753 100.914 73.7753C96.5407 73.7753 92.9979 77.4294 92.9979 81.9365Z" fill="#E2D5C2"/>
</mask>
<g mask="url(#mask1)">
<path d="M92.9979 81.9365C92.9979 86.4436 96.5407 90.0976 100.914 90.0976C105.287 90.0976 108.832 86.4436 108.832 81.9365C108.832 77.4294 105.287 73.7753 100.914 73.7753C96.5407 73.7753 92.9979 77.4294 92.9979 81.9365Z" fill="#E2D5C2" stroke="#9DA0A2"/>
</g>
<mask id="mask2" mask-type="alpha" maskUnits="userSpaceOnUse" x="124" y="107" width="17" height="18">
<path d="M124.667 115.684C124.667 120.313 128.211 124.066 132.584 124.066C136.956 124.066 140.501 120.313 140.501 115.684C140.501 111.055 136.956 107.302 132.584 107.302C128.211 107.302 124.667 111.055 124.667 115.684Z" fill="#E2D5C2"/>
</mask>
<g mask="url(#mask2)">
<path d="M124.667 115.684C124.667 120.313 128.211 124.066 132.584 124.066C136.956 124.066 140.501 120.313 140.501 115.684C140.501 111.055 136.956 107.302 132.584 107.302C128.211 107.302 124.667 111.055 124.667 115.684Z" fill="#E2D5C2" stroke="#9DA0A2"/>
</g>
<mask id="mask3" mask-type="alpha" maskUnits="userSpaceOnUse" x="124" y="140" width="17" height="18">
<path d="M124.667 149.211C124.667 153.84 128.211 157.592 132.584 157.592C136.956 157.592 140.501 153.84 140.501 149.211C140.501 144.582 136.956 140.829 132.584 140.829C128.211 140.829 124.667 144.582 124.667 149.211Z" fill="#E2D5C2"/>
</mask>
<g mask="url(#mask3)">
<path d="M124.667 149.211C124.667 153.84 128.211 157.592 132.584 157.592C136.956 157.592 140.501 153.84 140.501 149.211C140.501 144.582 136.956 140.829 132.584 140.829C128.211 140.829 124.667 144.582 124.667 149.211Z" fill="#E2D5C2" stroke="#9DA0A2"/>
</g>
<mask id="mask4" mask-type="alpha" maskUnits="userSpaceOnUse" x="156" y="73" width="17" height="84">
<path d="M156.335 82.0901V148.395C156.335 153.084 159.991 156.71 164.253 156.71C168.717 156.71 172.17 152.871 172.17 148.395V82.0901C172.17 77.4013 168.517 73.7753 164.253 73.7753C159.788 73.7753 156.335 77.4013 156.335 82.0901Z" fill="#E2D5C2"/>
</mask>
<g mask="url(#mask4)">
<path d="M156.335 82.0901V148.395C156.335 153.084 159.991 156.71 164.253 156.71C168.717 156.71 172.17 152.871 172.17 148.395V82.0901C172.17 77.4013 168.517 73.7753 164.253 73.7753C159.788 73.7753 156.335 77.4013 156.335 82.0901Z" fill="#E2D5C2" stroke="#9DA0A2"/>
</g>
<mask id="mask5" mask-type="alpha" maskUnits="userSpaceOnUse" x="92" y="106" width="17" height="84">
<path d="M92.9979 115.176L92.9979 181.481C92.9979 186.173 96.6514 189.796 100.914 189.796C105.382 189.796 108.832 185.959 108.832 181.481L108.832 115.176C108.832 110.487 105.179 106.861 100.914 106.861C96.6514 106.861 92.9979 110.697 92.9979 115.176Z" fill="#E2D5C2"/>
</mask>
<g mask="url(#mask5)">
<path d="M92.9979 115.176L92.9979 181.481C92.9979 186.173 96.6514 189.796 100.914 189.796C105.382 189.796 108.832 185.959 108.832 181.481L108.832 115.176C108.832 110.487 105.179 106.861 100.914 106.861C96.6514 106.861 92.9979 110.697 92.9979 115.176Z" fill="#E2D5C2" stroke="#9DA0A2"/>
</g>
<mask id="mask6" mask-type="alpha" maskUnits="userSpaceOnUse" x="61" y="73" width="17" height="84">
<path d="M61.7458 82.0901L61.7458 148.395C61.7458 153.084 65.3025 156.71 69.4546 156.71C73.8018 156.71 77.1635 152.871 77.1635 148.395L77.1635 82.0901C77.1635 77.4013 73.6042 73.7753 69.4546 73.7753C65.1049 73.7753 61.7458 77.4013 61.7458 82.0901Z" fill="#E2D5C2"/>
</mask>
<g mask="url(#mask6)">
<path d="M61.7458 82.0901L61.7458 148.395C61.7458 153.084 65.3025 156.71 69.4546 156.71C73.8018 156.71 77.1635 152.871 77.1635 148.395L77.1635 82.0901C77.1635 77.4013 73.6042 73.7753 69.4546 73.7753C65.1049 73.7753 61.7458 77.4013 61.7458 82.0901Z" fill="#E2D5C2" stroke="#9DA0A2"/>
</g>
<mask id="mask7" mask-type="alpha" maskUnits="userSpaceOnUse" x="61" y="173" width="17" height="18">
<path d="M61.7458 181.857C61.7458 186.486 65.1973 190.237 69.4546 190.237C73.7119 190.237 77.1635 186.486 77.1635 181.857C77.1635 177.224 73.7119 173.474 69.4546 173.474C65.1973 173.474 61.7458 177.224 61.7458 181.857Z" fill="#E2D5C2"/>
</mask>
<g mask="url(#mask7)">
<path d="M61.7458 181.857C61.7458 186.486 65.1973 190.237 69.4546 190.237C73.7119 190.237 77.1635 186.486 77.1635 181.857C77.1635 177.224 73.7119 173.474 69.4546 173.474C65.1973 173.474 61.7458 177.224 61.7458 181.857Z" fill="#E2D5C2" stroke="#9DA0A2"/>
</g>
<mask id="mask8" mask-type="alpha" maskUnits="userSpaceOnUse" x="61" y="40" width="17" height="18">
<path d="M61.7458 48.848C61.7458 53.3551 65.1973 57.0119 69.4546 57.0119C73.7119 57.0119 77.1635 53.3551 77.1635 48.848C77.1635 44.3409 73.7119 40.6896 69.4546 40.6896C65.1973 40.6896 61.7458 44.3409 61.7458 48.848Z" fill="#E2D5C2"/>
</mask>
<g mask="url(#mask8)">
<path d="M61.7458 48.848C61.7458 53.3551 65.1973 57.0119 69.4546 57.0119C73.7119 57.0119 77.1635 53.3551 77.1635 48.848C77.1635 44.3409 73.7119 40.6896 69.4546 40.6896C65.1973 40.6896 61.7458 44.3409 61.7458 48.848Z" fill="#E2D5C2" stroke="#9DA0A2"/>
</g>
<mask id="mask9" mask-type="alpha" maskUnits="userSpaceOnUse" x="30" y="73" width="16" height="84">
<path d="M30.4937 82.1102L30.4937 147.934C30.4937 152.634 34.0504 156.269 38.2025 156.269C42.5522 156.269 45.9114 152.421 45.9114 147.934L45.9114 82.1102C45.9114 77.6237 42.3521 73.7753 38.2025 73.7753C33.8554 73.7753 30.4937 77.6237 30.4937 82.1102Z" fill="#E2D5C2"/>
</mask>
<g mask="url(#mask9)">
<path d="M30.4937 82.1102L30.4937 147.934C30.4937 152.634 34.0504 156.269 38.2025 156.269C42.5522 156.269 45.9114 152.421 45.9114 147.934L45.9114 82.1102C45.9114 77.6237 42.3521 73.7753 38.2025 73.7753C33.8554 73.7753 30.4937 77.6237 30.4937 82.1102Z" fill="#E2D5C2" stroke="#142D4B"/>
</g>
<path d="M270.192 224.96C263.792 224.96 258.832 222.816 255.312 218.528V221.6C255.312 222.24 255.088 222.816 254.64 223.328C254.192 223.776 253.616 224 252.912 224H242.064C241.424 224 240.848 223.776 240.336 223.328C239.888 222.816 239.664 222.24 239.664 221.6V158.24C239.664 157.536 239.888 156.96 240.336 156.512C240.848 156.064 241.424 155.84 242.064 155.84H253.776C254.48 155.84 255.056 156.064 255.504 156.512C255.952 156.96 256.176 157.536 256.176 158.24V178.784C259.76 175.008 264.432 173.12 270.192 173.12C276.4 173.12 281.296 175.136 284.88 179.168C288.464 183.2 290.384 188.672 290.64 195.584C290.704 196.416 290.736 197.568 290.736 199.04C290.736 200.448 290.704 201.568 290.64 202.4C290.32 209.568 288.4 215.136 284.88 219.104C281.36 223.008 276.464 224.96 270.192 224.96ZM265.008 212.096C268.016 212.096 270.16 211.2 271.44 209.408C272.784 207.616 273.552 205.152 273.744 202.016C273.872 200.736 273.936 199.744 273.936 199.04C273.936 198.336 273.872 197.344 273.744 196.064C273.552 192.928 272.784 190.464 271.44 188.672C270.16 186.88 268.016 185.984 265.008 185.984C262.192 185.984 260.048 186.848 258.576 188.576C257.104 190.304 256.304 192.48 256.176 195.104L256.08 198.656L256.176 202.304C256.368 205.184 257.136 207.552 258.48 209.408C259.888 211.2 262.064 212.096 265.008 212.096ZM302.531 166.88C301.827 166.88 301.251 166.656 300.803 166.208C300.355 165.76 300.131 165.184 300.131 164.48V155.84C300.131 155.136 300.355 154.56 300.803 154.112C301.251 153.664 301.827 153.44 302.531 153.44H314.051C314.755 153.44 315.331 153.664 315.779 154.112C316.227 154.56 316.451 155.136 316.451 155.84V164.48C316.451 165.184 316.227 165.76 315.779 166.208C315.331 166.656 314.755 166.88 314.051 166.88H302.531ZM302.627 224C301.923 224 301.347 223.776 300.898 223.328C300.451 222.88 300.227 222.304 300.227 221.6V176.48C300.227 175.776 300.451 175.2 300.898 174.752C301.347 174.304 301.923 174.08 302.627 174.08H313.955C314.659 174.08 315.235 174.304 315.683 174.752C316.131 175.2 316.355 175.776 316.355 176.48V221.6C316.355 222.24 316.131 222.816 315.683 223.328C315.235 223.776 314.659 224 313.955 224H302.627ZM348.239 224.96C343.055 224.96 338.703 224.224 335.183 222.752C331.727 221.28 329.167 219.52 327.503 217.472C325.839 215.424 325.007 213.6 325.007 212C325.007 211.36 325.231 210.848 325.679 210.464C326.191 210.016 326.735 209.792 327.311 209.792H338.255C338.639 209.792 338.991 209.952 339.311 210.272C340.079 210.784 340.655 211.2 341.039 211.52C342.447 212.544 343.663 213.312 344.687 213.824C345.775 214.272 347.087 214.496 348.623 214.496C350.479 214.496 351.983 214.144 353.135 213.44C354.351 212.672 354.959 211.616 354.959 210.272C354.959 209.184 354.639 208.32 353.999 207.68C353.423 207.04 352.271 206.432 350.543 205.856C348.815 205.216 346.191 204.544 342.671 203.84C337.359 202.752 333.263 200.992 330.383 198.56C327.567 196.064 326.159 192.736 326.159 188.576C326.159 185.952 326.991 183.456 328.655 181.088C330.319 178.72 332.783 176.8 336.047 175.328C339.375 173.856 343.311 173.12 347.855 173.12C352.399 173.12 356.367 173.824 359.759 175.232C363.151 176.64 365.711 178.368 367.439 180.416C369.231 182.4 370.127 184.224 370.127 185.888C370.127 186.464 369.903 186.976 369.455 187.424C369.071 187.872 368.591 188.096 368.015 188.096H358.031C357.519 188.096 357.039 187.936 356.591 187.616C355.759 187.168 355.023 186.688 354.383 186.176C353.295 185.344 352.271 184.704 351.311 184.256C350.351 183.808 349.167 183.584 347.759 183.584C346.095 183.584 344.751 183.968 343.727 184.736C342.767 185.504 342.287 186.496 342.287 187.712C342.287 188.672 342.543 189.472 343.055 190.112C343.631 190.752 344.783 191.392 346.511 192.032C348.303 192.608 350.927 193.216 354.383 193.856C360.591 194.944 365.103 196.864 367.919 199.616C370.799 202.368 372.239 205.6 372.239 209.312C372.239 214.048 370.127 217.856 365.903 220.736C361.679 223.552 355.791 224.96 348.239 224.96ZM403.702 224.96C396.47 224.96 390.614 223.04 386.134 219.2C381.654 215.296 379.254 209.888 378.934 202.976L378.838 199.136L378.934 195.2C379.19 188.288 381.558 182.88 386.038 178.976C390.582 175.072 396.47 173.12 403.702 173.12C409.142 173.12 413.718 174.112 417.43 176.096C421.206 178.016 423.99 180.352 425.782 183.104C427.638 185.792 428.63 188.256 428.758 190.496C428.822 191.136 428.598 191.712 428.086 192.224C427.638 192.672 427.062 192.896 426.358 192.896H414.166C413.462 192.896 412.918 192.736 412.534 192.416C412.15 192.096 411.798 191.616 411.478 190.976C410.71 188.992 409.718 187.584 408.502 186.752C407.35 185.92 405.846 185.504 403.99 185.504C398.742 185.504 396.022 188.896 395.83 195.68L395.734 199.328L395.83 202.496C395.958 205.952 396.694 208.512 398.038 210.176C399.446 211.776 401.43 212.576 403.99 212.576C405.974 212.576 407.542 212.16 408.694 211.328C409.846 210.496 410.774 209.088 411.478 207.104C411.798 206.464 412.15 205.984 412.534 205.664C412.918 205.344 413.462 205.184 414.166 205.184H426.358C426.998 205.184 427.542 205.408 427.99 205.856C428.502 206.24 428.758 206.752 428.758 207.392C428.758 209.44 427.862 211.84 426.07 214.592C424.342 217.344 421.59 219.776 417.814 221.888C414.038 223.936 409.334 224.96 403.702 224.96ZM455.719 224.96C450.087 224.96 445.543 223.072 442.087 219.296C438.631 215.456 436.903 210.112 436.903 203.264V176.48C436.903 175.776 437.127 175.2 437.575 174.752C438.023 174.304 438.599 174.08 439.303 174.08H451.303C452.007 174.08 452.583 174.304 453.031 174.752C453.543 175.2 453.799 175.776 453.799 176.48V202.688C453.799 208.96 456.583 212.096 462.151 212.096C464.839 212.096 466.951 211.264 468.487 209.6C470.023 207.936 470.791 205.632 470.791 202.688V176.48C470.791 175.776 471.015 175.2 471.463 174.752C471.975 174.304 472.551 174.08 473.191 174.08H485.191C485.895 174.08 486.471 174.304 486.919 174.752C487.367 175.2 487.591 175.776 487.591 176.48V221.6C487.591 222.24 487.367 222.816 486.919 223.328C486.471 223.776 485.895 224 485.191 224H474.055C473.415 224 472.839 223.776 472.327 223.328C471.879 222.816 471.655 222.24 471.655 221.6V217.952C468.327 222.624 463.015 224.96 455.719 224.96ZM501.187 166.88C500.483 166.88 499.907 166.656 499.459 166.208C499.011 165.76 498.787 165.184 498.787 164.48V155.84C498.787 155.136 499.011 154.56 499.459 154.112C499.907 153.664 500.483 153.44 501.187 153.44H512.707C513.411 153.44 513.987 153.664 514.435 154.112C514.883 154.56 515.107 155.136 515.107 155.84V164.48C515.107 165.184 514.883 165.76 514.435 166.208C513.987 166.656 513.411 166.88 512.707 166.88H501.187ZM501.283 224C500.579 224 500.003 223.776 499.555 223.328C499.107 222.88 498.883 222.304 498.883 221.6V176.48C498.883 175.776 499.107 175.2 499.555 174.752C500.003 174.304 500.579 174.08 501.283 174.08H512.611C513.315 174.08 513.891 174.304 514.339 174.752C514.787 175.2 515.011 175.776 515.011 176.48V221.6C515.011 222.24 514.787 222.816 514.339 223.328C513.891 223.776 513.315 224 512.611 224H501.283ZM551.888 224C538.64 224 532.016 217.696 532.016 205.088V186.656H524.528C523.824 186.656 523.216 186.432 522.704 185.984C522.256 185.536 522.032 184.96 522.032 184.256V176.48C522.032 175.776 522.256 175.2 522.704 174.752C523.216 174.304 523.824 174.08 524.528 174.08H532.016V158.24C532.016 157.536 532.24 156.96 532.688 156.512C533.2 156.064 533.776 155.84 534.416 155.84H545.552C546.256 155.84 546.832 156.064 547.28 156.512C547.728 156.96 547.952 157.536 547.952 158.24V174.08H559.952C560.656 174.08 561.232 174.304 561.68 174.752C562.192 175.2 562.448 175.776 562.448 176.48V184.256C562.448 184.96 562.192 185.536 561.68 185.984C561.232 186.432 560.656 186.656 559.952 186.656H547.952V203.744C547.952 208.48 549.776 210.848 553.424 210.848H560.816C561.52 210.848 562.096 211.072 562.544 211.52C562.992 211.968 563.216 212.544 563.216 213.248V221.6C563.216 222.24 562.992 222.816 562.544 223.328C562.096 223.776 561.52 224 560.816 224H551.888ZM591.708 224.96C586.524 224.96 582.172 224.224 578.652 222.752C575.196 221.28 572.636 219.52 570.972 217.472C569.308 215.424 568.476 213.6 568.476 212C568.476 211.36 568.7 210.848 569.148 210.464C569.66 210.016 570.204 209.792 570.78 209.792H581.724C582.108 209.792 582.46 209.952 582.78 210.272C583.548 210.784 584.124 211.2 584.508 211.52C585.916 212.544 587.132 213.312 588.156 213.824C589.244 214.272 590.556 214.496 592.092 214.496C593.948 214.496 595.452 214.144 596.604 213.44C597.82 212.672 598.428 211.616 598.428 210.272C598.428 209.184 598.108 208.32 597.468 207.68C596.892 207.04 595.74 206.432 594.012 205.856C592.284 205.216 589.66 204.544 586.14 203.84C580.828 202.752 576.732 200.992 573.852 198.56C571.036 196.064 569.628 192.736 569.628 188.576C569.628 185.952 570.46 183.456 572.124 181.088C573.788 178.72 576.252 176.8 579.516 175.328C582.844 173.856 586.78 173.12 591.324 173.12C595.868 173.12 599.836 173.824 603.228 175.232C606.62 176.64 609.18 178.368 610.908 180.416C612.7 182.4 613.596 184.224 613.596 185.888C613.596 186.464 613.372 186.976 612.924 187.424C612.54 187.872 612.06 188.096 611.484 188.096H601.5C600.988 188.096 600.508 187.936 600.06 187.616C599.228 187.168 598.492 186.688 597.852 186.176C596.764 185.344 595.74 184.704 594.78 184.256C593.82 183.808 592.636 183.584 591.228 183.584C589.564 183.584 588.22 183.968 587.196 184.736C586.236 185.504 585.756 186.496 585.756 187.712C585.756 188.672 586.012 189.472 586.524 190.112C587.1 190.752 588.252 191.392 589.98 192.032C591.772 192.608 594.396 193.216 597.852 193.856C604.06 194.944 608.572 196.864 611.388 199.616C614.268 202.368 615.708 205.6 615.708 209.312C615.708 214.048 613.596 217.856 609.372 220.736C605.148 223.552 599.26 224.96 591.708 224.96ZM647.267 224.96C639.587 224.96 633.539 222.88 629.123 218.72C624.707 214.56 622.403 208.512 622.211 200.576V197.216C622.467 189.664 624.803 183.776 629.219 179.552C633.699 175.264 639.683 173.12 647.171 173.12C652.611 173.12 657.187 174.24 660.899 176.48C664.675 178.656 667.491 181.664 669.347 185.504C671.267 189.344 672.227 193.76 672.227 198.752V201.056C672.227 201.696 672.003 202.272 671.555 202.784C671.107 203.232 670.531 203.456 669.827 203.456H639.107V204.128C639.235 207.136 639.971 209.568 641.315 211.424C642.659 213.28 644.611 214.208 647.171 214.208C648.771 214.208 650.083 213.888 651.107 213.248C652.131 212.544 653.059 211.712 653.891 210.752C654.467 210.048 654.915 209.632 655.235 209.504C655.619 209.312 656.195 209.216 656.963 209.216H668.867C669.443 209.216 669.923 209.408 670.307 209.792C670.755 210.112 670.979 210.56 670.979 211.136C670.979 212.8 670.019 214.72 668.099 216.896C666.243 219.072 663.523 220.96 659.939 222.56C656.355 224.16 652.131 224.96 647.267 224.96ZM655.331 193.952V193.76C655.331 190.624 654.595 188.16 653.123 186.368C651.715 184.512 649.731 183.584 647.171 183.584C644.675 183.584 642.691 184.512 641.219 186.368C639.811 188.16 639.107 190.624 639.107 193.76V193.952H655.331ZM704.171 224.96C696.939 224.96 691.083 223.04 686.603 219.2C682.123 215.296 679.723 209.888 679.403 202.976L679.307 199.136L679.403 195.2C679.659 188.288 682.027 182.88 686.507 178.976C691.051 175.072 696.939 173.12 704.171 173.12C709.611 173.12 714.187 174.112 717.899 176.096C721.675 178.016 724.458 180.352 726.25 183.104C728.107 185.792 729.099 188.256 729.227 190.496C729.291 191.136 729.067 191.712 728.555 192.224C728.107 192.672 727.531 192.896 726.827 192.896H714.635C713.931 192.896 713.387 192.736 713.003 192.416C712.619 192.096 712.267 191.616 711.947 190.976C711.179 188.992 710.187 187.584 708.971 186.752C707.819 185.92 706.315 185.504 704.459 185.504C699.211 185.504 696.491 188.896 696.299 195.68L696.203 199.328L696.299 202.496C696.427 205.952 697.163 208.512 698.507 210.176C699.915 211.776 701.899 212.576 704.459 212.576C706.443 212.576 708.011 212.16 709.163 211.328C710.315 210.496 711.243 209.088 711.947 207.104C712.267 206.464 712.619 205.984 713.003 205.664C713.387 205.344 713.931 205.184 714.635 205.184H726.827C727.467 205.184 728.011 205.408 728.458 205.856C728.971 206.24 729.227 206.752 729.227 207.392C729.227 209.44 728.331 211.84 726.539 214.592C724.811 217.344 722.059 219.776 718.283 221.888C714.507 223.936 709.803 224.96 704.171 224.96Z" fill="white"/>
<path d="M241.86 72C241.393 72 240.997 71.86 240.67 71.58C240.39 71.2533 240.25 70.8567 240.25 70.39V23.91C240.25 23.4433 240.39 23.07 240.67 22.79C240.997 22.4633 241.393 22.3 241.86 22.3H245.15C245.617 22.3 245.99 22.4633 246.27 22.79C246.597 23.07 246.76 23.4433 246.76 23.91V70.39C246.76 70.8567 246.597 71.2533 246.27 71.58C245.99 71.86 245.617 72 245.15 72H241.86ZM258.251 28.81C257.785 28.81 257.388 28.67 257.061 28.39C256.781 28.0633 256.641 27.6667 256.641 27.2V23.42C256.641 22.9533 256.781 22.5567 257.061 22.23C257.388 21.9033 257.785 21.74 258.251 21.74H262.661C263.128 21.74 263.525 21.9033 263.851 22.23C264.178 22.5567 264.341 22.9533 264.341 23.42V27.2C264.341 27.6667 264.178 28.0633 263.851 28.39C263.525 28.67 263.128 28.81 262.661 28.81H258.251ZM258.811 72C258.345 72 257.948 71.86 257.621 71.58C257.341 71.2533 257.201 70.8567 257.201 70.39V37.21C257.201 36.7433 257.341 36.37 257.621 36.09C257.948 35.7633 258.345 35.6 258.811 35.6H262.171C262.638 35.6 263.011 35.7633 263.291 36.09C263.618 36.37 263.781 36.7433 263.781 37.21V70.39C263.781 70.8567 263.618 71.2533 263.291 71.58C263.011 71.86 262.638 72 262.171 72H258.811ZM286.825 72C285.611 72 284.748 71.4167 284.235 70.25L271.285 37.77L271.145 37.07C271.145 36.65 271.285 36.3 271.565 36.02C271.845 35.74 272.195 35.6 272.615 35.6H275.975C276.768 35.6 277.351 35.9967 277.725 36.79L288.365 64.37L299.005 36.79C299.425 35.9967 299.985 35.6 300.685 35.6H304.115C304.488 35.6 304.815 35.74 305.095 36.02C305.421 36.3 305.585 36.65 305.585 37.07L305.445 37.77L292.425 70.25C291.911 71.4167 291.048 72 289.835 72H286.825ZM326.176 72.7C321.369 72.7 317.519 71.23 314.626 68.29C311.779 65.3033 310.216 61.2433 309.936 56.11L309.866 53.73L309.936 51.42C310.262 46.38 311.849 42.3667 314.696 39.38C317.589 36.3933 321.392 34.9 326.106 34.9C331.286 34.9 335.299 36.5567 338.146 39.87C340.992 43.1367 342.416 47.57 342.416 53.17V54.36C342.416 54.8267 342.252 55.2233 341.926 55.55C341.646 55.83 341.272 55.97 340.806 55.97H316.586V56.6C316.726 59.6333 317.636 62.2233 319.316 64.37C321.042 66.47 323.306 67.52 326.106 67.52C328.252 67.52 330.002 67.1 331.356 66.26C332.756 65.3733 333.782 64.4633 334.436 63.53C334.856 62.97 335.159 62.6433 335.346 62.55C335.579 62.41 335.976 62.34 336.536 62.34H339.966C340.386 62.34 340.736 62.4567 341.016 62.69C341.296 62.9233 341.436 63.25 341.436 63.67C341.436 64.6967 340.782 65.9333 339.476 67.38C338.216 68.8267 336.419 70.0867 334.086 71.16C331.799 72.1867 329.162 72.7 326.176 72.7ZM335.766 51.14V50.93C335.766 47.71 334.879 45.0967 333.106 43.09C331.379 41.0367 329.046 40.01 326.106 40.01C323.166 40.01 320.832 41.0367 319.106 43.09C317.426 45.0967 316.586 47.71 316.586 50.93V51.14H335.766ZM369.624 85.3C369.157 85.3 368.76 85.1367 368.434 84.81C368.154 84.53 368.014 84.1567 368.014 83.69V37.21C368.014 36.7433 368.154 36.37 368.434 36.09C368.76 35.7633 369.157 35.6 369.624 35.6H372.844C373.31 35.6 373.684 35.7633 373.964 36.09C374.29 36.37 374.454 36.7433 374.454 37.21V40.29C377.067 36.6967 380.894 34.9 385.934 34.9C390.834 34.9 394.497 36.44 396.924 39.52C399.397 42.6 400.727 46.5667 400.914 51.42C400.96 51.9333 400.984 52.7267 400.984 53.8C400.984 54.8733 400.96 55.6667 400.914 56.18C400.727 60.9867 399.397 64.9533 396.924 68.08C394.45 71.16 390.787 72.7 385.934 72.7C381.08 72.7 377.3 70.95 374.594 67.45V83.69C374.594 84.1567 374.454 84.53 374.174 84.81C373.894 85.1367 373.52 85.3 373.054 85.3H369.624ZM384.464 67.03C387.777 67.03 390.18 66.0033 391.674 63.95C393.214 61.8967 394.054 59.19 394.194 55.83C394.24 55.3633 394.264 54.6867 394.264 53.8C394.264 44.98 390.997 40.57 384.464 40.57C381.244 40.57 378.817 41.6433 377.184 43.79C375.597 45.89 374.734 48.41 374.594 51.35L374.524 54.01L374.594 56.74C374.687 59.4933 375.574 61.8967 377.254 63.95C378.934 66.0033 381.337 67.03 384.464 67.03ZM411.323 72C410.856 72 410.46 71.86 410.133 71.58C409.853 71.2533 409.713 70.8567 409.713 70.39V23.91C409.713 23.4433 409.853 23.07 410.133 22.79C410.46 22.4633 410.856 22.3 411.323 22.3H414.613C415.08 22.3 415.453 22.4633 415.733 22.79C416.06 23.07 416.223 23.4433 416.223 23.91V70.39C416.223 70.8567 416.06 71.2533 415.733 71.58C415.453 71.86 415.08 72 414.613 72H411.323ZM436.814 72.7C434.528 72.7 432.404 72.2333 430.444 71.3C428.484 70.3667 426.921 69.1067 425.754 67.52C424.634 65.8867 424.074 64.09 424.074 62.13C424.074 59.05 425.334 56.53 427.854 54.57C430.421 52.5633 433.874 51.2567 438.214 50.65L448.644 49.18V47.15C448.644 42.39 445.914 40.01 440.454 40.01C438.401 40.01 436.721 40.4533 435.414 41.34C434.108 42.18 433.128 43.1833 432.474 44.35C432.334 44.77 432.148 45.0733 431.914 45.26C431.728 45.4467 431.448 45.54 431.074 45.54H428.064C427.644 45.54 427.271 45.4 426.944 45.12C426.664 44.7933 426.524 44.42 426.524 44C426.571 42.88 427.084 41.62 428.064 40.22C429.091 38.7733 430.654 37.5367 432.754 36.51C434.854 35.4367 437.444 34.9 440.524 34.9C445.751 34.9 449.508 36.1367 451.794 38.61C454.081 41.0367 455.224 44.07 455.224 47.71V70.39C455.224 70.8567 455.061 71.2533 454.734 71.58C454.454 71.86 454.081 72 453.614 72H450.394C449.928 72 449.531 71.86 449.204 71.58C448.924 71.2533 448.784 70.8567 448.784 70.39V67.38C447.758 68.8733 446.264 70.1333 444.304 71.16C442.344 72.1867 439.848 72.7 436.814 72.7ZM438.284 67.45C441.318 67.45 443.791 66.47 445.704 64.51C447.664 62.5033 448.644 59.6333 448.644 55.9V53.94L440.524 55.13C437.211 55.5967 434.714 56.39 433.034 57.51C431.354 58.5833 430.514 59.96 430.514 61.64C430.514 63.5067 431.284 64.9533 432.824 65.98C434.364 66.96 436.184 67.45 438.284 67.45ZM470.905 85.3C470.532 85.3 470.205 85.16 469.925 84.88C469.645 84.6 469.505 84.2733 469.505 83.9C469.505 83.5733 469.622 83.1533 469.855 82.64L475.245 69.83L461.875 38.26C461.642 37.6533 461.525 37.2567 461.525 37.07C461.525 36.65 461.665 36.3 461.945 36.02C462.225 35.74 462.575 35.6 462.995 35.6H466.425C467.172 35.6 467.732 35.9967 468.105 36.79L478.745 62.27L489.665 36.79C490.039 35.9967 490.622 35.6 491.415 35.6H494.705C495.125 35.6 495.475 35.74 495.755 36.02C496.035 36.3 496.175 36.6267 496.175 37C496.175 37.14 496.059 37.56 495.825 38.26L475.945 84.11C475.572 84.9033 474.989 85.3 474.195 85.3H470.905ZM516.906 87.4C513.08 87.4 510 86.7467 507.666 85.44C505.333 84.18 503.676 82.7333 502.696 81.1C501.716 79.4667 501.18 77.9967 501.086 76.69C501.04 76.2233 501.18 75.8267 501.506 75.5C501.88 75.1733 502.276 75.01 502.696 75.01H506.056C506.476 75.01 506.826 75.1033 507.106 75.29C507.386 75.5233 507.62 75.92 507.806 76.48C508.366 77.9733 509.276 79.2567 510.536 80.33C511.843 81.45 513.85 82.01 516.556 82.01C520.01 82.01 522.553 81.2633 524.186 79.77C525.82 78.3233 526.636 75.7333 526.636 72V67.24C525.423 68.78 523.883 70.0167 522.016 70.95C520.15 71.8367 517.933 72.28 515.366 72.28C510.42 72.28 506.71 70.7167 504.236 67.59C501.81 64.4167 500.526 60.4033 500.386 55.55L500.316 53.59L500.386 51.7C500.526 46.8933 501.833 42.9033 504.306 39.73C506.78 36.51 510.466 34.9 515.366 34.9C520.266 34.9 524.093 36.6967 526.846 40.29V37.28C526.846 36.8133 526.986 36.4167 527.266 36.09C527.593 35.7633 527.99 35.6 528.456 35.6H531.676C532.143 35.6 532.54 35.7633 532.866 36.09C533.193 36.4167 533.356 36.8133 533.356 37.28V71.23C533.356 82.01 527.873 87.4 516.906 87.4ZM516.766 66.68C519.94 66.68 522.343 65.63 523.976 63.53C525.61 61.43 526.496 58.9333 526.636 56.04C526.683 55.62 526.706 54.8033 526.706 53.59C526.706 52.4233 526.683 51.63 526.636 51.21C526.496 48.3167 525.61 45.82 523.976 43.72C522.39 41.62 519.986 40.57 516.766 40.57C513.453 40.57 511.05 41.5967 509.556 43.65C508.063 45.7033 507.246 48.41 507.106 51.77L507.036 53.59L507.106 55.48C507.246 58.7933 508.063 61.5 509.556 63.6C511.05 65.6533 513.453 66.68 516.766 66.68ZM545.374 72C544.907 72 544.511 71.86 544.184 71.58C543.904 71.2533 543.764 70.8567 543.764 70.39V37.28C543.764 36.8133 543.904 36.4167 544.184 36.09C544.511 35.7633 544.907 35.6 545.374 35.6H548.594C549.061 35.6 549.457 35.7633 549.784 36.09C550.111 36.4167 550.274 36.8133 550.274 37.28V40.36C552.187 37.1867 555.454 35.6 560.074 35.6H562.804C563.271 35.6 563.644 35.7633 563.924 36.09C564.251 36.37 564.414 36.7433 564.414 37.21V40.08C564.414 40.5467 564.251 40.92 563.924 41.2C563.644 41.48 563.271 41.62 562.804 41.62H558.604C556.084 41.62 554.101 42.3667 552.654 43.86C551.207 45.3067 550.484 47.29 550.484 49.81V70.39C550.484 70.8567 550.321 71.2533 549.994 71.58C549.667 71.86 549.271 72 548.804 72H545.374ZM584.582 72.7C579.449 72.7 575.459 71.2533 572.612 68.36C569.812 65.4667 568.319 61.6167 568.132 56.81L568.062 53.8L568.132 50.79C568.319 46.03 569.836 42.2033 572.682 39.31C575.529 36.37 579.496 34.9 584.582 34.9C589.669 34.9 593.636 36.37 596.482 39.31C599.329 42.2033 600.846 46.03 601.032 50.79C601.079 51.3033 601.102 52.3067 601.102 53.8C601.102 55.2933 601.079 56.2967 601.032 56.81C600.846 61.6167 599.329 65.4667 596.482 68.36C593.682 71.2533 589.716 72.7 584.582 72.7ZM584.582 67.31C587.522 67.31 589.832 66.3767 591.512 64.51C593.239 62.6433 594.172 59.96 594.312 56.46C594.359 55.9933 594.382 55.1067 594.382 53.8C594.382 52.4933 594.359 51.6067 594.312 51.14C594.172 47.64 593.239 44.9567 591.512 43.09C589.832 41.2233 587.522 40.29 584.582 40.29C581.642 40.29 579.309 41.2233 577.582 43.09C575.856 44.9567 574.946 47.64 574.852 51.14L574.782 53.8L574.852 56.46C574.946 59.96 575.856 62.6433 577.582 64.51C579.309 66.3767 581.642 67.31 584.582 67.31ZM623.448 72.7C619.014 72.7 615.584 71.2767 613.158 68.43C610.731 65.5367 609.518 61.71 609.518 56.95V37.21C609.518 36.7433 609.658 36.37 609.938 36.09C610.264 35.7633 610.661 35.6 611.128 35.6H614.628C615.094 35.6 615.468 35.7633 615.748 36.09C616.074 36.37 616.238 36.7433 616.238 37.21V56.6C616.238 63.5533 619.271 67.03 625.338 67.03C628.278 67.03 630.611 66.12 632.338 64.3C634.064 62.4333 634.928 59.8667 634.928 56.6V37.21C634.928 36.7433 635.068 36.37 635.348 36.09C635.674 35.7633 636.071 35.6 636.538 35.6H640.037C640.504 35.6 640.878 35.7633 641.158 36.09C641.438 36.37 641.578 36.7433 641.578 37.21V70.39C641.578 70.8567 641.438 71.2533 641.158 71.58C640.878 71.86 640.504 72 640.037 72H636.748C636.281 72 635.884 71.86 635.558 71.58C635.278 71.2533 635.138 70.8567 635.138 70.39V67.31C633.831 69.0833 632.244 70.4367 630.378 71.37C628.511 72.2567 626.201 72.7 623.448 72.7ZM653.587 72C653.12 72 652.724 71.86 652.397 71.58C652.117 71.2533 651.977 70.8567 651.977 70.39V37.21C651.977 36.7433 652.117 36.37 652.397 36.09C652.724 35.7633 653.12 35.6 653.587 35.6H656.877C657.344 35.6 657.717 35.7633 657.997 36.09C658.324 36.37 658.487 36.7433 658.487 37.21V40.29C659.84 38.5633 661.427 37.2333 663.247 36.3C665.114 35.3667 667.424 34.9 670.177 34.9C674.657 34.9 678.134 36.3467 680.607 39.24C683.127 42.0867 684.387 45.89 684.387 50.65V70.39C684.387 70.8567 684.224 71.2533 683.897 71.58C683.617 71.86 683.244 72 682.777 72H679.277C678.81 72 678.414 71.86 678.087 71.58C677.807 71.2533 677.667 70.8567 677.667 70.39V51C677.667 47.6867 676.85 45.12 675.217 43.3C673.63 41.48 671.32 40.57 668.287 40.57C665.347 40.57 663.014 41.5033 661.287 43.37C659.56 45.19 658.697 47.7333 658.697 51V70.39C658.697 70.8567 658.534 71.2533 658.207 71.58C657.927 71.86 657.554 72 657.087 72H653.587ZM707.728 72.7C702.875 72.7 699.211 71.1133 696.738 67.94C694.265 64.7667 692.958 60.7533 692.818 55.9L692.748 53.8L692.818 51.7C692.958 46.8933 694.265 42.9033 696.738 39.73C699.211 36.51 702.875 34.9 707.728 34.9C712.535 34.9 716.315 36.6033 719.068 40.01V23.91C719.068 23.4433 719.208 23.07 719.488 22.79C719.815 22.4633 720.211 22.3 720.678 22.3H724.038C724.505 22.3 724.878 22.4633 725.158 22.79C725.485 23.07 725.648 23.4433 725.648 23.91V70.39C725.648 70.8567 725.485 71.2533 725.158 71.58C724.878 71.86 724.505 72 724.038 72H720.888C720.421 72 720.025 71.86 719.698 71.58C719.418 71.2533 719.278 70.8567 719.278 70.39V67.45C716.571 70.95 712.721 72.7 707.728 72.7ZM709.198 67.03C712.418 67.03 714.821 65.98 716.408 63.88C718.041 61.7333 718.928 59.19 719.068 56.25C719.115 55.7367 719.138 54.85 719.138 53.59C719.138 52.2833 719.115 51.3733 719.068 50.86C718.975 48.1067 718.088 45.7033 716.408 43.65C714.728 41.5967 712.325 40.57 709.198 40.57C705.885 40.57 703.458 41.5967 701.918 43.65C700.425 45.7033 699.608 48.41 699.468 51.77L699.398 53.8C699.398 62.62 702.665 67.03 709.198 67.03Z" fill="white"/>
</svg>
