<svg width="754" height="230" viewBox="0 0 754 230" fill="none" xmlns="http://www.w3.org/2000/svg">
<path d="M37.267 43.3318H165.396L165.396 193.408H37.267L37.267 43.3318Z" fill="#D1A26A"/>
<path d="M0 219.815C0 225.045 4.11015 230 9.1745 230C13.7369 230 17.5049 226.562 18.2172 222.064H25.8191C26.5332 226.561 30.3066 230 34.8627 230C39.417 230 43.1914 226.562 43.9054 222.064H51.5074C52.2214 226.561 55.9948 230 60.5509 230C65.1134 230 68.8805 226.562 69.5936 222.064H77.1956C77.9096 226.561 81.6831 230 86.2392 230C90.8016 230 94.5687 226.562 95.2819 222.064H102.884C103.598 226.561 107.371 230 111.927 230C116.482 230 120.256 226.562 120.97 222.064H128.572C129.286 226.561 133.06 230 137.616 230C142.179 230 145.946 226.562 146.658 222.064H154.26C154.974 226.561 158.748 230 163.304 230C167.867 230 171.634 226.562 172.347 222.064H179.948C180.663 226.561 184.436 230 188.992 230C194.055 230 198.166 225.755 198.166 220.526C198.166 216.832 196.111 213.638 193.123 212.075V205.056C197.079 204.001 200 200.302 200 195.892C200 191.481 197.079 187.782 193.123 186.728V178.526C197.079 177.472 200 173.772 200 169.362C200 164.951 197.079 161.253 193.123 160.199V151.997C197.079 150.943 200 147.243 200 142.833C200 138.422 197.079 134.724 193.123 133.669V125.468C197.079 124.413 200 120.714 200 116.304C200 111.893 197.079 108.194 193.123 107.14V98.9384C197.079 97.8839 200 94.1844 200 89.7745C200 85.3637 197.079 81.6652 193.123 80.6107V72.409C197.079 71.3546 200 67.6551 200 63.2452C200 58.8344 197.079 55.1349 193.123 54.0814V45.8797C197.079 44.8253 200 41.1258 200 36.7159C200 32.3041 197.079 28.6056 193.123 27.5521V19.3504C197.079 18.296 200 14.5965 200 10.1866C200 4.95624 195.899 0.711364 190.826 0.711364C186.514 0.711364 182.903 3.79456 181.924 7.93688H174.87C174.151 3.43842 170.385 0 165.821 0C161.265 0 157.493 3.43842 156.778 7.93595L149.175 7.93595C148.464 3.43842 144.698 0 140.133 0C135.577 0 131.805 3.43842 131.091 7.93595H123.488C122.776 3.43842 119.01 0 114.446 0C109.891 0 106.117 3.43842 105.403 7.93595L97.8005 7.93595C97.0882 3.43842 93.3229 0 88.7587 0C84.2035 0 80.4301 3.43842 79.716 7.93595H72.1132C71.4009 3.43842 67.6347 0 63.0714 0C58.5162 0 54.7428 3.43842 54.0287 7.93595H46.4258C45.7118 3.43842 41.9393 0 37.3841 0C32.8289 0 29.0554 3.43842 28.3414 7.93595L20.7385 7.93595C20.0263 3.43842 16.2601 0 11.6967 0C6.63149 0 2.52314 4.24488 2.52314 9.47429C2.52314 12.8782 4.27084 15.8579 6.88335 17.5286L6.88335 24.2339C2.92847 25.2865 0 28.9869 0 33.3987C0 37.8095 2.92847 41.509 6.88335 42.5634V50.7632C2.92847 51.814 0 55.5079 0 59.928C0 64.3398 2.92847 68.0383 6.88335 69.0928L6.88335 77.2926C2.92847 78.3452 0 82.0456 0 86.4573C0 90.8682 2.92847 94.5676 6.88335 95.6221V103.822C2.92847 104.874 0 108.575 0 112.987C0 117.397 2.92847 121.097 6.88335 122.151V130.351C2.92847 131.404 0 135.104 0 139.516C0 143.927 2.92847 147.626 6.88335 148.681L6.88335 156.881C2.92847 157.933 0 161.634 0 166.045C0 170.456 2.92847 174.156 6.88335 175.21V183.41C2.92847 184.462 0 188.163 0 192.575C0 196.986 2.92847 200.685 6.88335 201.739V209.939C2.92847 210.993 0 215.404 0 219.815ZM76.2089 168.605C74.5027 170.367 72.1357 171.38 69.7227 171.38C67.3097 171.38 64.9427 170.367 63.2357 168.605C61.5286 166.833 60.5482 164.397 60.5482 161.896C60.5482 159.404 61.5286 156.969 63.2357 155.197C64.9427 153.434 67.3097 152.421 69.7227 152.421C72.1357 152.421 74.5027 153.435 76.2089 155.197C77.9241 156.968 78.8963 159.404 78.8963 161.896C78.8963 164.397 77.9241 166.832 76.2089 168.605ZM76.2089 121.694C74.5027 123.465 72.1357 124.47 69.7227 124.47C67.3097 124.47 64.9427 123.466 63.2357 121.694C61.5286 119.941 60.5482 117.496 60.5482 114.995C60.5482 112.503 61.5286 110.058 63.2357 108.295C64.9427 106.532 67.3097 105.529 69.7227 105.529C72.1448 105.529 74.5027 106.532 76.2089 108.295C77.9241 110.067 78.8963 112.511 78.8963 114.995C78.8963 117.488 77.9241 119.932 76.2089 121.694ZM76.2089 74.7939C74.5027 76.5654 72.1448 77.5713 69.7227 77.5713C67.3097 77.5713 64.9427 76.5663 63.2357 74.7939C61.5286 73.0318 60.5482 70.5966 60.5482 68.0952C60.5482 65.6031 61.5286 63.1688 63.2357 61.3955C64.9427 59.6334 67.3097 58.62 69.7227 58.62C72.1357 58.62 74.5027 59.6334 76.2089 61.3955C77.9159 63.1585 78.8963 65.6031 78.8963 68.0952C78.8963 70.5966 77.915 73.0412 76.2089 74.7939ZM136.757 168.605C135.051 170.367 132.684 171.38 130.272 171.38C127.86 171.38 125.493 170.367 123.786 168.605C122.079 166.833 121.098 164.397 121.098 161.896C121.098 159.404 122.08 156.969 123.786 155.197C125.493 153.434 127.86 152.421 130.272 152.421C132.685 152.421 135.052 153.435 136.757 155.197C138.472 156.968 139.446 159.404 139.446 161.896C139.445 164.397 138.472 166.832 136.757 168.605ZM136.757 121.694C135.051 123.465 132.693 124.47 130.272 124.47C127.86 124.47 125.493 123.466 123.786 121.694C122.079 119.932 121.098 117.496 121.098 114.995C121.098 112.503 122.08 110.068 123.786 108.295C125.493 106.532 127.86 105.529 130.272 105.529C132.694 105.529 135.052 106.532 136.757 108.295C138.472 110.067 139.446 112.503 139.446 114.995C139.445 117.496 138.472 119.932 136.757 121.694ZM136.757 74.7939C135.051 76.5654 132.693 77.5713 130.272 77.5713C127.86 77.5713 125.493 76.5663 123.786 74.7939C122.079 73.0318 121.098 70.5966 121.098 68.0952C121.098 65.6031 122.08 63.1688 123.786 61.3955C125.493 59.6334 127.86 58.62 130.272 58.62C132.685 58.62 135.052 59.6334 136.757 61.3955C138.472 63.1585 139.446 65.6031 139.446 68.0952C139.445 70.5966 138.472 73.0318 136.757 74.7939Z" fill="#D1A26A"/>
<mask id="mask0" mask-type="alpha" maskUnits="userSpaceOnUse" x="92" y="40" width="17" height="18">
<path d="M92.9979 48.848C92.9979 53.3551 96.5407 57.0119 100.914 57.0119C105.287 57.0119 108.832 53.3551 108.832 48.848C108.832 44.3409 105.287 40.6896 100.914 40.6896C96.5407 40.6896 92.9979 44.3409 92.9979 48.848Z" fill="#9F6A0C"/>
</mask>
<g mask="url(#mask0)">
<path d="M92.9979 48.848C92.9979 53.3551 96.5407 57.0119 100.914 57.0119C105.287 57.0119 108.832 53.3551 108.832 48.848C108.832 44.3409 105.287 40.6896 100.914 40.6896C96.5407 40.6896 92.9979 44.3409 92.9979 48.848Z" fill="#9F6A0C" stroke="#9DA0A2"/>
</g>
<mask id="mask1" mask-type="alpha" maskUnits="userSpaceOnUse" x="92" y="73" width="17" height="18">
<path d="M92.9979 81.9365C92.9979 86.4436 96.5407 90.0976 100.914 90.0976C105.287 90.0976 108.832 86.4436 108.832 81.9365C108.832 77.4294 105.287 73.7753 100.914 73.7753C96.5407 73.7753 92.9979 77.4294 92.9979 81.9365Z" fill="#9F6A0C"/>
</mask>
<g mask="url(#mask1)">
<path d="M92.9979 81.9365C92.9979 86.4436 96.5407 90.0976 100.914 90.0976C105.287 90.0976 108.832 86.4436 108.832 81.9365C108.832 77.4294 105.287 73.7753 100.914 73.7753C96.5407 73.7753 92.9979 77.4294 92.9979 81.9365Z" fill="#9F6A0C" stroke="#9DA0A2"/>
</g>
<mask id="mask2" mask-type="alpha" maskUnits="userSpaceOnUse" x="124" y="107" width="17" height="18">
<path d="M124.667 115.684C124.667 120.313 128.211 124.066 132.584 124.066C136.956 124.066 140.501 120.313 140.501 115.684C140.501 111.055 136.956 107.302 132.584 107.302C128.211 107.302 124.667 111.055 124.667 115.684Z" fill="#9F6A0C"/>
</mask>
<g mask="url(#mask2)">
<path d="M124.667 115.684C124.667 120.313 128.211 124.066 132.584 124.066C136.956 124.066 140.501 120.313 140.501 115.684C140.501 111.055 136.956 107.302 132.584 107.302C128.211 107.302 124.667 111.055 124.667 115.684Z" fill="#9F6A0C" stroke="#9DA0A2"/>
</g>
<mask id="mask3" mask-type="alpha" maskUnits="userSpaceOnUse" x="124" y="140" width="17" height="18">
<path d="M124.667 149.211C124.667 153.84 128.211 157.592 132.584 157.592C136.956 157.592 140.501 153.84 140.501 149.211C140.501 144.582 136.956 140.829 132.584 140.829C128.211 140.829 124.667 144.582 124.667 149.211Z" fill="#9F6A0C"/>
</mask>
<g mask="url(#mask3)">
<path d="M124.667 149.211C124.667 153.84 128.211 157.592 132.584 157.592C136.956 157.592 140.501 153.84 140.501 149.211C140.501 144.582 136.956 140.829 132.584 140.829C128.211 140.829 124.667 144.582 124.667 149.211Z" fill="#9F6A0C" stroke="#9DA0A2"/>
</g>
<mask id="mask4" mask-type="alpha" maskUnits="userSpaceOnUse" x="156" y="73" width="17" height="84">
<path d="M156.335 82.0901V148.395C156.335 153.084 159.991 156.71 164.253 156.71C168.717 156.71 172.17 152.871 172.17 148.395V82.0901C172.17 77.4013 168.517 73.7753 164.253 73.7753C159.788 73.7753 156.335 77.4013 156.335 82.0901Z" fill="#9F6A0C"/>
</mask>
<g mask="url(#mask4)">
<path d="M156.335 82.0901V148.395C156.335 153.084 159.991 156.71 164.253 156.71C168.717 156.71 172.17 152.871 172.17 148.395V82.0901C172.17 77.4013 168.517 73.7753 164.253 73.7753C159.788 73.7753 156.335 77.4013 156.335 82.0901Z" fill="#9F6A0C" stroke="#9DA0A2"/>
</g>
<mask id="mask5" mask-type="alpha" maskUnits="userSpaceOnUse" x="92" y="106" width="17" height="84">
<path d="M92.9979 115.176L92.9979 181.481C92.9979 186.173 96.6514 189.796 100.914 189.796C105.382 189.796 108.832 185.959 108.832 181.481L108.832 115.176C108.832 110.487 105.179 106.861 100.914 106.861C96.6514 106.861 92.9979 110.697 92.9979 115.176Z" fill="#9F6A0C"/>
</mask>
<g mask="url(#mask5)">
<path d="M92.9979 115.176L92.9979 181.481C92.9979 186.173 96.6514 189.796 100.914 189.796C105.382 189.796 108.832 185.959 108.832 181.481L108.832 115.176C108.832 110.487 105.179 106.861 100.914 106.861C96.6514 106.861 92.9979 110.697 92.9979 115.176Z" fill="#9F6A0C" stroke="#9DA0A2"/>
</g>
<mask id="mask6" mask-type="alpha" maskUnits="userSpaceOnUse" x="61" y="73" width="17" height="84">
<path d="M61.7458 82.0901L61.7458 148.395C61.7458 153.084 65.3025 156.71 69.4546 156.71C73.8018 156.71 77.1635 152.871 77.1635 148.395L77.1635 82.0901C77.1635 77.4013 73.6042 73.7753 69.4546 73.7753C65.1049 73.7753 61.7458 77.4013 61.7458 82.0901Z" fill="#9F6A0C"/>
</mask>
<g mask="url(#mask6)">
<path d="M61.7458 82.0901L61.7458 148.395C61.7458 153.084 65.3025 156.71 69.4546 156.71C73.8018 156.71 77.1635 152.871 77.1635 148.395L77.1635 82.0901C77.1635 77.4013 73.6042 73.7753 69.4546 73.7753C65.1049 73.7753 61.7458 77.4013 61.7458 82.0901Z" fill="#9F6A0C" stroke="#9DA0A2"/>
</g>
<mask id="mask7" mask-type="alpha" maskUnits="userSpaceOnUse" x="61" y="173" width="17" height="18">
<path d="M61.7458 181.857C61.7458 186.486 65.1973 190.237 69.4546 190.237C73.7119 190.237 77.1635 186.486 77.1635 181.857C77.1635 177.224 73.7119 173.474 69.4546 173.474C65.1973 173.474 61.7458 177.224 61.7458 181.857Z" fill="#9F6A0C"/>
</mask>
<g mask="url(#mask7)">
<path d="M61.7458 181.857C61.7458 186.486 65.1973 190.237 69.4546 190.237C73.7119 190.237 77.1635 186.486 77.1635 181.857C77.1635 177.224 73.7119 173.474 69.4546 173.474C65.1973 173.474 61.7458 177.224 61.7458 181.857Z" fill="#9F6A0C" stroke="#9DA0A2"/>
</g>
<mask id="mask8" mask-type="alpha" maskUnits="userSpaceOnUse" x="61" y="40" width="17" height="18">
<path d="M61.7458 48.848C61.7458 53.3551 65.1973 57.0119 69.4546 57.0119C73.7119 57.0119 77.1635 53.3551 77.1635 48.848C77.1635 44.3409 73.7119 40.6896 69.4546 40.6896C65.1973 40.6896 61.7458 44.3409 61.7458 48.848Z" fill="#9F6A0C"/>
</mask>
<g mask="url(#mask8)">
<path d="M61.7458 48.848C61.7458 53.3551 65.1973 57.0119 69.4546 57.0119C73.7119 57.0119 77.1635 53.3551 77.1635 48.848C77.1635 44.3409 73.7119 40.6896 69.4546 40.6896C65.1973 40.6896 61.7458 44.3409 61.7458 48.848Z" fill="#9F6A0C" stroke="#9DA0A2"/>
</g>
<mask id="mask9" mask-type="alpha" maskUnits="userSpaceOnUse" x="30" y="73" width="16" height="84">
<path d="M30.4937 82.1102L30.4937 147.934C30.4937 152.634 34.0504 156.269 38.2025 156.269C42.5522 156.269 45.9114 152.421 45.9114 147.934L45.9114 82.1102C45.9114 77.6237 42.3521 73.7753 38.2025 73.7753C33.8554 73.7753 30.4937 77.6237 30.4937 82.1102Z" fill="#9F6A0C"/>
</mask>
<g mask="url(#mask9)">
<path d="M30.4937 82.1102L30.4937 147.934C30.4937 152.634 34.0504 156.269 38.2025 156.269C42.5522 156.269 45.9114 152.421 45.9114 147.934L45.9114 82.1102C45.9114 77.6237 42.3521 73.7753 38.2025 73.7753C33.8554 73.7753 30.4937 77.6237 30.4937 82.1102Z" fill="#9F6A0C" stroke="#142D4B"/>
</g>
<path d="M291.192 147.96C284.792 147.96 279.832 145.816 276.312 141.528V144.6C276.312 145.24 276.088 145.816 275.64 146.328C275.192 146.776 274.616 147 273.912 147H263.064C262.424 147 261.848 146.776 261.336 146.328C260.888 145.816 260.664 145.24 260.664 144.6V81.24C260.664 80.536 260.888 79.96 261.336 79.512C261.848 79.064 262.424 78.84 263.064 78.84H274.776C275.48 78.84 276.056 79.064 276.504 79.512C276.952 79.96 277.176 80.536 277.176 81.24V101.784C280.76 98.008 285.432 96.12 291.192 96.12C297.4 96.12 302.296 98.136 305.88 102.168C309.464 106.2 311.384 111.672 311.64 118.584C311.704 119.416 311.736 120.568 311.736 122.04C311.736 123.448 311.704 124.568 311.64 125.4C311.32 132.568 309.4 138.136 305.88 142.104C302.36 146.008 297.464 147.96 291.192 147.96ZM286.008 135.096C289.016 135.096 291.16 134.2 292.44 132.408C293.784 130.616 294.552 128.152 294.744 125.016C294.872 123.736 294.936 122.744 294.936 122.04C294.936 121.336 294.872 120.344 294.744 119.064C294.552 115.928 293.784 113.464 292.44 111.672C291.16 109.88 289.016 108.984 286.008 108.984C283.192 108.984 281.048 109.848 279.576 111.576C278.104 113.304 277.304 115.48 277.176 118.104L277.08 121.656L277.176 125.304C277.368 128.184 278.136 130.552 279.48 132.408C280.888 134.2 283.064 135.096 286.008 135.096ZM323.531 89.88C322.827 89.88 322.251 89.656 321.803 89.208C321.355 88.76 321.131 88.184 321.131 87.48V78.84C321.131 78.136 321.355 77.56 321.803 77.112C322.251 76.664 322.827 76.44 323.531 76.44H335.051C335.755 76.44 336.331 76.664 336.779 77.112C337.227 77.56 337.451 78.136 337.451 78.84V87.48C337.451 88.184 337.227 88.76 336.779 89.208C336.331 89.656 335.755 89.88 335.051 89.88H323.531ZM323.627 147C322.923 147 322.347 146.776 321.898 146.328C321.451 145.88 321.227 145.304 321.227 144.6V99.48C321.227 98.776 321.451 98.2 321.898 97.752C322.347 97.304 322.923 97.08 323.627 97.08H334.955C335.659 97.08 336.235 97.304 336.683 97.752C337.131 98.2 337.355 98.776 337.355 99.48V144.6C337.355 145.24 337.131 145.816 336.683 146.328C336.235 146.776 335.659 147 334.955 147H323.627ZM369.239 147.96C364.055 147.96 359.703 147.224 356.183 145.752C352.727 144.28 350.167 142.52 348.503 140.472C346.839 138.424 346.007 136.6 346.007 135C346.007 134.36 346.231 133.848 346.679 133.464C347.191 133.016 347.735 132.792 348.311 132.792H359.255C359.639 132.792 359.991 132.952 360.311 133.272C361.079 133.784 361.655 134.2 362.039 134.52C363.447 135.544 364.663 136.312 365.687 136.824C366.775 137.272 368.087 137.496 369.623 137.496C371.479 137.496 372.983 137.144 374.135 136.44C375.351 135.672 375.959 134.616 375.959 133.272C375.959 132.184 375.639 131.32 374.999 130.68C374.423 130.04 373.271 129.432 371.543 128.856C369.815 128.216 367.191 127.544 363.671 126.84C358.359 125.752 354.263 123.992 351.383 121.56C348.567 119.064 347.159 115.736 347.159 111.576C347.159 108.952 347.991 106.456 349.655 104.088C351.319 101.72 353.783 99.8 357.047 98.328C360.375 96.856 364.311 96.12 368.855 96.12C373.399 96.12 377.367 96.824 380.759 98.232C384.151 99.64 386.711 101.368 388.439 103.416C390.231 105.4 391.127 107.224 391.127 108.888C391.127 109.464 390.903 109.976 390.455 110.424C390.071 110.872 389.591 111.096 389.015 111.096H379.031C378.519 111.096 378.039 110.936 377.591 110.616C376.759 110.168 376.023 109.688 375.383 109.176C374.295 108.344 373.271 107.704 372.311 107.256C371.351 106.808 370.167 106.584 368.759 106.584C367.095 106.584 365.751 106.968 364.727 107.736C363.767 108.504 363.287 109.496 363.287 110.712C363.287 111.672 363.543 112.472 364.055 113.112C364.631 113.752 365.783 114.392 367.511 115.032C369.303 115.608 371.927 116.216 375.383 116.856C381.591 117.944 386.103 119.864 388.919 122.616C391.799 125.368 393.239 128.6 393.239 132.312C393.239 137.048 391.127 140.856 386.903 143.736C382.679 146.552 376.791 147.96 369.239 147.96ZM424.702 147.96C417.47 147.96 411.614 146.04 407.134 142.2C402.654 138.296 400.254 132.888 399.934 125.976L399.838 122.136L399.934 118.2C400.19 111.288 402.558 105.88 407.038 101.976C411.582 98.072 417.47 96.12 424.702 96.12C430.142 96.12 434.718 97.112 438.43 99.096C442.206 101.016 444.99 103.352 446.782 106.104C448.638 108.792 449.63 111.256 449.758 113.496C449.822 114.136 449.598 114.712 449.086 115.224C448.638 115.672 448.062 115.896 447.358 115.896H435.166C434.462 115.896 433.918 115.736 433.534 115.416C433.15 115.096 432.798 114.616 432.478 113.976C431.71 111.992 430.718 110.584 429.502 109.752C428.35 108.92 426.846 108.504 424.99 108.504C419.742 108.504 417.022 111.896 416.83 118.68L416.734 122.328L416.83 125.496C416.958 128.952 417.694 131.512 419.038 133.176C420.446 134.776 422.43 135.576 424.99 135.576C426.974 135.576 428.542 135.16 429.694 134.328C430.846 133.496 431.774 132.088 432.478 130.104C432.798 129.464 433.15 128.984 433.534 128.664C433.918 128.344 434.462 128.184 435.166 128.184H447.358C447.998 128.184 448.542 128.408 448.99 128.856C449.502 129.24 449.758 129.752 449.758 130.392C449.758 132.44 448.862 134.84 447.07 137.592C445.342 140.344 442.59 142.776 438.814 144.888C435.038 146.936 430.334 147.96 424.702 147.96ZM476.719 147.96C471.087 147.96 466.543 146.072 463.087 142.296C459.631 138.456 457.903 133.112 457.903 126.264V99.48C457.903 98.776 458.127 98.2 458.575 97.752C459.023 97.304 459.599 97.08 460.303 97.08H472.303C473.007 97.08 473.583 97.304 474.031 97.752C474.543 98.2 474.799 98.776 474.799 99.48V125.688C474.799 131.96 477.583 135.096 483.151 135.096C485.839 135.096 487.951 134.264 489.487 132.6C491.023 130.936 491.791 128.632 491.791 125.688V99.48C491.791 98.776 492.015 98.2 492.463 97.752C492.975 97.304 493.551 97.08 494.191 97.08H506.191C506.895 97.08 507.471 97.304 507.919 97.752C508.367 98.2 508.591 98.776 508.591 99.48V144.6C508.591 145.24 508.367 145.816 507.919 146.328C507.471 146.776 506.895 147 506.191 147H495.055C494.415 147 493.839 146.776 493.327 146.328C492.879 145.816 492.655 145.24 492.655 144.6V140.952C489.327 145.624 484.015 147.96 476.719 147.96ZM522.187 89.88C521.483 89.88 520.907 89.656 520.459 89.208C520.011 88.76 519.787 88.184 519.787 87.48V78.84C519.787 78.136 520.011 77.56 520.459 77.112C520.907 76.664 521.483 76.44 522.187 76.44H533.707C534.411 76.44 534.987 76.664 535.435 77.112C535.883 77.56 536.107 78.136 536.107 78.84V87.48C536.107 88.184 535.883 88.76 535.435 89.208C534.987 89.656 534.411 89.88 533.707 89.88H522.187ZM522.283 147C521.579 147 521.003 146.776 520.555 146.328C520.107 145.88 519.883 145.304 519.883 144.6V99.48C519.883 98.776 520.107 98.2 520.555 97.752C521.003 97.304 521.579 97.08 522.283 97.08H533.611C534.315 97.08 534.891 97.304 535.339 97.752C535.787 98.2 536.011 98.776 536.011 99.48V144.6C536.011 145.24 535.787 145.816 535.339 146.328C534.891 146.776 534.315 147 533.611 147H522.283ZM572.888 147C559.64 147 553.016 140.696 553.016 128.088V109.656H545.528C544.824 109.656 544.216 109.432 543.704 108.984C543.256 108.536 543.032 107.96 543.032 107.256V99.48C543.032 98.776 543.256 98.2 543.704 97.752C544.216 97.304 544.824 97.08 545.528 97.08H553.016V81.24C553.016 80.536 553.24 79.96 553.688 79.512C554.2 79.064 554.776 78.84 555.416 78.84H566.552C567.256 78.84 567.832 79.064 568.28 79.512C568.728 79.96 568.952 80.536 568.952 81.24V97.08H580.952C581.656 97.08 582.232 97.304 582.68 97.752C583.192 98.2 583.448 98.776 583.448 99.48V107.256C583.448 107.96 583.192 108.536 582.68 108.984C582.232 109.432 581.656 109.656 580.952 109.656H568.952V126.744C568.952 131.48 570.776 133.848 574.424 133.848H581.816C582.52 133.848 583.096 134.072 583.544 134.52C583.992 134.968 584.216 135.544 584.216 136.248V144.6C584.216 145.24 583.992 145.816 583.544 146.328C583.096 146.776 582.52 147 581.816 147H572.888ZM612.708 147.96C607.524 147.96 603.172 147.224 599.652 145.752C596.196 144.28 593.636 142.52 591.972 140.472C590.308 138.424 589.476 136.6 589.476 135C589.476 134.36 589.7 133.848 590.148 133.464C590.66 133.016 591.204 132.792 591.78 132.792H602.724C603.108 132.792 603.46 132.952 603.78 133.272C604.548 133.784 605.124 134.2 605.508 134.52C606.916 135.544 608.132 136.312 609.156 136.824C610.244 137.272 611.556 137.496 613.092 137.496C614.948 137.496 616.452 137.144 617.604 136.44C618.82 135.672 619.428 134.616 619.428 133.272C619.428 132.184 619.108 131.32 618.468 130.68C617.892 130.04 616.74 129.432 615.012 128.856C613.284 128.216 610.66 127.544 607.14 126.84C601.828 125.752 597.732 123.992 594.852 121.56C592.036 119.064 590.628 115.736 590.628 111.576C590.628 108.952 591.46 106.456 593.124 104.088C594.788 101.72 597.252 99.8 600.516 98.328C603.844 96.856 607.78 96.12 612.324 96.12C616.868 96.12 620.836 96.824 624.228 98.232C627.62 99.64 630.18 101.368 631.908 103.416C633.7 105.4 634.596 107.224 634.596 108.888C634.596 109.464 634.372 109.976 633.924 110.424C633.54 110.872 633.06 111.096 632.484 111.096H622.5C621.988 111.096 621.508 110.936 621.06 110.616C620.228 110.168 619.492 109.688 618.852 109.176C617.764 108.344 616.74 107.704 615.78 107.256C614.82 106.808 613.636 106.584 612.228 106.584C610.564 106.584 609.22 106.968 608.196 107.736C607.236 108.504 606.756 109.496 606.756 110.712C606.756 111.672 607.012 112.472 607.524 113.112C608.1 113.752 609.252 114.392 610.98 115.032C612.772 115.608 615.396 116.216 618.852 116.856C625.06 117.944 629.572 119.864 632.388 122.616C635.268 125.368 636.708 128.6 636.708 132.312C636.708 137.048 634.596 140.856 630.372 143.736C626.148 146.552 620.26 147.96 612.708 147.96ZM668.267 147.96C660.587 147.96 654.539 145.88 650.123 141.72C645.707 137.56 643.403 131.512 643.211 123.576V120.216C643.467 112.664 645.803 106.776 650.219 102.552C654.699 98.264 660.683 96.12 668.171 96.12C673.611 96.12 678.187 97.24 681.899 99.48C685.675 101.656 688.491 104.664 690.347 108.504C692.267 112.344 693.227 116.76 693.227 121.752V124.056C693.227 124.696 693.003 125.272 692.555 125.784C692.107 126.232 691.531 126.456 690.827 126.456H660.107V127.128C660.235 130.136 660.971 132.568 662.315 134.424C663.659 136.28 665.611 137.208 668.171 137.208C669.771 137.208 671.083 136.888 672.107 136.248C673.131 135.544 674.059 134.712 674.891 133.752C675.467 133.048 675.915 132.632 676.235 132.504C676.619 132.312 677.195 132.216 677.963 132.216H689.867C690.443 132.216 690.923 132.408 691.307 132.792C691.755 133.112 691.979 133.56 691.979 134.136C691.979 135.8 691.019 137.72 689.099 139.896C687.243 142.072 684.523 143.96 680.939 145.56C677.355 147.16 673.131 147.96 668.267 147.96ZM676.331 116.952V116.76C676.331 113.624 675.595 111.16 674.123 109.368C672.715 107.512 670.731 106.584 668.171 106.584C665.675 106.584 663.691 107.512 662.219 109.368C660.811 111.16 660.107 113.624 660.107 116.76V116.952H676.331ZM725.171 147.96C717.939 147.96 712.083 146.04 707.603 142.2C703.123 138.296 700.723 132.888 700.403 125.976L700.307 122.136L700.403 118.2C700.659 111.288 703.027 105.88 707.507 101.976C712.051 98.072 717.939 96.12 725.171 96.12C730.611 96.12 735.187 97.112 738.899 99.096C742.675 101.016 745.458 103.352 747.25 106.104C749.107 108.792 750.099 111.256 750.227 113.496C750.291 114.136 750.067 114.712 749.555 115.224C749.107 115.672 748.531 115.896 747.827 115.896H735.635C734.931 115.896 734.387 115.736 734.003 115.416C733.619 115.096 733.267 114.616 732.947 113.976C732.179 111.992 731.187 110.584 729.971 109.752C728.819 108.92 727.315 108.504 725.459 108.504C720.211 108.504 717.491 111.896 717.299 118.68L717.203 122.328L717.299 125.496C717.427 128.952 718.163 131.512 719.507 133.176C720.915 134.776 722.899 135.576 725.459 135.576C727.443 135.576 729.011 135.16 730.163 134.328C731.315 133.496 732.243 132.088 732.947 130.104C733.267 129.464 733.619 128.984 734.003 128.664C734.387 128.344 734.931 128.184 735.635 128.184H747.827C748.467 128.184 749.011 128.408 749.458 128.856C749.971 129.24 750.227 129.752 750.227 130.392C750.227 132.44 749.331 134.84 747.539 137.592C745.811 140.344 743.059 142.776 739.283 144.888C735.507 146.936 730.803 147.96 725.171 147.96Z" fill="#9F6A0C"/>
</svg>
