<svg width="513" height="503" viewBox="0 0 513 503" fill="none" xmlns="http://www.w3.org/2000/svg">
<path d="M96.0565 247.897L227.832 90.8528L427.771 258.621L295.995 415.666L96.0565 247.897Z" fill="#D1A26A"/>
<path d="M292.849 490.864C299.816 496.71 310.645 497.212 315.853 491.004C320.546 485.412 319.84 476.95 314.581 471.049L322.399 461.732C329.124 465.883 337.587 465.103 342.273 459.519C346.957 453.937 346.258 445.467 341 439.564L348.818 430.247C355.543 434.398 364.006 433.618 368.692 428.034C373.384 422.442 372.678 413.981 367.419 408.079L375.238 398.761C381.963 402.913 390.426 402.133 395.111 396.548C399.804 390.956 399.097 382.495 393.839 376.593L401.657 367.276C408.382 371.428 416.845 370.647 421.531 365.063C426.215 359.481 425.515 351.011 420.258 345.108L428.076 335.791C434.801 339.942 443.264 339.162 447.95 333.578C452.643 327.985 451.937 319.524 446.677 313.623L454.496 304.305C461.221 308.457 469.684 307.677 474.369 302.092C479.062 296.499 478.356 288.038 473.097 282.138L480.915 272.82C487.64 276.972 496.103 276.191 500.789 270.607C505.996 264.401 504.568 254.618 497.601 248.772C492.68 244.643 486.311 243.59 481.157 245.506L471.805 237.659C474.468 231.632 472.544 223.916 466.669 218.986C460.793 214.055 452.861 213.501 447.388 217.171L436.461 208.002C439.125 201.975 437.201 194.259 431.325 189.329C425.448 184.397 417.517 183.844 412.044 187.514L401.117 178.345C403.781 172.318 401.857 164.602 395.982 159.672C390.105 154.741 382.174 154.187 376.7 157.857L365.774 148.688C368.437 142.661 366.513 134.945 360.638 130.015C354.762 125.084 346.83 124.53 341.357 128.2L330.43 119.031C333.094 113.004 331.169 105.288 325.294 100.358C319.418 95.4274 311.486 94.8733 306.013 98.543L295.086 89.3744C297.75 83.3472 295.826 75.6311 289.951 70.7013C284.074 65.7705 276.141 65.2153 270.669 68.8861L259.743 59.7175C262.406 53.6903 260.482 45.9742 254.607 41.0444C248.729 36.1125 240.798 35.5584 235.326 39.2292L224.399 30.0606C227.062 24.0334 225.138 16.3173 219.263 11.3875C212.295 5.54054 202.422 5.82183 197.205 12.039C192.77 17.3246 193.164 25.1971 197.675 31.0282L190.42 39.6741C183.688 35.526 175.234 36.2984 170.54 41.8926C165.854 47.4769 166.556 55.9435 171.813 61.8475L163.993 71.1661C157.27 67.0102 148.816 67.7826 144.122 73.3768C139.436 78.9611 140.137 87.4288 145.394 93.3317L137.575 102.65C130.852 98.4944 122.397 99.2668 117.703 104.861C113.018 110.444 113.718 118.913 118.976 124.816L111.157 134.135C104.432 129.98 95.9789 130.751 91.2848 136.345C86.6 141.928 87.3 150.397 92.5574 156.3L84.7382 165.619C78.0138 161.464 69.5596 162.236 64.8664 167.829C60.1816 173.413 60.8816 181.881 66.139 187.784L58.3198 197.103C51.5936 192.95 43.1329 193.73 38.448 199.314C33.7632 204.897 34.4632 213.366 39.7206 219.269L31.9014 228.587C25.1771 224.432 16.7228 225.205 12.0296 230.798C6.82022 237.006 8.25019 246.787 15.2171 252.633C19.752 256.438 25.5191 257.627 30.4318 256.293L39.3649 263.788C36.6998 269.812 38.6179 277.538 44.4954 282.47C50.3718 287.401 58.3122 287.947 63.7845 284.279L74.7087 293.445C72.0411 299.467 73.9504 307.186 79.8392 312.127C85.7167 317.059 93.6559 317.604 99.1282 313.936L110.052 323.102C107.387 329.126 109.305 336.852 115.183 341.784C121.059 346.715 129 347.261 134.472 343.593L145.396 352.759C142.731 358.783 144.649 366.509 150.527 371.441C156.403 376.372 164.343 376.918 169.816 373.25L180.74 382.416C178.075 388.44 179.993 396.166 185.87 401.098C191.747 406.029 199.687 406.575 205.159 402.906L216.084 412.073C213.418 418.097 215.336 425.823 221.214 430.755C227.09 435.686 235.031 436.232 240.503 432.563L251.427 441.73C248.762 447.754 250.68 455.48 256.558 460.412C262.435 465.344 270.374 465.889 275.847 462.22L286.771 471.387C284.107 477.412 286.972 485.932 292.849 490.864ZM303.001 340.209C303.594 344.27 302.51 348.304 300.028 351.261C297.547 354.219 293.762 355.987 289.659 356.11C285.543 356.222 281.289 354.7 277.958 351.905C274.638 349.119 272.402 345.195 271.796 341.121C271.203 337.058 272.289 333.025 274.77 330.067C277.252 327.11 281.037 325.342 285.139 325.22C289.263 325.098 293.508 326.63 296.828 329.416C300.16 332.211 302.404 336.125 303.001 340.209ZM240.504 287.767C241.11 291.839 240.014 295.864 237.532 298.821C235.051 301.779 231.279 303.557 227.162 303.668C223.071 303.801 218.806 302.27 215.474 299.474C212.153 296.688 209.905 292.754 209.312 288.69C208.719 284.627 209.816 280.605 212.298 277.647C214.789 274.678 218.551 272.91 222.654 272.789C226.778 272.667 231.035 274.209 234.344 276.985C237.665 279.772 239.922 283.696 240.504 287.767ZM178.022 235.339C178.627 239.41 177.543 243.425 175.052 246.393C172.57 249.351 168.797 251.129 164.68 251.24C160.576 251.362 156.324 249.841 152.991 247.045C149.671 244.259 147.436 240.336 146.83 236.262C146.238 232.199 147.322 228.165 149.804 225.208C152.285 222.25 156.07 220.482 160.172 220.361C164.276 220.239 168.542 221.77 171.862 224.556C175.194 227.353 177.442 231.288 178.022 235.339ZM365.273 265.997C365.866 270.058 364.781 274.092 362.301 277.048C359.82 280.005 356.035 281.773 351.932 281.895C347.817 282.007 343.563 280.486 340.231 277.69C336.911 274.904 334.676 270.979 334.07 266.907C333.477 262.844 334.562 258.811 337.043 255.854C339.524 252.897 343.309 251.128 347.41 251.008C351.534 250.886 355.782 252.416 359.102 255.201C362.432 257.998 364.676 261.913 365.273 265.997ZM302.776 213.555C303.381 217.627 302.295 221.64 299.805 224.608C297.324 227.564 293.552 229.343 289.435 229.454C285.332 229.576 281.079 228.056 277.747 225.259C274.427 222.473 272.192 218.548 271.585 214.476C270.992 210.413 272.09 206.39 274.571 203.434C277.061 200.465 280.823 198.696 284.926 198.577C289.05 198.455 293.297 199.985 296.617 202.771C299.949 205.568 302.193 209.484 302.776 213.555ZM240.294 161.126C240.899 165.198 239.814 169.213 237.324 172.18C234.843 175.137 231.07 176.914 226.953 177.025C222.85 177.148 218.597 175.627 215.265 172.831C211.945 170.045 209.711 166.121 209.103 162.047C208.511 157.985 209.595 153.951 212.076 150.995C214.558 148.037 218.342 146.269 222.443 146.148C226.556 146.017 230.815 147.556 234.135 150.342C237.467 153.139 239.71 157.054 240.294 161.126Z" fill="#D1A26A"/>
<mask id="mask0" mask-type="alpha" maskUnits="userSpaceOnUse" x="155" y="162" width="28" height="28">
<path d="M160.722 185.756C166.727 190.795 175.242 190.54 179.74 185.18C184.238 179.82 183.012 171.387 177.008 166.348C171.003 161.31 162.492 161.574 157.995 166.934C153.497 172.294 154.718 180.718 160.722 185.756Z" fill="#9F6A0C"/>
</mask>
<g mask="url(#mask0)">
<path d="M160.722 185.756C166.727 190.795 175.242 190.54 179.74 185.18C184.238 179.82 183.012 171.387 177.008 166.348C171.003 161.31 162.492 161.574 157.995 166.934C153.497 172.294 154.718 180.718 160.722 185.756Z" fill="#9F6A0C" stroke="#9DA0A2"/>
</g>
<mask id="mask1" mask-type="alpha" maskUnits="userSpaceOnUse" x="199" y="199" width="28" height="28">
<path d="M204.805 222.745C210.809 227.784 219.321 227.526 223.818 222.167C228.316 216.807 227.094 208.376 221.09 203.338C215.085 198.299 206.571 198.56 202.073 203.92C197.575 209.28 198.8 217.707 204.805 222.745Z" fill="#9F6A0C"/>
</mask>
<g mask="url(#mask1)">
<path d="M204.805 222.745C210.809 227.784 219.321 227.526 223.818 222.167C228.316 216.807 227.094 208.376 221.09 203.338C215.085 198.299 206.571 198.56 202.073 203.92C197.575 209.28 198.8 217.707 204.805 222.745Z" fill="#9F6A0C" stroke="#9DA0A2"/>
</g>
<mask id="mask2" mask-type="alpha" maskUnits="userSpaceOnUse" x="276" y="198" width="29" height="28">
<path d="M282.335 221.656C288.502 226.831 297.147 226.681 301.644 221.322C306.141 215.963 304.787 207.423 298.62 202.248C292.453 197.074 283.807 197.223 279.311 202.582C274.814 207.941 276.168 216.481 282.335 221.656Z" fill="#9F6A0C"/>
</mask>
<g mask="url(#mask2)">
<path d="M282.335 221.656C288.502 226.831 297.147 226.681 301.644 221.322C306.141 215.963 304.787 207.423 298.62 202.248C292.453 197.074 283.807 197.223 279.311 202.582C274.814 207.941 276.168 216.481 282.335 221.656Z" fill="#9F6A0C" stroke="#9DA0A2"/>
</g>
<mask id="mask3" mask-type="alpha" maskUnits="userSpaceOnUse" x="321" y="235" width="28" height="28">
<path d="M327.001 259.135C333.168 264.31 341.813 264.16 346.31 258.801C350.807 253.442 349.453 244.902 343.286 239.728C337.119 234.553 328.474 234.703 323.977 240.062C319.48 245.421 320.834 253.961 327.001 259.135Z" fill="#9F6A0C"/>
</mask>
<g mask="url(#mask3)">
<path d="M327.001 259.135C333.168 264.31 341.813 264.16 346.31 258.801C350.807 253.442 349.453 244.902 343.286 239.728C337.119 234.553 328.474 234.703 323.977 240.062C319.48 245.421 320.834 253.961 327.001 259.135Z" fill="#9F6A0C" stroke="#9DA0A2"/>
</g>
<mask id="mask4" mask-type="alpha" maskUnits="userSpaceOnUse" x="264" y="122" width="117" height="102">
<path d="M270.149 145.286L358.485 219.408C364.731 224.65 373.322 224.223 377.705 219C382.296 213.527 380.733 205.004 374.77 200.001L286.434 125.878C280.188 120.637 271.6 121.061 267.215 126.287C262.623 131.759 263.903 140.045 270.149 145.286Z" fill="#9F6A0C"/>
</mask>
<g mask="url(#mask4)">
<path d="M270.149 145.286L358.485 219.408C364.731 224.65 373.322 224.223 377.705 219C382.296 213.527 380.733 205.004 374.77 200.001L286.434 125.878C280.188 120.637 271.6 121.061 267.215 126.287C262.623 131.759 263.903 140.045 270.149 145.286Z" fill="#9F6A0C" stroke="#9DA0A2"/>
</g>
<mask id="mask5" mask-type="alpha" maskUnits="userSpaceOnUse" x="243" y="236" width="117" height="102">
<path d="M249.088 259.904L337.423 334.025C343.673 339.27 352.258 338.843 356.642 333.618C361.237 328.142 359.674 319.624 353.708 314.618L265.373 240.496C259.126 235.254 250.538 235.679 246.152 240.906C241.768 246.13 243.121 254.897 249.088 259.904Z" fill="#9F6A0C"/>
</mask>
<g mask="url(#mask5)">
<path d="M249.088 259.904L337.423 334.025C343.673 339.27 352.258 338.843 356.642 333.618C361.237 328.142 359.674 319.624 353.708 314.618L265.373 240.496C259.126 235.254 250.538 235.679 246.152 240.906C241.768 246.13 243.121 254.897 249.088 259.904Z" fill="#9F6A0C" stroke="#9DA0A2"/>
</g>
<mask id="mask6" mask-type="alpha" maskUnits="userSpaceOnUse" x="167" y="238" width="116" height="102">
<path d="M172.868 261.222L261.203 335.344C267.45 340.586 275.938 340.28 280.209 335.191C284.68 329.863 283.022 321.451 277.06 316.447L188.724 242.325C182.478 237.083 173.986 237.393 169.719 242.479C165.245 247.81 166.621 255.98 172.868 261.222Z" fill="#9F6A0C"/>
</mask>
<g mask="url(#mask6)">
<path d="M172.868 261.222L261.203 335.344C267.45 340.586 275.938 340.28 280.209 335.191C284.68 329.863 283.022 321.451 277.06 316.447L188.724 242.325C182.478 237.083 173.986 237.393 169.719 242.479C165.245 247.81 166.621 255.98 172.868 261.222Z" fill="#9F6A0C" stroke="#9DA0A2"/>
</g>
<mask id="mask7" mask-type="alpha" maskUnits="userSpaceOnUse" x="300" y="349" width="28" height="28">
<path d="M305.782 372.75C311.95 377.926 320.496 377.888 324.875 372.67C329.253 367.452 327.806 359.029 321.638 353.853C315.467 348.675 306.92 348.712 302.542 353.93C298.163 359.148 299.61 367.572 305.782 372.75Z" fill="#9F6A0C"/>
</mask>
<g mask="url(#mask7)">
<path d="M305.782 372.75C311.95 377.926 320.496 377.888 324.875 372.67C329.253 367.452 327.806 359.029 321.638 353.853C315.467 348.675 306.92 348.712 302.542 353.93C298.163 359.148 299.61 367.572 305.782 372.75Z" fill="#9F6A0C" stroke="#9DA0A2"/>
</g>
<mask id="mask8" mask-type="alpha" maskUnits="userSpaceOnUse" x="123" y="201" width="27" height="27">
<path d="M128.581 224.061C134.585 229.099 143.007 228.957 147.385 223.739C151.764 218.521 150.442 210.202 144.437 205.164C138.433 200.126 130.019 200.274 125.64 205.492C121.262 210.71 122.576 219.023 128.581 224.061Z" fill="#9F6A0C"/>
</mask>
<g mask="url(#mask8)">
<path d="M128.581 224.061C134.585 229.099 143.007 228.957 147.385 223.739C151.764 218.521 150.442 210.202 144.437 205.164C138.433 200.126 130.019 200.274 125.64 205.492C121.262 210.71 122.576 219.023 128.581 224.061Z" fill="#9F6A0C" stroke="#9DA0A2"/>
</g>
<mask id="mask9" mask-type="alpha" maskUnits="userSpaceOnUse" x="135" y="276" width="116" height="101">
<path d="M140.753 299.549L228.447 373.133C234.709 378.388 243.209 378.091 247.479 373.002C251.953 367.671 250.281 359.252 244.304 354.236L156.609 280.652C150.632 275.637 141.845 275.697 137.577 280.783C133.106 286.111 134.776 294.534 140.753 299.549Z" fill="#9F6A0C"/>
</mask>
<g mask="url(#mask9)">
<path d="M140.753 299.549L228.447 373.133C234.709 378.388 243.209 378.091 247.479 373.002C251.953 367.671 250.281 359.252 244.304 354.236L156.609 280.652C150.632 275.637 141.845 275.697 137.577 280.783C133.106 286.111 134.776 294.534 140.753 299.549Z" fill="#9F6A0C" stroke="#142D4B"/>
</g>
</svg>
