<svg width="781" height="285" viewBox="0 0 781 285" fill="none" xmlns="http://www.w3.org/2000/svg">
<path d="M49.8399 96.3765L170.242 52.5537L221.571 193.579L101.169 237.402L49.8399 96.3765Z" fill="#D1A26A"/>
<path d="M75.1812 274.963C76.9698 279.877 82.5269 283.128 87.2858 281.395C91.5731 279.835 93.9379 275.315 93.0689 270.845L100.212 268.245C102.421 272.227 107.144 274.168 111.425 272.61C115.705 271.052 118.075 266.53 117.208 262.059L124.351 259.459C126.56 263.441 131.283 265.382 135.564 263.824C139.851 262.263 142.215 257.744 141.347 253.274L148.49 250.674C150.699 254.655 155.422 256.596 159.703 255.038C163.99 253.477 166.354 248.958 165.486 244.488L172.63 241.888C174.838 245.869 179.561 247.81 183.842 246.252C188.122 244.694 190.492 240.172 189.625 235.702L196.769 233.102C198.977 237.083 203.7 239.024 207.981 237.466C212.269 235.905 214.633 231.386 213.764 226.916L220.908 224.316C223.117 228.297 227.839 230.238 232.12 228.68C236.408 227.119 238.772 222.6 237.903 218.13L245.047 215.53C247.256 219.511 251.978 221.453 256.259 219.894C261.017 218.162 263.428 212.768 261.639 207.854C260.376 204.383 257.352 202.084 254.01 201.637L251.609 195.041C254.966 192.698 256.446 188.222 254.937 184.078C253.429 179.933 249.419 177.457 245.341 177.819L242.536 170.112C245.892 167.768 247.372 163.293 245.864 159.149C244.355 155.003 240.345 152.527 236.267 152.89L233.462 145.183C236.819 142.839 238.299 138.363 236.79 134.219C235.282 130.074 231.272 127.598 227.194 127.96L224.389 120.253C227.745 117.909 229.225 113.434 227.717 109.29C226.208 105.145 222.198 102.669 218.12 103.031L215.315 95.3237C218.672 92.9799 220.152 88.5044 218.643 84.3605C217.135 80.2156 213.125 77.7393 209.047 78.1014L206.242 70.3943C209.598 68.0505 211.078 63.575 209.57 59.4311C208.061 55.2862 204.051 52.809 199.973 53.172L197.168 45.4649C200.525 43.1211 202.004 38.6456 200.496 34.5017C198.987 30.356 194.977 27.8796 190.9 28.2426L188.094 20.5355C191.451 18.1917 192.931 13.7162 191.423 9.57226C189.634 4.65734 184.328 2.07112 179.561 3.80601C175.509 5.28092 173.171 9.4132 173.667 13.6407L167.038 16.0533C164.825 12.0719 160.109 10.129 155.82 11.69C151.539 13.2483 149.171 17.7693 150.037 22.2402L142.893 24.8405C140.686 20.8575 135.971 18.9145 131.682 20.4756C127.401 22.0339 125.032 26.5552 125.899 31.0257L118.755 33.6261C116.548 29.6431 111.833 27.7001 107.544 29.2612C103.264 30.8191 100.894 35.3408 101.761 39.8113L94.6167 42.4116C92.4091 38.4289 87.6949 36.4857 83.4059 38.0468C79.1254 39.6047 76.7556 44.1264 77.6228 48.5969L70.4785 51.1972C68.2709 47.2145 63.5558 45.2716 59.2677 46.8323C54.9872 48.3903 52.6174 52.912 53.4846 57.3825L46.3403 59.9828C44.131 56.0007 39.41 54.06 35.1295 55.6179C30.849 57.1759 28.4792 61.6975 29.3464 66.1681L22.2021 68.7684C19.9945 64.7857 15.2795 62.8428 10.9913 64.4035C6.23156 66.1359 3.82281 71.5299 5.61138 76.444C6.77558 79.6426 9.437 81.8449 12.4634 82.5213L14.7567 88.8222C11.4004 91.164 9.91411 95.6428 11.423 99.7885C12.9316 103.933 16.9488 106.408 21.0258 106.046L23.8303 113.752C20.4733 116.092 18.9848 120.564 20.4966 124.718C22.0055 128.864 26.0223 131.338 30.0994 130.976L32.9038 138.681C29.5475 141.023 28.0612 145.502 29.5701 149.647C31.0787 153.792 35.0959 156.267 39.1729 155.905L41.9774 163.61C38.621 165.952 37.1348 170.431 38.6437 174.577C40.1523 178.722 44.1695 181.196 48.2465 180.835L51.051 188.54C47.6946 190.882 46.2084 195.36 47.7173 199.506C49.2259 203.651 53.243 206.126 57.32 205.764L60.1245 213.469C56.7682 215.811 55.2819 220.29 56.7908 224.436C58.2994 228.58 62.3166 231.055 66.3936 230.693L69.1981 238.399C65.8417 240.74 64.3555 245.219 65.8644 249.365C67.3733 253.511 71.3901 255.985 75.4672 255.623L78.2716 263.328C74.9156 265.671 73.6723 270.817 75.1812 274.963ZM129.279 200.775C128.278 203.015 126.401 204.777 124.133 205.602C121.866 206.427 119.295 206.285 117.088 205.213C114.878 204.132 113.124 202.178 112.269 199.828C111.416 197.486 111.505 194.863 112.503 192.613C113.504 190.373 115.382 188.612 117.649 187.787C119.917 186.961 122.487 187.104 124.693 188.176C126.911 189.254 128.658 191.211 129.51 193.553C130.365 195.902 130.285 198.523 129.279 200.775ZM113.235 156.694C112.237 158.942 110.357 160.696 108.089 161.521C105.822 162.346 103.254 162.212 101.044 161.131C98.8402 160.068 97.0828 158.106 96.2273 155.755C95.3749 153.413 95.4601 150.781 96.4612 148.54C97.4624 146.3 99.3435 144.548 101.611 143.722C103.887 142.894 106.446 143.03 108.652 144.103C110.87 145.181 112.619 147.146 113.469 149.48C114.322 151.822 114.244 154.452 113.235 156.694ZM97.1939 112.622C96.1965 114.87 94.3249 116.622 92.0489 117.451C89.7814 118.276 87.2134 118.141 85.0031 117.059C82.7963 115.987 81.0422 114.034 80.1867 111.684C79.3343 109.342 79.423 106.719 80.4206 104.469C81.422 102.229 83.2996 100.467 85.5671 99.6422C87.8346 98.8169 90.4055 98.9597 92.6114 100.032C94.8185 101.105 96.5759 103.067 97.4282 105.408C98.2838 107.759 98.1977 110.392 97.1939 112.622ZM186.176 180.067C185.175 182.306 183.298 184.068 181.031 184.893C178.764 185.718 176.193 185.575 173.987 184.503C171.777 183.422 170.022 181.469 169.167 179.119C168.315 176.777 168.404 174.153 169.401 171.904C170.402 169.663 172.28 167.902 174.547 167.078C176.814 166.252 179.385 166.395 181.59 167.468C183.808 168.546 185.556 170.502 186.409 172.843C187.263 175.193 187.181 177.815 186.176 180.067ZM170.131 135.985C169.134 138.233 167.262 139.984 164.987 140.812C162.72 141.637 160.152 141.503 157.942 140.421C155.735 139.349 153.981 137.396 153.126 135.046C152.273 132.704 152.363 130.08 153.36 127.831C154.361 125.59 156.242 123.838 158.509 123.013C160.785 122.185 163.343 122.321 165.549 123.395C167.766 124.472 169.515 126.429 170.367 128.77C171.222 131.121 171.141 133.743 170.131 135.985ZM154.091 91.9136C153.093 94.1618 151.222 95.9136 148.946 96.7416C146.68 97.5666 144.112 97.4317 141.902 96.3501C139.695 95.2781 137.941 93.3251 137.085 90.9745C136.233 88.6327 136.322 86.0096 137.319 83.7597C138.32 81.52 140.198 79.7582 142.465 78.9332C144.732 78.1079 147.303 78.2506 149.508 79.3232C151.723 80.3933 153.474 82.3573 154.327 84.6991C155.181 87.05 155.1 89.6712 154.091 91.9136Z" fill="#D1A26A"/>
<mask id="mask0" mask-type="alpha" maskUnits="userSpaceOnUse" x="101" y="69" width="21" height="22">
<path d="M104.096 82.499C105.638 86.7343 110.218 88.9588 114.327 87.4631C118.437 85.9674 120.517 81.3186 118.976 77.0833C117.434 72.848 112.854 70.6295 108.745 72.1252C104.635 73.6209 102.555 78.2637 104.096 82.499Z" fill="#9F6A0C"/>
</mask>
<g mask="url(#mask0)">
<path d="M104.096 82.499C105.638 86.7343 110.218 88.9588 114.327 87.4631C118.437 85.9674 120.517 81.3186 118.976 77.0833C117.434 72.848 112.854 70.6295 108.745 72.1252C104.635 73.6209 102.555 78.2637 104.096 82.499Z" fill="#9F6A0C" stroke="#9DA0A2"/>
</g>
<mask id="mask1" mask-type="alpha" maskUnits="userSpaceOnUse" x="112" y="100" width="22" height="22">
<path d="M115.413 113.592C116.955 117.827 121.534 120.049 125.643 118.554C129.752 117.058 131.834 112.412 130.293 108.176C128.751 103.941 124.17 101.72 120.061 103.216C115.951 104.711 113.872 109.357 115.413 113.592Z" fill="#9F6A0C"/>
</mask>
<g mask="url(#mask1)">
<path d="M115.413 113.592C116.955 117.827 121.534 120.049 125.643 118.554C129.752 117.058 131.834 112.412 130.293 108.176C128.751 103.941 124.17 101.72 120.061 103.216C115.951 104.711 113.872 109.357 115.413 113.592Z" fill="#9F6A0C" stroke="#9DA0A2"/>
</g>
<mask id="mask2" mask-type="alpha" maskUnits="userSpaceOnUse" x="153" y="121" width="22" height="22">
<path d="M156.715 134.473C158.298 138.823 162.912 141.137 167.021 139.641C171.13 138.146 173.177 133.407 171.594 129.057C170.011 124.707 165.396 122.393 161.288 123.889C157.179 125.384 155.131 130.123 156.715 134.473Z" fill="#9F6A0C"/>
</mask>
<g mask="url(#mask2)">
<path d="M156.715 134.473C158.298 138.823 162.912 141.137 167.021 139.641C171.13 138.146 173.177 133.407 171.594 129.057C170.011 124.707 165.396 122.393 161.288 123.889C157.179 125.384 155.131 130.123 156.715 134.473Z" fill="#9F6A0C" stroke="#9DA0A2"/>
</g>
<mask id="mask3" mask-type="alpha" maskUnits="userSpaceOnUse" x="165" y="152" width="21" height="22">
<path d="M168.181 165.978C169.765 170.328 174.379 172.642 178.488 171.146C182.597 169.651 184.644 164.912 183.061 160.562C181.478 156.212 176.863 153.898 172.754 155.394C168.646 156.889 166.598 161.628 168.181 165.978Z" fill="#9F6A0C"/>
</mask>
<g mask="url(#mask3)">
<path d="M168.181 165.978C169.765 170.328 174.379 172.642 178.488 171.146C182.597 169.651 184.644 164.912 183.061 160.562C181.478 156.212 176.863 153.898 172.754 155.394C168.646 156.889 166.598 161.628 168.181 165.978Z" fill="#9F6A0C" stroke="#9DA0A2"/>
</g>
<mask id="mask4" mask-type="alpha" maskUnits="userSpaceOnUse" x="172" y="78" width="44" height="85">
<path d="M174.984 92.0736L197.661 154.38C199.265 158.786 203.94 160.943 207.945 159.486C212.14 157.959 214.072 153.17 212.541 148.965L189.863 86.6579C188.26 82.2519 183.587 80.0939 179.58 81.5524C175.384 83.0794 173.38 87.6676 174.984 92.0736Z" fill="#9F6A0C"/>
</mask>
<g mask="url(#mask4)">
<path d="M174.984 92.0736L197.661 154.38C199.265 158.786 203.94 160.943 207.945 159.486C212.14 157.959 214.072 153.17 212.541 148.965L189.863 86.6579C188.26 82.2519 183.587 80.0939 179.58 81.5524C175.384 83.0794 173.38 87.6676 174.984 92.0736Z" fill="#9F6A0C" stroke="#9DA0A2"/>
</g>
<mask id="mask5" mask-type="alpha" maskUnits="userSpaceOnUse" x="123" y="131" width="45" height="84">
<path d="M126.782 144.827L149.46 207.133C151.064 211.542 155.737 213.697 159.742 212.239C163.941 210.711 165.871 205.926 164.339 201.717L141.661 139.411C140.058 135.005 135.384 132.847 131.377 134.306C127.371 135.764 125.25 140.618 126.782 144.827Z" fill="#9F6A0C"/>
</mask>
<g mask="url(#mask5)">
<path d="M126.782 144.827L149.46 207.133C151.064 211.542 155.737 213.697 159.742 212.239C163.941 210.711 165.871 205.926 164.339 201.717L141.661 139.411C140.058 135.005 135.384 132.847 131.377 134.306C127.371 135.764 125.25 140.618 126.782 144.827Z" fill="#9F6A0C" stroke="#9DA0A2"/>
</g>
<mask id="mask6" mask-type="alpha" maskUnits="userSpaceOnUse" x="83" y="111" width="44" height="84">
<path d="M86.0985 124.425L108.776 186.732C110.38 191.138 114.962 193.329 118.864 191.909C122.949 190.422 124.795 185.664 123.264 181.459L100.586 119.152C98.9827 114.746 94.3979 112.556 90.4986 113.975C86.4113 115.463 84.4948 120.019 86.0985 124.425Z" fill="#9F6A0C"/>
</mask>
<g mask="url(#mask6)">
<path d="M86.0985 124.425L108.776 186.732C110.38 191.138 114.962 193.329 118.864 191.909C122.949 190.422 124.795 185.664 123.264 181.459L100.586 119.152C98.9827 114.746 94.3979 112.556 90.4986 113.975C86.4113 115.463 84.4948 120.019 86.0985 124.425Z" fill="#9F6A0C" stroke="#9DA0A2"/>
</g>
<mask id="mask7" mask-type="alpha" maskUnits="userSpaceOnUse" x="117" y="205" width="21" height="22">
<path d="M120.221 218.175C121.804 222.526 126.33 224.87 130.331 223.414C134.331 221.957 136.292 217.252 134.709 212.902C133.124 208.549 128.598 206.205 124.597 207.661C120.597 209.117 118.636 213.822 120.221 218.175Z" fill="#9F6A0C"/>
</mask>
<g mask="url(#mask7)">
<path d="M120.221 218.175C121.804 222.526 126.33 224.87 130.331 223.414C134.331 221.957 136.292 217.252 134.709 212.902C133.124 208.549 128.598 206.205 124.597 207.661C120.597 209.117 118.636 213.822 120.221 218.175Z" fill="#9F6A0C" stroke="#9DA0A2"/>
</g>
<mask id="mask8" mask-type="alpha" maskUnits="userSpaceOnUse" x="71" y="80" width="22" height="21">
<path d="M74.729 93.1879C76.2706 97.4231 80.7646 99.6789 84.7652 98.2228C88.7658 96.7667 90.7585 92.15 89.2169 87.9147C87.6754 83.6794 83.1832 81.4288 79.1826 82.8849C75.1821 84.3409 73.1875 88.9526 74.729 93.1879Z" fill="#9F6A0C"/>
</mask>
<g mask="url(#mask8)">
<path d="M74.729 93.1879C76.2706 97.4231 80.7646 99.6789 84.7652 98.2228C88.7658 96.7667 90.7585 92.15 89.2169 87.9147C87.6754 83.6794 83.1832 81.4288 79.1826 82.8849C75.1821 84.3409 73.1875 88.9526 74.729 93.1879Z" fill="#9F6A0C" stroke="#9DA0A2"/>
</g>
<mask id="mask9" mask-type="alpha" maskUnits="userSpaceOnUse" x="53" y="122" width="44" height="83">
<path d="M56.738 135.133L79.2512 196.987C80.8587 201.404 85.4441 203.603 89.3458 202.183C93.4332 200.695 95.2735 195.93 93.7391 191.714L71.2259 129.86C69.6915 125.644 65.0306 123.245 61.1313 124.664C57.0463 126.151 55.2036 130.917 56.738 135.133Z" fill="#9F6A0C"/>
</mask>
<g mask="url(#mask9)">
<path d="M56.738 135.133L79.2512 196.987C80.8587 201.404 85.4441 203.603 89.3458 202.183C93.4332 200.695 95.2735 195.93 93.7391 191.714L71.2259 129.86C69.6915 125.644 65.0306 123.245 61.1313 124.664C57.0463 126.151 55.2036 130.917 56.738 135.133Z" fill="#9F6A0C" stroke="#142D4B"/>
</g>
<path d="M318.192 216.96C311.792 216.96 306.832 214.816 303.312 210.528V213.6C303.312 214.24 303.088 214.816 302.64 215.328C302.192 215.776 301.616 216 300.912 216H290.064C289.424 216 288.848 215.776 288.336 215.328C287.888 214.816 287.664 214.24 287.664 213.6V150.24C287.664 149.536 287.888 148.96 288.336 148.512C288.848 148.064 289.424 147.84 290.064 147.84H301.776C302.48 147.84 303.056 148.064 303.504 148.512C303.952 148.96 304.176 149.536 304.176 150.24V170.784C307.76 167.008 312.432 165.12 318.192 165.12C324.4 165.12 329.296 167.136 332.88 171.168C336.464 175.2 338.384 180.672 338.64 187.584C338.704 188.416 338.736 189.568 338.736 191.04C338.736 192.448 338.704 193.568 338.64 194.4C338.32 201.568 336.4 207.136 332.88 211.104C329.36 215.008 324.464 216.96 318.192 216.96ZM313.008 204.096C316.016 204.096 318.16 203.2 319.44 201.408C320.784 199.616 321.552 197.152 321.744 194.016C321.872 192.736 321.936 191.744 321.936 191.04C321.936 190.336 321.872 189.344 321.744 188.064C321.552 184.928 320.784 182.464 319.44 180.672C318.16 178.88 316.016 177.984 313.008 177.984C310.192 177.984 308.048 178.848 306.576 180.576C305.104 182.304 304.304 184.48 304.176 187.104L304.08 190.656L304.176 194.304C304.368 197.184 305.136 199.552 306.48 201.408C307.888 203.2 310.064 204.096 313.008 204.096ZM350.531 158.88C349.827 158.88 349.251 158.656 348.803 158.208C348.355 157.76 348.131 157.184 348.131 156.48V147.84C348.131 147.136 348.355 146.56 348.803 146.112C349.251 145.664 349.827 145.44 350.531 145.44H362.051C362.755 145.44 363.331 145.664 363.779 146.112C364.227 146.56 364.451 147.136 364.451 147.84V156.48C364.451 157.184 364.227 157.76 363.779 158.208C363.331 158.656 362.755 158.88 362.051 158.88H350.531ZM350.627 216C349.923 216 349.347 215.776 348.898 215.328C348.451 214.88 348.227 214.304 348.227 213.6V168.48C348.227 167.776 348.451 167.2 348.898 166.752C349.347 166.304 349.923 166.08 350.627 166.08H361.955C362.659 166.08 363.235 166.304 363.683 166.752C364.131 167.2 364.355 167.776 364.355 168.48V213.6C364.355 214.24 364.131 214.816 363.683 215.328C363.235 215.776 362.659 216 361.955 216H350.627ZM396.239 216.96C391.055 216.96 386.703 216.224 383.183 214.752C379.727 213.28 377.167 211.52 375.503 209.472C373.839 207.424 373.007 205.6 373.007 204C373.007 203.36 373.231 202.848 373.679 202.464C374.191 202.016 374.735 201.792 375.311 201.792H386.255C386.639 201.792 386.991 201.952 387.311 202.272C388.079 202.784 388.655 203.2 389.039 203.52C390.447 204.544 391.663 205.312 392.687 205.824C393.775 206.272 395.087 206.496 396.623 206.496C398.479 206.496 399.983 206.144 401.135 205.44C402.351 204.672 402.959 203.616 402.959 202.272C402.959 201.184 402.639 200.32 401.999 199.68C401.423 199.04 400.271 198.432 398.543 197.856C396.815 197.216 394.191 196.544 390.671 195.84C385.359 194.752 381.263 192.992 378.383 190.56C375.567 188.064 374.159 184.736 374.159 180.576C374.159 177.952 374.991 175.456 376.655 173.088C378.319 170.72 380.783 168.8 384.047 167.328C387.375 165.856 391.311 165.12 395.855 165.12C400.399 165.12 404.367 165.824 407.759 167.232C411.151 168.64 413.711 170.368 415.439 172.416C417.231 174.4 418.127 176.224 418.127 177.888C418.127 178.464 417.903 178.976 417.455 179.424C417.071 179.872 416.591 180.096 416.015 180.096H406.031C405.519 180.096 405.039 179.936 404.591 179.616C403.759 179.168 403.023 178.688 402.383 178.176C401.295 177.344 400.271 176.704 399.311 176.256C398.351 175.808 397.167 175.584 395.759 175.584C394.095 175.584 392.751 175.968 391.727 176.736C390.767 177.504 390.287 178.496 390.287 179.712C390.287 180.672 390.543 181.472 391.055 182.112C391.631 182.752 392.783 183.392 394.511 184.032C396.303 184.608 398.927 185.216 402.383 185.856C408.591 186.944 413.103 188.864 415.919 191.616C418.799 194.368 420.239 197.6 420.239 201.312C420.239 206.048 418.127 209.856 413.903 212.736C409.679 215.552 403.791 216.96 396.239 216.96ZM451.702 216.96C444.47 216.96 438.614 215.04 434.134 211.2C429.654 207.296 427.254 201.888 426.934 194.976L426.838 191.136L426.934 187.2C427.19 180.288 429.558 174.88 434.038 170.976C438.582 167.072 444.47 165.12 451.702 165.12C457.142 165.12 461.718 166.112 465.43 168.096C469.206 170.016 471.99 172.352 473.782 175.104C475.638 177.792 476.63 180.256 476.758 182.496C476.822 183.136 476.598 183.712 476.086 184.224C475.638 184.672 475.062 184.896 474.358 184.896H462.166C461.462 184.896 460.918 184.736 460.534 184.416C460.15 184.096 459.798 183.616 459.478 182.976C458.71 180.992 457.718 179.584 456.502 178.752C455.35 177.92 453.846 177.504 451.99 177.504C446.742 177.504 444.022 180.896 443.83 187.68L443.734 191.328L443.83 194.496C443.958 197.952 444.694 200.512 446.038 202.176C447.446 203.776 449.43 204.576 451.99 204.576C453.974 204.576 455.542 204.16 456.694 203.328C457.846 202.496 458.774 201.088 459.478 199.104C459.798 198.464 460.15 197.984 460.534 197.664C460.918 197.344 461.462 197.184 462.166 197.184H474.358C474.998 197.184 475.542 197.408 475.99 197.856C476.502 198.24 476.758 198.752 476.758 199.392C476.758 201.44 475.862 203.84 474.07 206.592C472.342 209.344 469.59 211.776 465.814 213.888C462.038 215.936 457.334 216.96 451.702 216.96ZM503.719 216.96C498.087 216.96 493.543 215.072 490.087 211.296C486.631 207.456 484.903 202.112 484.903 195.264V168.48C484.903 167.776 485.127 167.2 485.575 166.752C486.023 166.304 486.599 166.08 487.303 166.08H499.303C500.007 166.08 500.583 166.304 501.031 166.752C501.543 167.2 501.799 167.776 501.799 168.48V194.688C501.799 200.96 504.583 204.096 510.151 204.096C512.839 204.096 514.951 203.264 516.487 201.6C518.023 199.936 518.791 197.632 518.791 194.688V168.48C518.791 167.776 519.015 167.2 519.463 166.752C519.975 166.304 520.551 166.08 521.191 166.08H533.191C533.895 166.08 534.471 166.304 534.919 166.752C535.367 167.2 535.591 167.776 535.591 168.48V213.6C535.591 214.24 535.367 214.816 534.919 215.328C534.471 215.776 533.895 216 533.191 216H522.055C521.415 216 520.839 215.776 520.327 215.328C519.879 214.816 519.655 214.24 519.655 213.6V209.952C516.327 214.624 511.015 216.96 503.719 216.96ZM549.187 158.88C548.483 158.88 547.907 158.656 547.459 158.208C547.011 157.76 546.787 157.184 546.787 156.48V147.84C546.787 147.136 547.011 146.56 547.459 146.112C547.907 145.664 548.483 145.44 549.187 145.44H560.707C561.411 145.44 561.987 145.664 562.435 146.112C562.883 146.56 563.107 147.136 563.107 147.84V156.48C563.107 157.184 562.883 157.76 562.435 158.208C561.987 158.656 561.411 158.88 560.707 158.88H549.187ZM549.283 216C548.579 216 548.003 215.776 547.555 215.328C547.107 214.88 546.883 214.304 546.883 213.6V168.48C546.883 167.776 547.107 167.2 547.555 166.752C548.003 166.304 548.579 166.08 549.283 166.08H560.611C561.315 166.08 561.891 166.304 562.339 166.752C562.787 167.2 563.011 167.776 563.011 168.48V213.6C563.011 214.24 562.787 214.816 562.339 215.328C561.891 215.776 561.315 216 560.611 216H549.283ZM599.888 216C586.64 216 580.016 209.696 580.016 197.088V178.656H572.528C571.824 178.656 571.216 178.432 570.704 177.984C570.256 177.536 570.032 176.96 570.032 176.256V168.48C570.032 167.776 570.256 167.2 570.704 166.752C571.216 166.304 571.824 166.08 572.528 166.08H580.016V150.24C580.016 149.536 580.24 148.96 580.688 148.512C581.2 148.064 581.776 147.84 582.416 147.84H593.552C594.256 147.84 594.832 148.064 595.28 148.512C595.728 148.96 595.952 149.536 595.952 150.24V166.08H607.952C608.656 166.08 609.232 166.304 609.68 166.752C610.192 167.2 610.448 167.776 610.448 168.48V176.256C610.448 176.96 610.192 177.536 609.68 177.984C609.232 178.432 608.656 178.656 607.952 178.656H595.952V195.744C595.952 200.48 597.776 202.848 601.424 202.848H608.816C609.52 202.848 610.096 203.072 610.544 203.52C610.992 203.968 611.216 204.544 611.216 205.248V213.6C611.216 214.24 610.992 214.816 610.544 215.328C610.096 215.776 609.52 216 608.816 216H599.888ZM639.708 216.96C634.524 216.96 630.172 216.224 626.652 214.752C623.196 213.28 620.636 211.52 618.972 209.472C617.308 207.424 616.476 205.6 616.476 204C616.476 203.36 616.7 202.848 617.148 202.464C617.66 202.016 618.204 201.792 618.78 201.792H629.724C630.108 201.792 630.46 201.952 630.78 202.272C631.548 202.784 632.124 203.2 632.508 203.52C633.916 204.544 635.132 205.312 636.156 205.824C637.244 206.272 638.556 206.496 640.092 206.496C641.948 206.496 643.452 206.144 644.604 205.44C645.82 204.672 646.428 203.616 646.428 202.272C646.428 201.184 646.108 200.32 645.468 199.68C644.892 199.04 643.74 198.432 642.012 197.856C640.284 197.216 637.66 196.544 634.14 195.84C628.828 194.752 624.732 192.992 621.852 190.56C619.036 188.064 617.628 184.736 617.628 180.576C617.628 177.952 618.46 175.456 620.124 173.088C621.788 170.72 624.252 168.8 627.516 167.328C630.844 165.856 634.78 165.12 639.324 165.12C643.868 165.12 647.836 165.824 651.228 167.232C654.62 168.64 657.18 170.368 658.908 172.416C660.7 174.4 661.596 176.224 661.596 177.888C661.596 178.464 661.372 178.976 660.924 179.424C660.54 179.872 660.06 180.096 659.484 180.096H649.5C648.988 180.096 648.508 179.936 648.06 179.616C647.228 179.168 646.492 178.688 645.852 178.176C644.764 177.344 643.74 176.704 642.78 176.256C641.82 175.808 640.636 175.584 639.228 175.584C637.564 175.584 636.22 175.968 635.196 176.736C634.236 177.504 633.756 178.496 633.756 179.712C633.756 180.672 634.012 181.472 634.524 182.112C635.1 182.752 636.252 183.392 637.98 184.032C639.772 184.608 642.396 185.216 645.852 185.856C652.06 186.944 656.572 188.864 659.388 191.616C662.268 194.368 663.708 197.6 663.708 201.312C663.708 206.048 661.596 209.856 657.372 212.736C653.148 215.552 647.26 216.96 639.708 216.96ZM695.267 216.96C687.587 216.96 681.539 214.88 677.123 210.72C672.707 206.56 670.403 200.512 670.211 192.576V189.216C670.467 181.664 672.803 175.776 677.219 171.552C681.699 167.264 687.683 165.12 695.171 165.12C700.611 165.12 705.187 166.24 708.899 168.48C712.675 170.656 715.491 173.664 717.347 177.504C719.267 181.344 720.227 185.76 720.227 190.752V193.056C720.227 193.696 720.003 194.272 719.555 194.784C719.107 195.232 718.531 195.456 717.827 195.456H687.107V196.128C687.235 199.136 687.971 201.568 689.315 203.424C690.659 205.28 692.611 206.208 695.171 206.208C696.771 206.208 698.083 205.888 699.107 205.248C700.131 204.544 701.059 203.712 701.891 202.752C702.467 202.048 702.915 201.632 703.235 201.504C703.619 201.312 704.195 201.216 704.963 201.216H716.867C717.443 201.216 717.923 201.408 718.307 201.792C718.755 202.112 718.979 202.56 718.979 203.136C718.979 204.8 718.019 206.72 716.099 208.896C714.243 211.072 711.523 212.96 707.939 214.56C704.355 216.16 700.131 216.96 695.267 216.96ZM703.331 185.952V185.76C703.331 182.624 702.595 180.16 701.123 178.368C699.715 176.512 697.731 175.584 695.171 175.584C692.675 175.584 690.691 176.512 689.219 178.368C687.811 180.16 687.107 182.624 687.107 185.76V185.952H703.331ZM752.171 216.96C744.939 216.96 739.083 215.04 734.603 211.2C730.123 207.296 727.723 201.888 727.403 194.976L727.307 191.136L727.403 187.2C727.659 180.288 730.027 174.88 734.507 170.976C739.051 167.072 744.939 165.12 752.171 165.12C757.611 165.12 762.187 166.112 765.899 168.096C769.675 170.016 772.458 172.352 774.25 175.104C776.107 177.792 777.099 180.256 777.227 182.496C777.291 183.136 777.067 183.712 776.555 184.224C776.107 184.672 775.531 184.896 774.827 184.896H762.635C761.931 184.896 761.387 184.736 761.003 184.416C760.619 184.096 760.267 183.616 759.947 182.976C759.179 180.992 758.187 179.584 756.971 178.752C755.819 177.92 754.315 177.504 752.459 177.504C747.211 177.504 744.491 180.896 744.299 187.68L744.203 191.328L744.299 194.496C744.427 197.952 745.163 200.512 746.507 202.176C747.915 203.776 749.899 204.576 752.459 204.576C754.443 204.576 756.011 204.16 757.163 203.328C758.315 202.496 759.243 201.088 759.947 199.104C760.267 198.464 760.619 197.984 761.003 197.664C761.387 197.344 761.931 197.184 762.635 197.184H774.827C775.467 197.184 776.011 197.408 776.458 197.856C776.971 198.24 777.227 198.752 777.227 199.392C777.227 201.44 776.331 203.84 774.539 206.592C772.811 209.344 770.059 211.776 766.283 213.888C762.507 215.936 757.803 216.96 752.171 216.96Z" fill="white"/>
<path d="M291.86 72C291.393 72 290.997 71.86 290.67 71.58C290.39 71.2533 290.25 70.8567 290.25 70.39V23.91C290.25 23.4433 290.39 23.07 290.67 22.79C290.997 22.4633 291.393 22.3 291.86 22.3H295.15C295.617 22.3 295.99 22.4633 296.27 22.79C296.597 23.07 296.76 23.4433 296.76 23.91V70.39C296.76 70.8567 296.597 71.2533 296.27 71.58C295.99 71.86 295.617 72 295.15 72H291.86ZM308.251 28.81C307.785 28.81 307.388 28.67 307.061 28.39C306.781 28.0633 306.641 27.6667 306.641 27.2V23.42C306.641 22.9533 306.781 22.5567 307.061 22.23C307.388 21.9033 307.785 21.74 308.251 21.74H312.661C313.128 21.74 313.525 21.9033 313.851 22.23C314.178 22.5567 314.341 22.9533 314.341 23.42V27.2C314.341 27.6667 314.178 28.0633 313.851 28.39C313.525 28.67 313.128 28.81 312.661 28.81H308.251ZM308.811 72C308.345 72 307.948 71.86 307.621 71.58C307.341 71.2533 307.201 70.8567 307.201 70.39V37.21C307.201 36.7433 307.341 36.37 307.621 36.09C307.948 35.7633 308.345 35.6 308.811 35.6H312.171C312.638 35.6 313.011 35.7633 313.291 36.09C313.618 36.37 313.781 36.7433 313.781 37.21V70.39C313.781 70.8567 313.618 71.2533 313.291 71.58C313.011 71.86 312.638 72 312.171 72H308.811ZM336.825 72C335.611 72 334.748 71.4167 334.235 70.25L321.285 37.77L321.145 37.07C321.145 36.65 321.285 36.3 321.565 36.02C321.845 35.74 322.195 35.6 322.615 35.6H325.975C326.768 35.6 327.351 35.9967 327.725 36.79L338.365 64.37L349.005 36.79C349.425 35.9967 349.985 35.6 350.685 35.6H354.115C354.488 35.6 354.815 35.74 355.095 36.02C355.421 36.3 355.585 36.65 355.585 37.07L355.445 37.77L342.425 70.25C341.911 71.4167 341.048 72 339.835 72H336.825ZM376.176 72.7C371.369 72.7 367.519 71.23 364.626 68.29C361.779 65.3033 360.216 61.2433 359.936 56.11L359.866 53.73L359.936 51.42C360.262 46.38 361.849 42.3667 364.696 39.38C367.589 36.3933 371.392 34.9 376.106 34.9C381.286 34.9 385.299 36.5567 388.146 39.87C390.992 43.1367 392.416 47.57 392.416 53.17V54.36C392.416 54.8267 392.252 55.2233 391.926 55.55C391.646 55.83 391.272 55.97 390.806 55.97H366.586V56.6C366.726 59.6333 367.636 62.2233 369.316 64.37C371.042 66.47 373.306 67.52 376.106 67.52C378.252 67.52 380.002 67.1 381.356 66.26C382.756 65.3733 383.782 64.4633 384.436 63.53C384.856 62.97 385.159 62.6433 385.346 62.55C385.579 62.41 385.976 62.34 386.536 62.34H389.966C390.386 62.34 390.736 62.4567 391.016 62.69C391.296 62.9233 391.436 63.25 391.436 63.67C391.436 64.6967 390.782 65.9333 389.476 67.38C388.216 68.8267 386.419 70.0867 384.086 71.16C381.799 72.1867 379.162 72.7 376.176 72.7ZM385.766 51.14V50.93C385.766 47.71 384.879 45.0967 383.106 43.09C381.379 41.0367 379.046 40.01 376.106 40.01C373.166 40.01 370.832 41.0367 369.106 43.09C367.426 45.0967 366.586 47.71 366.586 50.93V51.14H385.766ZM419.624 85.3C419.157 85.3 418.76 85.1367 418.434 84.81C418.154 84.53 418.014 84.1567 418.014 83.69V37.21C418.014 36.7433 418.154 36.37 418.434 36.09C418.76 35.7633 419.157 35.6 419.624 35.6H422.844C423.31 35.6 423.684 35.7633 423.964 36.09C424.29 36.37 424.454 36.7433 424.454 37.21V40.29C427.067 36.6967 430.894 34.9 435.934 34.9C440.834 34.9 444.497 36.44 446.924 39.52C449.397 42.6 450.727 46.5667 450.914 51.42C450.96 51.9333 450.984 52.7267 450.984 53.8C450.984 54.8733 450.96 55.6667 450.914 56.18C450.727 60.9867 449.397 64.9533 446.924 68.08C444.45 71.16 440.787 72.7 435.934 72.7C431.08 72.7 427.3 70.95 424.594 67.45V83.69C424.594 84.1567 424.454 84.53 424.174 84.81C423.894 85.1367 423.52 85.3 423.054 85.3H419.624ZM434.464 67.03C437.777 67.03 440.18 66.0033 441.674 63.95C443.214 61.8967 444.054 59.19 444.194 55.83C444.24 55.3633 444.264 54.6867 444.264 53.8C444.264 44.98 440.997 40.57 434.464 40.57C431.244 40.57 428.817 41.6433 427.184 43.79C425.597 45.89 424.734 48.41 424.594 51.35L424.524 54.01L424.594 56.74C424.687 59.4933 425.574 61.8967 427.254 63.95C428.934 66.0033 431.337 67.03 434.464 67.03ZM461.323 72C460.856 72 460.46 71.86 460.133 71.58C459.853 71.2533 459.713 70.8567 459.713 70.39V23.91C459.713 23.4433 459.853 23.07 460.133 22.79C460.46 22.4633 460.856 22.3 461.323 22.3H464.613C465.08 22.3 465.453 22.4633 465.733 22.79C466.06 23.07 466.223 23.4433 466.223 23.91V70.39C466.223 70.8567 466.06 71.2533 465.733 71.58C465.453 71.86 465.08 72 464.613 72H461.323ZM486.814 72.7C484.528 72.7 482.404 72.2333 480.444 71.3C478.484 70.3667 476.921 69.1067 475.754 67.52C474.634 65.8867 474.074 64.09 474.074 62.13C474.074 59.05 475.334 56.53 477.854 54.57C480.421 52.5633 483.874 51.2567 488.214 50.65L498.644 49.18V47.15C498.644 42.39 495.914 40.01 490.454 40.01C488.401 40.01 486.721 40.4533 485.414 41.34C484.108 42.18 483.128 43.1833 482.474 44.35C482.334 44.77 482.148 45.0733 481.914 45.26C481.728 45.4467 481.448 45.54 481.074 45.54H478.064C477.644 45.54 477.271 45.4 476.944 45.12C476.664 44.7933 476.524 44.42 476.524 44C476.571 42.88 477.084 41.62 478.064 40.22C479.091 38.7733 480.654 37.5367 482.754 36.51C484.854 35.4367 487.444 34.9 490.524 34.9C495.751 34.9 499.508 36.1367 501.794 38.61C504.081 41.0367 505.224 44.07 505.224 47.71V70.39C505.224 70.8567 505.061 71.2533 504.734 71.58C504.454 71.86 504.081 72 503.614 72H500.394C499.928 72 499.531 71.86 499.204 71.58C498.924 71.2533 498.784 70.8567 498.784 70.39V67.38C497.758 68.8733 496.264 70.1333 494.304 71.16C492.344 72.1867 489.848 72.7 486.814 72.7ZM488.284 67.45C491.318 67.45 493.791 66.47 495.704 64.51C497.664 62.5033 498.644 59.6333 498.644 55.9V53.94L490.524 55.13C487.211 55.5967 484.714 56.39 483.034 57.51C481.354 58.5833 480.514 59.96 480.514 61.64C480.514 63.5067 481.284 64.9533 482.824 65.98C484.364 66.96 486.184 67.45 488.284 67.45ZM520.905 85.3C520.532 85.3 520.205 85.16 519.925 84.88C519.645 84.6 519.505 84.2733 519.505 83.9C519.505 83.5733 519.622 83.1533 519.855 82.64L525.245 69.83L511.875 38.26C511.642 37.6533 511.525 37.2567 511.525 37.07C511.525 36.65 511.665 36.3 511.945 36.02C512.225 35.74 512.575 35.6 512.995 35.6H516.425C517.172 35.6 517.732 35.9967 518.105 36.79L528.745 62.27L539.665 36.79C540.039 35.9967 540.622 35.6 541.415 35.6H544.705C545.125 35.6 545.475 35.74 545.755 36.02C546.035 36.3 546.175 36.6267 546.175 37C546.175 37.14 546.059 37.56 545.825 38.26L525.945 84.11C525.572 84.9033 524.989 85.3 524.195 85.3H520.905ZM566.906 87.4C563.08 87.4 560 86.7467 557.666 85.44C555.333 84.18 553.676 82.7333 552.696 81.1C551.716 79.4667 551.18 77.9967 551.086 76.69C551.04 76.2233 551.18 75.8267 551.506 75.5C551.88 75.1733 552.276 75.01 552.696 75.01H556.056C556.476 75.01 556.826 75.1033 557.106 75.29C557.386 75.5233 557.62 75.92 557.806 76.48C558.366 77.9733 559.276 79.2567 560.536 80.33C561.843 81.45 563.85 82.01 566.556 82.01C570.01 82.01 572.553 81.2633 574.186 79.77C575.82 78.3233 576.636 75.7333 576.636 72V67.24C575.423 68.78 573.883 70.0167 572.016 70.95C570.15 71.8367 567.933 72.28 565.366 72.28C560.42 72.28 556.71 70.7167 554.236 67.59C551.81 64.4167 550.526 60.4033 550.386 55.55L550.316 53.59L550.386 51.7C550.526 46.8933 551.833 42.9033 554.306 39.73C556.78 36.51 560.466 34.9 565.366 34.9C570.266 34.9 574.093 36.6967 576.846 40.29V37.28C576.846 36.8133 576.986 36.4167 577.266 36.09C577.593 35.7633 577.99 35.6 578.456 35.6H581.676C582.143 35.6 582.54 35.7633 582.866 36.09C583.193 36.4167 583.356 36.8133 583.356 37.28V71.23C583.356 82.01 577.873 87.4 566.906 87.4ZM566.766 66.68C569.94 66.68 572.343 65.63 573.976 63.53C575.61 61.43 576.496 58.9333 576.636 56.04C576.683 55.62 576.706 54.8033 576.706 53.59C576.706 52.4233 576.683 51.63 576.636 51.21C576.496 48.3167 575.61 45.82 573.976 43.72C572.39 41.62 569.986 40.57 566.766 40.57C563.453 40.57 561.05 41.5967 559.556 43.65C558.063 45.7033 557.246 48.41 557.106 51.77L557.036 53.59L557.106 55.48C557.246 58.7933 558.063 61.5 559.556 63.6C561.05 65.6533 563.453 66.68 566.766 66.68ZM595.374 72C594.907 72 594.511 71.86 594.184 71.58C593.904 71.2533 593.764 70.8567 593.764 70.39V37.28C593.764 36.8133 593.904 36.4167 594.184 36.09C594.511 35.7633 594.907 35.6 595.374 35.6H598.594C599.061 35.6 599.457 35.7633 599.784 36.09C600.111 36.4167 600.274 36.8133 600.274 37.28V40.36C602.187 37.1867 605.454 35.6 610.074 35.6H612.804C613.271 35.6 613.644 35.7633 613.924 36.09C614.251 36.37 614.414 36.7433 614.414 37.21V40.08C614.414 40.5467 614.251 40.92 613.924 41.2C613.644 41.48 613.271 41.62 612.804 41.62H608.604C606.084 41.62 604.101 42.3667 602.654 43.86C601.207 45.3067 600.484 47.29 600.484 49.81V70.39C600.484 70.8567 600.321 71.2533 599.994 71.58C599.667 71.86 599.271 72 598.804 72H595.374ZM634.582 72.7C629.449 72.7 625.459 71.2533 622.612 68.36C619.812 65.4667 618.319 61.6167 618.132 56.81L618.062 53.8L618.132 50.79C618.319 46.03 619.836 42.2033 622.682 39.31C625.529 36.37 629.496 34.9 634.582 34.9C639.669 34.9 643.636 36.37 646.482 39.31C649.329 42.2033 650.846 46.03 651.032 50.79C651.079 51.3033 651.102 52.3067 651.102 53.8C651.102 55.2933 651.079 56.2967 651.032 56.81C650.846 61.6167 649.329 65.4667 646.482 68.36C643.682 71.2533 639.716 72.7 634.582 72.7ZM634.582 67.31C637.522 67.31 639.832 66.3767 641.512 64.51C643.239 62.6433 644.172 59.96 644.312 56.46C644.359 55.9933 644.382 55.1067 644.382 53.8C644.382 52.4933 644.359 51.6067 644.312 51.14C644.172 47.64 643.239 44.9567 641.512 43.09C639.832 41.2233 637.522 40.29 634.582 40.29C631.642 40.29 629.309 41.2233 627.582 43.09C625.856 44.9567 624.946 47.64 624.852 51.14L624.782 53.8L624.852 56.46C624.946 59.96 625.856 62.6433 627.582 64.51C629.309 66.3767 631.642 67.31 634.582 67.31ZM673.448 72.7C669.014 72.7 665.584 71.2767 663.158 68.43C660.731 65.5367 659.518 61.71 659.518 56.95V37.21C659.518 36.7433 659.658 36.37 659.938 36.09C660.264 35.7633 660.661 35.6 661.128 35.6H664.628C665.094 35.6 665.468 35.7633 665.748 36.09C666.074 36.37 666.238 36.7433 666.238 37.21V56.6C666.238 63.5533 669.271 67.03 675.338 67.03C678.278 67.03 680.611 66.12 682.338 64.3C684.064 62.4333 684.928 59.8667 684.928 56.6V37.21C684.928 36.7433 685.068 36.37 685.348 36.09C685.674 35.7633 686.071 35.6 686.538 35.6H690.037C690.504 35.6 690.878 35.7633 691.158 36.09C691.438 36.37 691.578 36.7433 691.578 37.21V70.39C691.578 70.8567 691.438 71.2533 691.158 71.58C690.878 71.86 690.504 72 690.037 72H686.748C686.281 72 685.884 71.86 685.558 71.58C685.278 71.2533 685.138 70.8567 685.138 70.39V67.31C683.831 69.0833 682.244 70.4367 680.378 71.37C678.511 72.2567 676.201 72.7 673.448 72.7ZM703.587 72C703.12 72 702.724 71.86 702.397 71.58C702.117 71.2533 701.977 70.8567 701.977 70.39V37.21C701.977 36.7433 702.117 36.37 702.397 36.09C702.724 35.7633 703.12 35.6 703.587 35.6H706.877C707.344 35.6 707.717 35.7633 707.997 36.09C708.324 36.37 708.487 36.7433 708.487 37.21V40.29C709.84 38.5633 711.427 37.2333 713.247 36.3C715.114 35.3667 717.424 34.9 720.177 34.9C724.657 34.9 728.134 36.3467 730.607 39.24C733.127 42.0867 734.387 45.89 734.387 50.65V70.39C734.387 70.8567 734.224 71.2533 733.897 71.58C733.617 71.86 733.244 72 732.777 72H729.277C728.81 72 728.414 71.86 728.087 71.58C727.807 71.2533 727.667 70.8567 727.667 70.39V51C727.667 47.6867 726.85 45.12 725.217 43.3C723.63 41.48 721.32 40.57 718.287 40.57C715.347 40.57 713.014 41.5033 711.287 43.37C709.56 45.19 708.697 47.7333 708.697 51V70.39C708.697 70.8567 708.534 71.2533 708.207 71.58C707.927 71.86 707.554 72 707.087 72H703.587ZM757.728 72.7C752.875 72.7 749.211 71.1133 746.738 67.94C744.265 64.7667 742.958 60.7533 742.818 55.9L742.748 53.8L742.818 51.7C742.958 46.8933 744.265 42.9033 746.738 39.73C749.211 36.51 752.875 34.9 757.728 34.9C762.535 34.9 766.315 36.6033 769.068 40.01V23.91C769.068 23.4433 769.208 23.07 769.488 22.79C769.815 22.4633 770.211 22.3 770.678 22.3H774.038C774.505 22.3 774.878 22.4633 775.158 22.79C775.485 23.07 775.648 23.4433 775.648 23.91V70.39C775.648 70.8567 775.485 71.2533 775.158 71.58C774.878 71.86 774.505 72 774.038 72H770.888C770.421 72 770.025 71.86 769.698 71.58C769.418 71.2533 769.278 70.8567 769.278 70.39V67.45C766.571 70.95 762.721 72.7 757.728 72.7ZM759.198 67.03C762.418 67.03 764.821 65.98 766.408 63.88C768.041 61.7333 768.928 59.19 769.068 56.25C769.115 55.7367 769.138 54.85 769.138 53.59C769.138 52.2833 769.115 51.3733 769.068 50.86C768.975 48.1067 768.088 45.7033 766.408 43.65C764.728 41.5967 762.325 40.57 759.198 40.57C755.885 40.57 753.458 41.5967 751.918 43.65C750.425 45.7033 749.608 48.41 749.468 51.77L749.398 53.8C749.398 62.62 752.665 67.03 759.198 67.03Z" fill="white"/>
</svg>
