<svg width="737" height="239" viewBox="0 0 737 239" fill="none" xmlns="http://www.w3.org/2000/svg">
<path d="M37.267 43.3318H165.396L165.396 193.408H37.267L37.267 43.3318Z" fill="#D1A26A"/>
<path d="M0 219.815C0 225.045 4.11015 230 9.1745 230C13.7369 230 17.5049 226.562 18.2172 222.064H25.8191C26.5332 226.561 30.3066 230 34.8627 230C39.417 230 43.1914 226.562 43.9054 222.064H51.5074C52.2214 226.561 55.9948 230 60.5509 230C65.1134 230 68.8805 226.562 69.5936 222.064H77.1956C77.9096 226.561 81.6831 230 86.2392 230C90.8016 230 94.5687 226.562 95.2819 222.064H102.884C103.598 226.561 107.371 230 111.927 230C116.482 230 120.256 226.562 120.97 222.064H128.572C129.286 226.561 133.06 230 137.616 230C142.179 230 145.946 226.562 146.658 222.064H154.26C154.974 226.561 158.748 230 163.304 230C167.867 230 171.634 226.562 172.347 222.064H179.948C180.663 226.561 184.436 230 188.992 230C194.055 230 198.166 225.755 198.166 220.526C198.166 216.832 196.111 213.638 193.123 212.075V205.056C197.079 204.001 200 200.302 200 195.892C200 191.481 197.079 187.782 193.123 186.728V178.526C197.079 177.472 200 173.772 200 169.362C200 164.951 197.079 161.253 193.123 160.199V151.997C197.079 150.943 200 147.243 200 142.833C200 138.422 197.079 134.724 193.123 133.669V125.468C197.079 124.413 200 120.714 200 116.304C200 111.893 197.079 108.194 193.123 107.14V98.9384C197.079 97.8839 200 94.1844 200 89.7745C200 85.3637 197.079 81.6652 193.123 80.6107V72.409C197.079 71.3546 200 67.6551 200 63.2452C200 58.8344 197.079 55.1349 193.123 54.0814V45.8797C197.079 44.8253 200 41.1258 200 36.7159C200 32.3041 197.079 28.6056 193.123 27.5521V19.3504C197.079 18.296 200 14.5965 200 10.1866C200 4.95624 195.899 0.711364 190.826 0.711364C186.514 0.711364 182.903 3.79456 181.924 7.93688H174.87C174.151 3.43842 170.385 0 165.821 0C161.265 0 157.493 3.43842 156.778 7.93595L149.175 7.93595C148.464 3.43842 144.698 0 140.133 0C135.577 0 131.805 3.43842 131.091 7.93595H123.488C122.776 3.43842 119.01 0 114.446 0C109.891 0 106.117 3.43842 105.403 7.93595L97.8005 7.93595C97.0882 3.43842 93.3229 0 88.7587 0C84.2035 0 80.4301 3.43842 79.716 7.93595H72.1132C71.4009 3.43842 67.6347 0 63.0714 0C58.5162 0 54.7428 3.43842 54.0287 7.93595H46.4258C45.7118 3.43842 41.9393 0 37.3841 0C32.8289 0 29.0554 3.43842 28.3414 7.93595L20.7385 7.93595C20.0263 3.43842 16.2601 0 11.6967 0C6.63149 0 2.52314 4.24488 2.52314 9.47429C2.52314 12.8782 4.27084 15.8579 6.88335 17.5286L6.88335 24.2339C2.92847 25.2865 0 28.9869 0 33.3987C0 37.8095 2.92847 41.509 6.88335 42.5634V50.7632C2.92847 51.814 0 55.5079 0 59.928C0 64.3398 2.92847 68.0383 6.88335 69.0928L6.88335 77.2926C2.92847 78.3452 0 82.0456 0 86.4573C0 90.8682 2.92847 94.5676 6.88335 95.6221V103.822C2.92847 104.874 0 108.575 0 112.987C0 117.397 2.92847 121.097 6.88335 122.151V130.351C2.92847 131.404 0 135.104 0 139.516C0 143.927 2.92847 147.626 6.88335 148.681L6.88335 156.881C2.92847 157.933 0 161.634 0 166.045C0 170.456 2.92847 174.156 6.88335 175.21V183.41C2.92847 184.462 0 188.163 0 192.575C0 196.986 2.92847 200.685 6.88335 201.739V209.939C2.92847 210.993 0 215.404 0 219.815ZM76.2089 168.605C74.5027 170.367 72.1357 171.38 69.7227 171.38C67.3097 171.38 64.9427 170.367 63.2357 168.605C61.5286 166.833 60.5482 164.397 60.5482 161.896C60.5482 159.404 61.5286 156.969 63.2357 155.197C64.9427 153.434 67.3097 152.421 69.7227 152.421C72.1357 152.421 74.5027 153.435 76.2089 155.197C77.9241 156.968 78.8963 159.404 78.8963 161.896C78.8963 164.397 77.9241 166.832 76.2089 168.605ZM76.2089 121.694C74.5027 123.465 72.1357 124.47 69.7227 124.47C67.3097 124.47 64.9427 123.466 63.2357 121.694C61.5286 119.941 60.5482 117.496 60.5482 114.995C60.5482 112.503 61.5286 110.058 63.2357 108.295C64.9427 106.532 67.3097 105.529 69.7227 105.529C72.1448 105.529 74.5027 106.532 76.2089 108.295C77.9241 110.067 78.8963 112.511 78.8963 114.995C78.8963 117.488 77.9241 119.932 76.2089 121.694ZM76.2089 74.7939C74.5027 76.5654 72.1448 77.5713 69.7227 77.5713C67.3097 77.5713 64.9427 76.5663 63.2357 74.7939C61.5286 73.0318 60.5482 70.5966 60.5482 68.0952C60.5482 65.6031 61.5286 63.1688 63.2357 61.3955C64.9427 59.6334 67.3097 58.62 69.7227 58.62C72.1357 58.62 74.5027 59.6334 76.2089 61.3955C77.9159 63.1585 78.8963 65.6031 78.8963 68.0952C78.8963 70.5966 77.915 73.0412 76.2089 74.7939ZM136.757 168.605C135.051 170.367 132.684 171.38 130.272 171.38C127.86 171.38 125.493 170.367 123.786 168.605C122.079 166.833 121.098 164.397 121.098 161.896C121.098 159.404 122.08 156.969 123.786 155.197C125.493 153.434 127.86 152.421 130.272 152.421C132.685 152.421 135.052 153.435 136.757 155.197C138.472 156.968 139.446 159.404 139.446 161.896C139.445 164.397 138.472 166.832 136.757 168.605ZM136.757 121.694C135.051 123.465 132.693 124.47 130.272 124.47C127.86 124.47 125.493 123.466 123.786 121.694C122.079 119.932 121.098 117.496 121.098 114.995C121.098 112.503 122.08 110.068 123.786 108.295C125.493 106.532 127.86 105.529 130.272 105.529C132.694 105.529 135.052 106.532 136.757 108.295C138.472 110.067 139.446 112.503 139.446 114.995C139.445 117.496 138.472 119.932 136.757 121.694ZM136.757 74.7939C135.051 76.5654 132.693 77.5713 130.272 77.5713C127.86 77.5713 125.493 76.5663 123.786 74.7939C122.079 73.0318 121.098 70.5966 121.098 68.0952C121.098 65.6031 122.08 63.1688 123.786 61.3955C125.493 59.6334 127.86 58.62 130.272 58.62C132.685 58.62 135.052 59.6334 136.757 61.3955C138.472 63.1585 139.446 65.6031 139.446 68.0952C139.445 70.5966 138.472 73.0318 136.757 74.7939Z" fill="#D1A26A"/>
<mask id="mask0" mask-type="alpha" maskUnits="userSpaceOnUse" x="92" y="40" width="17" height="18">
<path d="M92.9979 48.848C92.9979 53.3551 96.5407 57.0119 100.914 57.0119C105.287 57.0119 108.832 53.3551 108.832 48.848C108.832 44.3409 105.287 40.6896 100.914 40.6896C96.5407 40.6896 92.9979 44.3409 92.9979 48.848Z" fill="#9F6A0C"/>
</mask>
<g mask="url(#mask0)">
<path d="M92.9979 48.848C92.9979 53.3551 96.5407 57.0119 100.914 57.0119C105.287 57.0119 108.832 53.3551 108.832 48.848C108.832 44.3409 105.287 40.6896 100.914 40.6896C96.5407 40.6896 92.9979 44.3409 92.9979 48.848Z" fill="#9F6A0C" stroke="#9DA0A2"/>
</g>
<mask id="mask1" mask-type="alpha" maskUnits="userSpaceOnUse" x="92" y="73" width="17" height="18">
<path d="M92.9979 81.9365C92.9979 86.4436 96.5407 90.0976 100.914 90.0976C105.287 90.0976 108.832 86.4436 108.832 81.9365C108.832 77.4294 105.287 73.7753 100.914 73.7753C96.5407 73.7753 92.9979 77.4294 92.9979 81.9365Z" fill="#9F6A0C"/>
</mask>
<g mask="url(#mask1)">
<path d="M92.9979 81.9365C92.9979 86.4436 96.5407 90.0976 100.914 90.0976C105.287 90.0976 108.832 86.4436 108.832 81.9365C108.832 77.4294 105.287 73.7753 100.914 73.7753C96.5407 73.7753 92.9979 77.4294 92.9979 81.9365Z" fill="#9F6A0C" stroke="#9DA0A2"/>
</g>
<mask id="mask2" mask-type="alpha" maskUnits="userSpaceOnUse" x="124" y="107" width="17" height="18">
<path d="M124.667 115.684C124.667 120.313 128.211 124.066 132.584 124.066C136.956 124.066 140.501 120.313 140.501 115.684C140.501 111.055 136.956 107.302 132.584 107.302C128.211 107.302 124.667 111.055 124.667 115.684Z" fill="#9F6A0C"/>
</mask>
<g mask="url(#mask2)">
<path d="M124.667 115.684C124.667 120.313 128.211 124.066 132.584 124.066C136.956 124.066 140.501 120.313 140.501 115.684C140.501 111.055 136.956 107.302 132.584 107.302C128.211 107.302 124.667 111.055 124.667 115.684Z" fill="#9F6A0C" stroke="#9DA0A2"/>
</g>
<mask id="mask3" mask-type="alpha" maskUnits="userSpaceOnUse" x="124" y="140" width="17" height="18">
<path d="M124.667 149.211C124.667 153.84 128.211 157.592 132.584 157.592C136.956 157.592 140.501 153.84 140.501 149.211C140.501 144.582 136.956 140.829 132.584 140.829C128.211 140.829 124.667 144.582 124.667 149.211Z" fill="#9F6A0C"/>
</mask>
<g mask="url(#mask3)">
<path d="M124.667 149.211C124.667 153.84 128.211 157.592 132.584 157.592C136.956 157.592 140.501 153.84 140.501 149.211C140.501 144.582 136.956 140.829 132.584 140.829C128.211 140.829 124.667 144.582 124.667 149.211Z" fill="#9F6A0C" stroke="#9DA0A2"/>
</g>
<mask id="mask4" mask-type="alpha" maskUnits="userSpaceOnUse" x="156" y="73" width="17" height="84">
<path d="M156.335 82.0901V148.395C156.335 153.084 159.991 156.71 164.253 156.71C168.717 156.71 172.17 152.871 172.17 148.395V82.0901C172.17 77.4013 168.517 73.7753 164.253 73.7753C159.788 73.7753 156.335 77.4013 156.335 82.0901Z" fill="#9F6A0C"/>
</mask>
<g mask="url(#mask4)">
<path d="M156.335 82.0901V148.395C156.335 153.084 159.991 156.71 164.253 156.71C168.717 156.71 172.17 152.871 172.17 148.395V82.0901C172.17 77.4013 168.517 73.7753 164.253 73.7753C159.788 73.7753 156.335 77.4013 156.335 82.0901Z" fill="#9F6A0C" stroke="#9DA0A2"/>
</g>
<mask id="mask5" mask-type="alpha" maskUnits="userSpaceOnUse" x="92" y="106" width="17" height="84">
<path d="M92.9979 115.176L92.9979 181.481C92.9979 186.173 96.6514 189.796 100.914 189.796C105.382 189.796 108.832 185.959 108.832 181.481L108.832 115.176C108.832 110.487 105.179 106.861 100.914 106.861C96.6514 106.861 92.9979 110.697 92.9979 115.176Z" fill="#9F6A0C"/>
</mask>
<g mask="url(#mask5)">
<path d="M92.9979 115.176L92.9979 181.481C92.9979 186.173 96.6514 189.796 100.914 189.796C105.382 189.796 108.832 185.959 108.832 181.481L108.832 115.176C108.832 110.487 105.179 106.861 100.914 106.861C96.6514 106.861 92.9979 110.697 92.9979 115.176Z" fill="#9F6A0C" stroke="#9DA0A2"/>
</g>
<mask id="mask6" mask-type="alpha" maskUnits="userSpaceOnUse" x="61" y="73" width="17" height="84">
<path d="M61.7458 82.0901L61.7458 148.395C61.7458 153.084 65.3025 156.71 69.4546 156.71C73.8018 156.71 77.1635 152.871 77.1635 148.395L77.1635 82.0901C77.1635 77.4013 73.6042 73.7753 69.4546 73.7753C65.1049 73.7753 61.7458 77.4013 61.7458 82.0901Z" fill="#9F6A0C"/>
</mask>
<g mask="url(#mask6)">
<path d="M61.7458 82.0901L61.7458 148.395C61.7458 153.084 65.3025 156.71 69.4546 156.71C73.8018 156.71 77.1635 152.871 77.1635 148.395L77.1635 82.0901C77.1635 77.4013 73.6042 73.7753 69.4546 73.7753C65.1049 73.7753 61.7458 77.4013 61.7458 82.0901Z" fill="#9F6A0C" stroke="#9DA0A2"/>
</g>
<mask id="mask7" mask-type="alpha" maskUnits="userSpaceOnUse" x="61" y="173" width="17" height="18">
<path d="M61.7458 181.857C61.7458 186.486 65.1973 190.237 69.4546 190.237C73.7119 190.237 77.1635 186.486 77.1635 181.857C77.1635 177.224 73.7119 173.474 69.4546 173.474C65.1973 173.474 61.7458 177.224 61.7458 181.857Z" fill="#9F6A0C"/>
</mask>
<g mask="url(#mask7)">
<path d="M61.7458 181.857C61.7458 186.486 65.1973 190.237 69.4546 190.237C73.7119 190.237 77.1635 186.486 77.1635 181.857C77.1635 177.224 73.7119 173.474 69.4546 173.474C65.1973 173.474 61.7458 177.224 61.7458 181.857Z" fill="#9F6A0C" stroke="#9DA0A2"/>
</g>
<mask id="mask8" mask-type="alpha" maskUnits="userSpaceOnUse" x="61" y="40" width="17" height="18">
<path d="M61.7458 48.848C61.7458 53.3551 65.1973 57.0119 69.4546 57.0119C73.7119 57.0119 77.1635 53.3551 77.1635 48.848C77.1635 44.3409 73.7119 40.6896 69.4546 40.6896C65.1973 40.6896 61.7458 44.3409 61.7458 48.848Z" fill="#9F6A0C"/>
</mask>
<g mask="url(#mask8)">
<path d="M61.7458 48.848C61.7458 53.3551 65.1973 57.0119 69.4546 57.0119C73.7119 57.0119 77.1635 53.3551 77.1635 48.848C77.1635 44.3409 73.7119 40.6896 69.4546 40.6896C65.1973 40.6896 61.7458 44.3409 61.7458 48.848Z" fill="#9F6A0C" stroke="#9DA0A2"/>
</g>
<mask id="mask9" mask-type="alpha" maskUnits="userSpaceOnUse" x="30" y="73" width="16" height="84">
<path d="M30.4937 82.1102L30.4937 147.934C30.4937 152.634 34.0504 156.269 38.2025 156.269C42.5522 156.269 45.9114 152.421 45.9114 147.934L45.9114 82.1102C45.9114 77.6237 42.3521 73.7753 38.2025 73.7753C33.8554 73.7753 30.4937 77.6237 30.4937 82.1102Z" fill="#9F6A0C"/>
</mask>
<g mask="url(#mask9)">
<path d="M30.4937 82.1102L30.4937 147.934C30.4937 152.634 34.0504 156.269 38.2025 156.269C42.5522 156.269 45.9114 152.421 45.9114 147.934L45.9114 82.1102C45.9114 77.6237 42.3521 73.7753 38.2025 73.7753C33.8554 73.7753 30.4937 77.6237 30.4937 82.1102Z" fill="#9F6A0C" stroke="#142D4B"/>
</g>
<path d="M274.192 215.96C267.792 215.96 262.832 213.816 259.312 209.528V212.6C259.312 213.24 259.088 213.816 258.64 214.328C258.192 214.776 257.616 215 256.912 215H246.064C245.424 215 244.848 214.776 244.336 214.328C243.888 213.816 243.664 213.24 243.664 212.6V149.24C243.664 148.536 243.888 147.96 244.336 147.512C244.848 147.064 245.424 146.84 246.064 146.84H257.776C258.48 146.84 259.056 147.064 259.504 147.512C259.952 147.96 260.176 148.536 260.176 149.24V169.784C263.76 166.008 268.432 164.12 274.192 164.12C280.4 164.12 285.296 166.136 288.88 170.168C292.464 174.2 294.384 179.672 294.64 186.584C294.704 187.416 294.736 188.568 294.736 190.04C294.736 191.448 294.704 192.568 294.64 193.4C294.32 200.568 292.4 206.136 288.88 210.104C285.36 214.008 280.464 215.96 274.192 215.96ZM269.008 203.096C272.016 203.096 274.16 202.2 275.44 200.408C276.784 198.616 277.552 196.152 277.744 193.016C277.872 191.736 277.936 190.744 277.936 190.04C277.936 189.336 277.872 188.344 277.744 187.064C277.552 183.928 276.784 181.464 275.44 179.672C274.16 177.88 272.016 176.984 269.008 176.984C266.192 176.984 264.048 177.848 262.576 179.576C261.104 181.304 260.304 183.48 260.176 186.104L260.08 189.656L260.176 193.304C260.368 196.184 261.136 198.552 262.48 200.408C263.888 202.2 266.064 203.096 269.008 203.096ZM306.531 157.88C305.827 157.88 305.251 157.656 304.803 157.208C304.355 156.76 304.131 156.184 304.131 155.48V146.84C304.131 146.136 304.355 145.56 304.803 145.112C305.251 144.664 305.827 144.44 306.531 144.44H318.051C318.755 144.44 319.331 144.664 319.779 145.112C320.227 145.56 320.451 146.136 320.451 146.84V155.48C320.451 156.184 320.227 156.76 319.779 157.208C319.331 157.656 318.755 157.88 318.051 157.88H306.531ZM306.627 215C305.923 215 305.347 214.776 304.898 214.328C304.451 213.88 304.227 213.304 304.227 212.6V167.48C304.227 166.776 304.451 166.2 304.898 165.752C305.347 165.304 305.923 165.08 306.627 165.08H317.955C318.659 165.08 319.235 165.304 319.683 165.752C320.131 166.2 320.355 166.776 320.355 167.48V212.6C320.355 213.24 320.131 213.816 319.683 214.328C319.235 214.776 318.659 215 317.955 215H306.627ZM352.239 215.96C347.055 215.96 342.703 215.224 339.183 213.752C335.727 212.28 333.167 210.52 331.503 208.472C329.839 206.424 329.007 204.6 329.007 203C329.007 202.36 329.231 201.848 329.679 201.464C330.191 201.016 330.735 200.792 331.311 200.792H342.255C342.639 200.792 342.991 200.952 343.311 201.272C344.079 201.784 344.655 202.2 345.039 202.52C346.447 203.544 347.663 204.312 348.687 204.824C349.775 205.272 351.087 205.496 352.623 205.496C354.479 205.496 355.983 205.144 357.135 204.44C358.351 203.672 358.959 202.616 358.959 201.272C358.959 200.184 358.639 199.32 357.999 198.68C357.423 198.04 356.271 197.432 354.543 196.856C352.815 196.216 350.191 195.544 346.671 194.84C341.359 193.752 337.263 191.992 334.383 189.56C331.567 187.064 330.159 183.736 330.159 179.576C330.159 176.952 330.991 174.456 332.655 172.088C334.319 169.72 336.783 167.8 340.047 166.328C343.375 164.856 347.311 164.12 351.855 164.12C356.399 164.12 360.367 164.824 363.759 166.232C367.151 167.64 369.711 169.368 371.439 171.416C373.231 173.4 374.127 175.224 374.127 176.888C374.127 177.464 373.903 177.976 373.455 178.424C373.071 178.872 372.591 179.096 372.015 179.096H362.031C361.519 179.096 361.039 178.936 360.591 178.616C359.759 178.168 359.023 177.688 358.383 177.176C357.295 176.344 356.271 175.704 355.311 175.256C354.351 174.808 353.167 174.584 351.759 174.584C350.095 174.584 348.751 174.968 347.727 175.736C346.767 176.504 346.287 177.496 346.287 178.712C346.287 179.672 346.543 180.472 347.055 181.112C347.631 181.752 348.783 182.392 350.511 183.032C352.303 183.608 354.927 184.216 358.383 184.856C364.591 185.944 369.103 187.864 371.919 190.616C374.799 193.368 376.239 196.6 376.239 200.312C376.239 205.048 374.127 208.856 369.903 211.736C365.679 214.552 359.791 215.96 352.239 215.96ZM407.702 215.96C400.47 215.96 394.614 214.04 390.134 210.2C385.654 206.296 383.254 200.888 382.934 193.976L382.838 190.136L382.934 186.2C383.19 179.288 385.558 173.88 390.038 169.976C394.582 166.072 400.47 164.12 407.702 164.12C413.142 164.12 417.718 165.112 421.43 167.096C425.206 169.016 427.99 171.352 429.782 174.104C431.638 176.792 432.63 179.256 432.758 181.496C432.822 182.136 432.598 182.712 432.086 183.224C431.638 183.672 431.062 183.896 430.358 183.896H418.166C417.462 183.896 416.918 183.736 416.534 183.416C416.15 183.096 415.798 182.616 415.478 181.976C414.71 179.992 413.718 178.584 412.502 177.752C411.35 176.92 409.846 176.504 407.99 176.504C402.742 176.504 400.022 179.896 399.83 186.68L399.734 190.328L399.83 193.496C399.958 196.952 400.694 199.512 402.038 201.176C403.446 202.776 405.43 203.576 407.99 203.576C409.974 203.576 411.542 203.16 412.694 202.328C413.846 201.496 414.774 200.088 415.478 198.104C415.798 197.464 416.15 196.984 416.534 196.664C416.918 196.344 417.462 196.184 418.166 196.184H430.358C430.998 196.184 431.542 196.408 431.99 196.856C432.502 197.24 432.758 197.752 432.758 198.392C432.758 200.44 431.862 202.84 430.07 205.592C428.342 208.344 425.59 210.776 421.814 212.888C418.038 214.936 413.334 215.96 407.702 215.96ZM459.719 215.96C454.087 215.96 449.543 214.072 446.087 210.296C442.631 206.456 440.903 201.112 440.903 194.264V167.48C440.903 166.776 441.127 166.2 441.575 165.752C442.023 165.304 442.599 165.08 443.303 165.08H455.303C456.007 165.08 456.583 165.304 457.031 165.752C457.543 166.2 457.799 166.776 457.799 167.48V193.688C457.799 199.96 460.583 203.096 466.151 203.096C468.839 203.096 470.951 202.264 472.487 200.6C474.023 198.936 474.791 196.632 474.791 193.688V167.48C474.791 166.776 475.015 166.2 475.463 165.752C475.975 165.304 476.551 165.08 477.191 165.08H489.191C489.895 165.08 490.471 165.304 490.919 165.752C491.367 166.2 491.591 166.776 491.591 167.48V212.6C491.591 213.24 491.367 213.816 490.919 214.328C490.471 214.776 489.895 215 489.191 215H478.055C477.415 215 476.839 214.776 476.327 214.328C475.879 213.816 475.655 213.24 475.655 212.6V208.952C472.327 213.624 467.015 215.96 459.719 215.96ZM505.187 157.88C504.483 157.88 503.907 157.656 503.459 157.208C503.011 156.76 502.787 156.184 502.787 155.48V146.84C502.787 146.136 503.011 145.56 503.459 145.112C503.907 144.664 504.483 144.44 505.187 144.44H516.707C517.411 144.44 517.987 144.664 518.435 145.112C518.883 145.56 519.107 146.136 519.107 146.84V155.48C519.107 156.184 518.883 156.76 518.435 157.208C517.987 157.656 517.411 157.88 516.707 157.88H505.187ZM505.283 215C504.579 215 504.003 214.776 503.555 214.328C503.107 213.88 502.883 213.304 502.883 212.6V167.48C502.883 166.776 503.107 166.2 503.555 165.752C504.003 165.304 504.579 165.08 505.283 165.08H516.611C517.315 165.08 517.891 165.304 518.339 165.752C518.787 166.2 519.011 166.776 519.011 167.48V212.6C519.011 213.24 518.787 213.816 518.339 214.328C517.891 214.776 517.315 215 516.611 215H505.283ZM555.888 215C542.64 215 536.016 208.696 536.016 196.088V177.656H528.528C527.824 177.656 527.216 177.432 526.704 176.984C526.256 176.536 526.032 175.96 526.032 175.256V167.48C526.032 166.776 526.256 166.2 526.704 165.752C527.216 165.304 527.824 165.08 528.528 165.08H536.016V149.24C536.016 148.536 536.24 147.96 536.688 147.512C537.2 147.064 537.776 146.84 538.416 146.84H549.552C550.256 146.84 550.832 147.064 551.28 147.512C551.728 147.96 551.952 148.536 551.952 149.24V165.08H563.952C564.656 165.08 565.232 165.304 565.68 165.752C566.192 166.2 566.448 166.776 566.448 167.48V175.256C566.448 175.96 566.192 176.536 565.68 176.984C565.232 177.432 564.656 177.656 563.952 177.656H551.952V194.744C551.952 199.48 553.776 201.848 557.424 201.848H564.816C565.52 201.848 566.096 202.072 566.544 202.52C566.992 202.968 567.216 203.544 567.216 204.248V212.6C567.216 213.24 566.992 213.816 566.544 214.328C566.096 214.776 565.52 215 564.816 215H555.888ZM595.708 215.96C590.524 215.96 586.172 215.224 582.652 213.752C579.196 212.28 576.636 210.52 574.972 208.472C573.308 206.424 572.476 204.6 572.476 203C572.476 202.36 572.7 201.848 573.148 201.464C573.66 201.016 574.204 200.792 574.78 200.792H585.724C586.108 200.792 586.46 200.952 586.78 201.272C587.548 201.784 588.124 202.2 588.508 202.52C589.916 203.544 591.132 204.312 592.156 204.824C593.244 205.272 594.556 205.496 596.092 205.496C597.948 205.496 599.452 205.144 600.604 204.44C601.82 203.672 602.428 202.616 602.428 201.272C602.428 200.184 602.108 199.32 601.468 198.68C600.892 198.04 599.74 197.432 598.012 196.856C596.284 196.216 593.66 195.544 590.14 194.84C584.828 193.752 580.732 191.992 577.852 189.56C575.036 187.064 573.628 183.736 573.628 179.576C573.628 176.952 574.46 174.456 576.124 172.088C577.788 169.72 580.252 167.8 583.516 166.328C586.844 164.856 590.78 164.12 595.324 164.12C599.868 164.12 603.836 164.824 607.228 166.232C610.62 167.64 613.18 169.368 614.908 171.416C616.7 173.4 617.596 175.224 617.596 176.888C617.596 177.464 617.372 177.976 616.924 178.424C616.54 178.872 616.06 179.096 615.484 179.096H605.5C604.988 179.096 604.508 178.936 604.06 178.616C603.228 178.168 602.492 177.688 601.852 177.176C600.764 176.344 599.74 175.704 598.78 175.256C597.82 174.808 596.636 174.584 595.228 174.584C593.564 174.584 592.22 174.968 591.196 175.736C590.236 176.504 589.756 177.496 589.756 178.712C589.756 179.672 590.012 180.472 590.524 181.112C591.1 181.752 592.252 182.392 593.98 183.032C595.772 183.608 598.396 184.216 601.852 184.856C608.06 185.944 612.572 187.864 615.388 190.616C618.268 193.368 619.708 196.6 619.708 200.312C619.708 205.048 617.596 208.856 613.372 211.736C609.148 214.552 603.26 215.96 595.708 215.96ZM651.267 215.96C643.587 215.96 637.539 213.88 633.123 209.72C628.707 205.56 626.403 199.512 626.211 191.576V188.216C626.467 180.664 628.803 174.776 633.219 170.552C637.699 166.264 643.683 164.12 651.171 164.12C656.611 164.12 661.187 165.24 664.899 167.48C668.675 169.656 671.491 172.664 673.347 176.504C675.267 180.344 676.227 184.76 676.227 189.752V192.056C676.227 192.696 676.003 193.272 675.555 193.784C675.107 194.232 674.531 194.456 673.827 194.456H643.107V195.128C643.235 198.136 643.971 200.568 645.315 202.424C646.659 204.28 648.611 205.208 651.171 205.208C652.771 205.208 654.083 204.888 655.107 204.248C656.131 203.544 657.059 202.712 657.891 201.752C658.467 201.048 658.915 200.632 659.235 200.504C659.619 200.312 660.195 200.216 660.963 200.216H672.867C673.443 200.216 673.923 200.408 674.307 200.792C674.755 201.112 674.979 201.56 674.979 202.136C674.979 203.8 674.019 205.72 672.099 207.896C670.243 210.072 667.523 211.96 663.939 213.56C660.355 215.16 656.131 215.96 651.267 215.96ZM659.331 184.952V184.76C659.331 181.624 658.595 179.16 657.123 177.368C655.715 175.512 653.731 174.584 651.171 174.584C648.675 174.584 646.691 175.512 645.219 177.368C643.811 179.16 643.107 181.624 643.107 184.76V184.952H659.331ZM708.171 215.96C700.939 215.96 695.083 214.04 690.603 210.2C686.123 206.296 683.723 200.888 683.403 193.976L683.307 190.136L683.403 186.2C683.659 179.288 686.027 173.88 690.507 169.976C695.051 166.072 700.939 164.12 708.171 164.12C713.611 164.12 718.187 165.112 721.899 167.096C725.675 169.016 728.458 171.352 730.25 174.104C732.107 176.792 733.099 179.256 733.227 181.496C733.291 182.136 733.067 182.712 732.555 183.224C732.107 183.672 731.531 183.896 730.827 183.896H718.635C717.931 183.896 717.387 183.736 717.003 183.416C716.619 183.096 716.267 182.616 715.947 181.976C715.179 179.992 714.187 178.584 712.971 177.752C711.819 176.92 710.315 176.504 708.459 176.504C703.211 176.504 700.491 179.896 700.299 186.68L700.203 190.328L700.299 193.496C700.427 196.952 701.163 199.512 702.507 201.176C703.915 202.776 705.899 203.576 708.459 203.576C710.443 203.576 712.011 203.16 713.163 202.328C714.315 201.496 715.243 200.088 715.947 198.104C716.267 197.464 716.619 196.984 717.003 196.664C717.387 196.344 717.931 196.184 718.635 196.184H730.827C731.467 196.184 732.011 196.408 732.458 196.856C732.971 197.24 733.227 197.752 733.227 198.392C733.227 200.44 732.331 202.84 730.539 205.592C728.811 208.344 726.059 210.776 722.283 212.888C718.507 214.936 713.803 215.96 708.171 215.96Z" fill="#9F6A0C"/>
<path d="M284.272 79C283.845 79 283.483 78.872 283.184 78.616C282.928 78.3173 282.8 77.9547 282.8 77.528V35.032C282.8 34.6053 282.928 34.264 283.184 34.008C283.483 33.7093 283.845 33.56 284.272 33.56H287.28C287.707 33.56 288.048 33.7093 288.304 34.008C288.603 34.264 288.752 34.6053 288.752 35.032V77.528C288.752 77.9547 288.603 78.3173 288.304 78.616C288.048 78.872 287.707 79 287.28 79H284.272ZM299.259 39.512C298.832 39.512 298.469 39.384 298.171 39.128C297.915 38.8293 297.786 38.4667 297.786 38.04V34.584C297.786 34.1573 297.915 33.7947 298.171 33.496C298.469 33.1973 298.832 33.048 299.259 33.048H303.291C303.717 33.048 304.08 33.1973 304.379 33.496C304.677 33.7947 304.827 34.1573 304.827 34.584V38.04C304.827 38.4667 304.677 38.8293 304.379 39.128C304.08 39.384 303.717 39.512 303.291 39.512H299.259ZM299.771 79C299.344 79 298.981 78.872 298.683 78.616C298.427 78.3173 298.299 77.9547 298.299 77.528V47.192C298.299 46.7653 298.427 46.424 298.683 46.168C298.981 45.8693 299.344 45.72 299.771 45.72H302.843C303.269 45.72 303.611 45.8693 303.867 46.168C304.165 46.424 304.315 46.7653 304.315 47.192V77.528C304.315 77.9547 304.165 78.3173 303.867 78.616C303.611 78.872 303.269 79 302.843 79H299.771ZM325.383 79C324.273 79 323.484 78.4667 323.015 77.4L311.174 47.704L311.047 47.064C311.047 46.68 311.175 46.36 311.431 46.104C311.687 45.848 312.007 45.72 312.391 45.72H315.463C316.188 45.72 316.721 46.0827 317.062 46.808L326.791 72.024L336.519 46.808C336.903 46.0827 337.415 45.72 338.055 45.72H341.191C341.532 45.72 341.831 45.848 342.087 46.104C342.385 46.36 342.535 46.68 342.535 47.064L342.407 47.704L330.503 77.4C330.033 78.4667 329.244 79 328.135 79H325.383ZM361.361 79.64C356.966 79.64 353.446 78.296 350.801 75.608C348.198 72.8773 346.769 69.1653 346.513 64.472L346.449 62.296L346.513 60.184C346.811 55.576 348.262 51.9067 350.865 49.176C353.51 46.4453 356.987 45.08 361.297 45.08C366.033 45.08 369.702 46.5947 372.305 49.624C374.907 52.6107 376.208 56.664 376.208 61.784V62.872C376.208 63.2987 376.059 63.6613 375.761 63.96C375.505 64.216 375.163 64.344 374.737 64.344H352.593V64.92C352.721 67.6933 353.553 70.0613 355.089 72.024C356.667 73.944 358.737 74.904 361.297 74.904C363.259 74.904 364.859 74.52 366.097 73.752C367.377 72.9413 368.315 72.1093 368.913 71.256C369.297 70.744 369.574 70.4453 369.745 70.36C369.958 70.232 370.321 70.168 370.833 70.168H373.969C374.353 70.168 374.673 70.2747 374.929 70.488C375.185 70.7013 375.312 71 375.312 71.384C375.312 72.3227 374.715 73.4533 373.521 74.776C372.369 76.0987 370.726 77.2507 368.593 78.232C366.502 79.1707 364.091 79.64 361.361 79.64ZM370.129 59.928V59.736C370.129 56.792 369.318 54.4027 367.697 52.568C366.118 50.6907 363.985 49.752 361.297 49.752C358.609 49.752 356.475 50.6907 354.897 52.568C353.361 54.4027 352.593 56.792 352.593 59.736V59.928H370.129ZM411.708 79.64C407.271 79.64 403.922 78.1893 401.661 75.288C399.399 72.3867 398.205 68.7173 398.077 64.28L398.013 62.36L398.077 60.44C398.205 56.0453 399.399 52.3973 401.661 49.496C403.922 46.552 407.271 45.08 411.708 45.08C416.103 45.08 419.559 46.6373 422.077 49.752V35.032C422.077 34.6053 422.205 34.264 422.461 34.008C422.759 33.7093 423.122 33.56 423.549 33.56H426.621C427.047 33.56 427.389 33.7093 427.645 34.008C427.943 34.264 428.093 34.6053 428.093 35.032V77.528C428.093 77.9547 427.943 78.3173 427.645 78.616C427.389 78.872 427.047 79 426.621 79H423.741C423.314 79 422.951 78.872 422.653 78.616C422.397 78.3173 422.269 77.9547 422.269 77.528V74.84C419.794 78.04 416.274 79.64 411.708 79.64ZM413.053 74.456C415.997 74.456 418.194 73.496 419.645 71.576C421.138 69.6133 421.949 67.288 422.077 64.6C422.119 64.1307 422.141 63.32 422.141 62.168C422.141 60.9733 422.119 60.1413 422.077 59.672C421.991 57.1547 421.181 54.9573 419.645 53.08C418.109 51.2027 415.911 50.264 413.053 50.264C410.023 50.264 407.805 51.2027 406.397 53.08C405.031 54.9573 404.285 57.432 404.157 60.504L404.093 62.36C404.093 70.424 407.079 74.456 413.053 74.456ZM450.923 79.64C446.528 79.64 443.008 78.296 440.363 75.608C437.76 72.8773 436.331 69.1653 436.075 64.472L436.011 62.296L436.075 60.184C436.374 55.576 437.824 51.9067 440.427 49.176C443.072 46.4453 446.55 45.08 450.859 45.08C455.595 45.08 459.264 46.5947 461.867 49.624C464.47 52.6107 465.771 56.664 465.771 61.784V62.872C465.771 63.2987 465.622 63.6613 465.323 63.96C465.067 64.216 464.726 64.344 464.299 64.344H442.155V64.92C442.283 67.6933 443.115 70.0613 444.651 72.024C446.23 73.944 448.299 74.904 450.859 74.904C452.822 74.904 454.422 74.52 455.659 73.752C456.939 72.9413 457.878 72.1093 458.475 71.256C458.859 70.744 459.136 70.4453 459.307 70.36C459.52 70.232 459.883 70.168 460.395 70.168H463.531C463.915 70.168 464.235 70.2747 464.491 70.488C464.747 70.7013 464.875 71 464.875 71.384C464.875 72.3227 464.278 73.4533 463.083 74.776C461.931 76.0987 460.288 77.2507 458.155 78.232C456.064 79.1707 453.654 79.64 450.923 79.64ZM459.691 59.928V59.736C459.691 56.792 458.88 54.4027 457.259 52.568C455.68 50.6907 453.547 49.752 450.859 49.752C448.171 49.752 446.038 50.6907 444.459 52.568C442.923 54.4027 442.155 56.792 442.155 59.736V59.928H459.691ZM489.872 79.64C485.264 79.64 481.765 78.04 479.376 74.84V77.528C479.376 77.9547 479.226 78.3173 478.928 78.616C478.672 78.872 478.33 79 477.904 79H474.96C474.533 79 474.17 78.872 473.872 78.616C473.616 78.3173 473.488 77.9547 473.488 77.528V35.032C473.488 34.6053 473.616 34.264 473.872 34.008C474.17 33.7093 474.533 33.56 474.96 33.56H478.095C478.522 33.56 478.864 33.7093 479.12 34.008C479.376 34.264 479.504 34.6053 479.504 35.032V49.752C482.021 46.6373 485.477 45.08 489.872 45.08C494.309 45.08 497.658 46.552 499.92 49.496C502.181 52.3973 503.397 56.0453 503.568 60.44C503.61 60.9093 503.632 61.5493 503.632 62.36C503.632 63.1707 503.61 63.8107 503.568 64.28C503.397 68.7173 502.181 72.3867 499.92 75.288C497.658 78.1893 494.309 79.64 489.872 79.64ZM488.528 74.456C491.557 74.456 493.754 73.5173 495.12 71.64C496.528 69.7627 497.296 67.288 497.424 64.216C497.466 63.7893 497.488 63.1707 497.488 62.36C497.488 54.296 494.501 50.264 488.528 50.264C485.669 50.264 483.472 51.2027 481.936 53.08C480.4 54.9573 479.589 57.1547 479.504 59.672L479.44 62.168L479.504 64.6C479.632 67.288 480.421 69.6133 481.872 71.576C483.365 73.496 485.584 74.456 488.528 74.456ZM523.902 79.64C519.849 79.64 516.713 78.3387 514.494 75.736C512.275 73.0907 511.166 69.592 511.166 65.24V47.192C511.166 46.7653 511.294 46.424 511.55 46.168C511.849 45.8693 512.211 45.72 512.638 45.72H515.838C516.265 45.72 516.606 45.8693 516.862 46.168C517.161 46.424 517.31 46.7653 517.31 47.192V64.92C517.31 71.2773 520.083 74.456 525.63 74.456C528.318 74.456 530.451 73.624 532.03 71.96C533.609 70.2533 534.398 67.9067 534.398 64.92V47.192C534.398 46.7653 534.526 46.424 534.782 46.168C535.081 45.8693 535.443 45.72 535.87 45.72H539.07C539.497 45.72 539.838 45.8693 540.094 46.168C540.35 46.424 540.478 46.7653 540.478 47.192V77.528C540.478 77.9547 540.35 78.3173 540.094 78.616C539.838 78.872 539.497 79 539.07 79H536.062C535.635 79 535.273 78.872 534.974 78.616C534.718 78.3173 534.59 77.9547 534.59 77.528V74.712C533.395 76.3333 531.945 77.5707 530.238 78.424C528.531 79.2347 526.419 79.64 523.902 79.64ZM563.618 93.08C560.119 93.08 557.303 92.4827 555.17 91.288C553.037 90.136 551.522 88.8133 550.626 87.32C549.73 85.8267 549.239 84.4827 549.154 83.288C549.111 82.8613 549.239 82.4987 549.538 82.2C549.879 81.9013 550.242 81.752 550.626 81.752H553.698C554.082 81.752 554.402 81.8373 554.658 82.008C554.914 82.2213 555.127 82.584 555.298 83.096C555.81 84.4613 556.642 85.6347 557.794 86.616C558.989 87.64 560.823 88.152 563.298 88.152C566.455 88.152 568.781 87.4693 570.274 86.104C571.767 84.7813 572.514 82.4133 572.514 79V74.648C571.405 76.056 569.997 77.1867 568.29 78.04C566.583 78.8507 564.557 79.256 562.21 79.256C557.687 79.256 554.295 77.8267 552.034 74.968C549.815 72.0667 548.642 68.3973 548.514 63.96L548.45 62.168L548.514 60.44C548.642 56.0453 549.837 52.3973 552.098 49.496C554.359 46.552 557.73 45.08 562.21 45.08C566.69 45.08 570.189 46.7227 572.706 50.008V47.256C572.706 46.8293 572.834 46.4667 573.09 46.168C573.389 45.8693 573.751 45.72 574.178 45.72H577.122C577.549 45.72 577.911 45.8693 578.21 46.168C578.509 46.4667 578.658 46.8293 578.658 47.256V78.296C578.658 88.152 573.645 93.08 563.618 93.08ZM563.49 74.136C566.391 74.136 568.589 73.176 570.082 71.256C571.575 69.336 572.386 67.0533 572.514 64.408C572.557 64.024 572.578 63.2773 572.578 62.168C572.578 61.1013 572.557 60.376 572.514 59.992C572.386 57.3467 571.575 55.064 570.082 53.144C568.631 51.224 566.434 50.264 563.49 50.264C560.461 50.264 558.263 51.2027 556.898 53.08C555.533 54.9573 554.786 57.432 554.658 60.504L554.594 62.168L554.658 63.896C554.786 66.9253 555.533 69.4 556.898 71.32C558.263 73.1973 560.461 74.136 563.49 74.136ZM601.806 93.08C598.307 93.08 595.491 92.4827 593.358 91.288C591.224 90.136 589.71 88.8133 588.814 87.32C587.918 85.8267 587.427 84.4827 587.342 83.288C587.299 82.8613 587.427 82.4987 587.726 82.2C588.067 81.9013 588.43 81.752 588.814 81.752H591.885C592.27 81.752 592.59 81.8373 592.845 82.008C593.102 82.2213 593.315 82.584 593.486 83.096C593.998 84.4613 594.83 85.6347 595.982 86.616C597.176 87.64 599.011 88.152 601.486 88.152C604.643 88.152 606.968 87.4693 608.462 86.104C609.955 84.7813 610.702 82.4133 610.702 79V74.648C609.592 76.056 608.184 77.1867 606.478 78.04C604.771 78.8507 602.744 79.256 600.398 79.256C595.875 79.256 592.483 77.8267 590.222 74.968C588.003 72.0667 586.83 68.3973 586.702 63.96L586.638 62.168L586.702 60.44C586.83 56.0453 588.024 52.3973 590.286 49.496C592.547 46.552 595.918 45.08 600.398 45.08C604.878 45.08 608.376 46.7227 610.894 50.008V47.256C610.894 46.8293 611.022 46.4667 611.278 46.168C611.576 45.8693 611.939 45.72 612.366 45.72H615.31C615.736 45.72 616.099 45.8693 616.398 46.168C616.696 46.4667 616.846 46.8293 616.846 47.256V78.296C616.846 88.152 611.832 93.08 601.806 93.08ZM601.678 74.136C604.579 74.136 606.776 73.176 608.27 71.256C609.763 69.336 610.574 67.0533 610.702 64.408C610.744 64.024 610.766 63.2773 610.766 62.168C610.766 61.1013 610.744 60.376 610.702 59.992C610.574 57.3467 609.763 55.064 608.27 53.144C606.819 51.224 604.622 50.264 601.678 50.264C598.648 50.264 596.451 51.2027 595.086 53.08C593.72 54.9573 592.974 57.432 592.845 60.504L592.782 62.168L592.845 63.896C592.974 66.9253 593.72 69.4 595.086 71.32C596.451 73.1973 598.648 74.136 601.678 74.136ZM639.673 79.64C635.278 79.64 631.758 78.296 629.113 75.608C626.51 72.8773 625.081 69.1653 624.825 64.472L624.761 62.296L624.825 60.184C625.124 55.576 626.574 51.9067 629.177 49.176C631.822 46.4453 635.3 45.08 639.609 45.08C644.345 45.08 648.014 46.5947 650.617 49.624C653.22 52.6107 654.521 56.664 654.521 61.784V62.872C654.521 63.2987 654.372 63.6613 654.073 63.96C653.817 64.216 653.476 64.344 653.049 64.344H630.905V64.92C631.033 67.6933 631.865 70.0613 633.401 72.024C634.98 73.944 637.049 74.904 639.609 74.904C641.572 74.904 643.172 74.52 644.409 73.752C645.689 72.9413 646.628 72.1093 647.225 71.256C647.609 70.744 647.886 70.4453 648.057 70.36C648.27 70.232 648.633 70.168 649.145 70.168H652.281C652.665 70.168 652.985 70.2747 653.241 70.488C653.497 70.7013 653.625 71 653.625 71.384C653.625 72.3227 653.028 73.4533 651.833 74.776C650.681 76.0987 649.038 77.2507 646.905 78.232C644.814 79.1707 642.404 79.64 639.673 79.64ZM648.441 59.928V59.736C648.441 56.792 647.63 54.4027 646.009 52.568C644.43 50.6907 642.297 49.752 639.609 49.752C636.921 49.752 634.788 50.6907 633.209 52.568C631.673 54.4027 630.905 56.792 630.905 59.736V59.928H648.441ZM663.646 79C663.219 79 662.856 78.872 662.558 78.616C662.302 78.3173 662.174 77.9547 662.174 77.528V47.256C662.174 46.8293 662.302 46.4667 662.558 46.168C662.856 45.8693 663.219 45.72 663.646 45.72H666.59C667.016 45.72 667.379 45.8693 667.678 46.168C667.976 46.4667 668.126 46.8293 668.126 47.256V50.072C669.875 47.1707 672.862 45.72 677.086 45.72H679.582C680.008 45.72 680.35 45.8693 680.606 46.168C680.904 46.424 681.054 46.7653 681.054 47.192V49.816C681.054 50.2427 680.904 50.584 680.606 50.84C680.35 51.096 680.008 51.224 679.582 51.224H675.742C673.438 51.224 671.624 51.9067 670.302 53.272C668.979 54.5947 668.318 56.408 668.318 58.712V77.528C668.318 77.9547 668.168 78.3173 667.87 78.616C667.571 78.872 667.208 79 666.782 79H663.646Z" fill="#9F6A0C"/>
</svg>
