<svg width="575" height="155" viewBox="0 0 575 155" fill="none" xmlns="http://www.w3.org/2000/svg">
<rect width="575" height="155" fill="none" fill-rule="evenodd"/>
<g id="logo-bgoss">
<g id="Icone">
<path id="Vector 6" d="M137.667 64.2121L138.072 67.0404H137.362L136.348 66.7374L108.449 44.4141L104.29 41.0808L100.942 38.5556L97.7971 36.6364L93.7391 34.5152L90.3913 32.899L87.3478 31.5859L83.087 30.3737L78.7246 29.6667L74.5652 29.1616L69.6956 28.7576L64.5217 29.1616L59.7536 29.9697L56.1014 30.5758L52.1449 31.7879L48.4928 33.202L44.5362 34.9192L40.8841 37.1414L37.8406 39.5657L35.2029 41.6869L32.6667 43.8081L30.029 46.4343L27.1884 49.7677L24.8551 53.101L22.8261 56.4343L20.7971 60.3737L19.2754 63.6061L17.6522 68.8586L16.8406 72.3939L16.4348 75.9293L16.029 79.2626L16.029 83.8081L16.4348 88.6566L17.2464 93.5051L17.9565 97.3434L18.971 101.182L20.5942 104.414L21.913 107.444L23.2319 110.273L25.7681 114.212L28.6087 117.343L31.2464 120.576L35.2029 124.414L65.6377 149.162L68.8841 151.788V153H67.8696H65.3333L61.7826 152.697L58.5362 152.192L54.6812 151.485L50.9275 150.475L47.8841 149.566L44.8406 148.354L41.087 146.939L37.3333 144.919L33.5797 143L29.9275 140.778L26.0725 137.949L22.2174 134.717L18.4638 130.778L15.0145 126.939L12.4783 123.404L10.0435 119.667L8.11594 116.434L6.18841 112.293L4.36232 108.556L2.43478 103.808L1.31884 98.1515L0.811594 93.8081L0 86.3333L0 80.9798L0 76.0303L0.811594 70.6768L1.92754 66.0303L3.14493 61.9899L4.46377 57.9495L6.08696 54.0101L7.4058 51.1818L8.72464 48.5556L10.7536 45.3232L12.6812 42.4949L14.8116 39.5657L16.942 37.1414L19.5797 34.3131L21.5072 32.2929L24.2464 29.9697L27.1884 27.6465L29.8261 25.6263L32.2609 23.8081L34.7971 22.1919L37.8406 20.5758L39.7681 19.5657L43.9275 17.8485L47.4783 16.4343L50.5217 15.4242L54.3768 14.9192L58.3333 14.0101L63.1014 13.404L66.9565 13H70.7101L73.9565 13L78.6232 13.404L82.2754 14.0101L86.4348 14.9192L90.7971 16.1313L94.6522 17.3434L98.4058 18.6566L102.565 20.4747L106.217 22.596L109.464 24.7172L113.826 27.7475L117.58 30.7778L120.623 33.8081L123.362 36.6364L125.391 39.1616L127.522 42.0909L129.449 44.8182L130.87 47.4444L132.188 49.6667L133.507 52.3939L134.725 55.2222L135.638 57.3434L136.348 59.5657L137.058 61.7879L137.667 64.2121Z" fill="#EA9B00"/>
<path id="Vector 4" d="M64.6232 88.2525L119.101 132.091H119.913L128.13 122.192L128.739 120.879L128.13 119.768L75.174 77.1414L73.3479 76.0303L71.0145 75.4243H68.8841L66.9566 76.0303L65.1305 77.1414L63.9131 78.1515L63.2029 79.7677L62.4928 81.6869V83.6061L62.4928 85.4243L63.2029 86.8384L64.6232 88.2525Z" fill="#EA9B00"/>
<path id="Vector 5" d="M93.7391 148.758L90.6956 149.465L41.6956 109.566L38.855 106.434L36.3188 102.495L33.9855 98.4546L32.4637 94.7172L31.9565 90.8788L31.1449 87.2424L31.1449 84.0101V81.3839V78.6566L31.7536 75.4243L32.4637 72.596L33.9855 69.1616L34.8985 66.6364L35.8116 64.5152L36.8261 62.596L38.4492 59.9697L39.971 58.0505L42 55.8283L43.7246 54.0101L45.5507 52.2929L48.1884 50.3738L50.6232 48.9596L53.0579 47.4445L55.3913 46.4344L58.6377 45.1212L61.2753 44.4142L64.1159 43.9091L67.0579 43.6061H69.5942H71.9275L74.4637 44.1111L77 44.6162L79.5362 45.1212L81.6666 45.7273L83.8985 46.4344L86.029 47.4445L88.2608 48.5556L90.3913 49.6667L92.5217 51.0808L94.3478 52.596L137.667 87.7475L139.594 89.5657L140 91.0808L136.348 105.424H135.13L133.507 104.313L86.029 66.1313L83.2898 64.1111L80.4492 62.596L77.8116 61.3839L75.7826 60.5758L73.9565 60.1717L71.9275 59.9697H69.0869L66.1449 60.1717L63.1014 60.5758L60.7681 61.3839L58.3333 62.596L55.8985 64.1111L53.6666 66.1313L51.8405 68.3536L50.1159 70.7778L48.6956 72.596L47.4782 74.7172L46.6666 77.8485V81.3839V85.5253L47.4782 89.5657L48.6956 92.495L50.1159 95.4243L51.8405 97.6465L53.6666 99.5657L96.5797 134.414L104.493 140.475L106.217 141.788V142.697L103.174 144.515L97.4927 147.141L93.7391 148.758Z" fill="#EA9B00"/>
</g>
<path id="acert.io" d="M221.7 139.476V119.788C221.7 108.748 215.904 102.768 202.38 102.768C196.86 102.768 190.42 103.964 184.348 106.356L187.292 115.096C192.26 113.44 196.952 112.52 200.172 112.52C206.336 112.52 208.912 114.452 208.912 120.524V122.916H203.3C188.856 122.916 180.852 128.712 180.852 139.384C180.852 148.216 186.924 154.472 196.676 154.472C202.472 154.472 207.808 152.448 211.304 147.112C213.328 151.988 217.008 153.828 222.528 154.288L225.288 145.64C222.896 144.812 221.7 143.432 221.7 139.476ZM200.264 145.088C196.216 145.088 194.008 142.604 194.008 138.28C194.008 132.944 197.504 130.368 204.588 130.368H208.912V139.66C206.888 143.156 204.036 145.088 200.264 145.088ZM255.085 102.768C240.825 102.768 231.809 113.532 231.809 128.988C231.809 144.536 240.733 154.472 255.269 154.472C261.709 154.472 266.861 152.356 271.277 148.768L265.573 140.58C261.985 142.88 259.501 143.984 255.913 143.984C249.749 143.984 245.609 140.212 245.609 128.896C245.609 117.58 249.473 112.888 256.005 112.888C259.593 112.888 262.445 113.992 265.573 116.384L271.277 108.656C266.677 104.7 261.617 102.768 255.085 102.768ZM318.554 127.516C318.554 111.968 310.366 102.768 296.566 102.768C282.306 102.768 274.394 114.176 274.394 128.896C274.394 144.168 282.582 154.472 298.222 154.472C305.858 154.472 311.93 151.712 316.714 147.848L311.286 140.488C307.054 143.432 303.558 144.72 299.418 144.72C293.162 144.72 288.746 141.96 287.826 132.576H318.278C318.37 131.196 318.554 129.172 318.554 127.516ZM305.582 124.388H287.826C288.47 115.188 291.69 111.692 296.842 111.692C303.098 111.692 305.582 116.476 305.582 123.836V124.388ZM353.124 102.86C347.512 102.86 342.728 106.908 340.428 113.716L339.324 104.24H327.916V153H340.98V128.068C342.636 120.064 345.488 115.556 351.468 115.556C353.124 115.556 354.32 115.832 355.884 116.2L358 103.596C356.436 103.136 354.872 102.86 353.124 102.86ZM389.233 142.42C387.209 143.524 385.461 144.076 383.713 144.076C380.401 144.076 378.837 142.236 378.837 137.452V113.44H388.773L390.061 104.24H378.837V92.004L365.773 93.568V104.24H358.505V113.44H365.773V137.728C365.773 148.584 370.925 154.38 381.045 154.472C385.369 154.472 390.153 153.184 393.741 150.7L389.233 142.42ZM404.663 138.74C400.339 138.74 396.843 142.328 396.843 146.56C396.843 150.884 400.339 154.472 404.663 154.472C409.079 154.472 412.575 150.884 412.575 146.56C412.575 142.328 409.079 138.74 404.663 138.74ZM428.604 79.124C423.912 79.124 420.692 82.436 420.692 86.76C420.692 91.084 423.912 94.396 428.604 94.396C433.296 94.396 436.608 91.084 436.608 86.76C436.608 82.436 433.296 79.124 428.604 79.124ZM435.136 104.24H422.072V153H435.136V104.24ZM468.468 102.768C453.748 102.768 445.008 113.072 445.008 128.62C445.008 144.812 453.84 154.472 468.376 154.472C483.004 154.472 491.744 144.076 491.744 128.62C491.744 112.428 483.004 102.768 468.468 102.768ZM468.468 112.52C474.816 112.52 478.128 117.396 478.128 128.62C478.128 139.752 474.816 144.72 468.376 144.72C461.936 144.72 458.624 139.844 458.624 128.62C458.624 117.488 461.936 112.52 468.468 112.52Z" fill="#EA9B00"/>
<path id="opensource" d="M194.408 21.816C186.008 21.816 181.192 28.144 181.192 37.272C181.192 46.624 185.952 52.672 194.352 52.672C202.696 52.672 207.512 46.344 207.512 37.216C207.512 27.864 202.808 21.816 194.408 21.816ZM194.408 25.96C199.28 25.96 201.968 29.544 201.968 37.216C201.968 44.944 199.28 48.528 194.352 48.528C189.424 48.528 186.736 44.944 186.736 37.272C186.736 29.544 189.48 25.96 194.408 25.96ZM229.407 21.816C226.047 21.816 222.855 23.44 220.671 26.464L220.279 22.488H215.855V63.928L221.007 63.312V49.312C222.911 51.608 225.543 52.672 228.735 52.672C236.351 52.672 240.327 46.176 240.327 37.216C240.327 27.92 237.247 21.816 229.407 21.816ZM227.503 48.472C224.815 48.472 222.519 47.184 221.007 44.888V30.496C222.575 28.144 224.983 25.904 228.119 25.904C232.543 25.904 234.783 29.544 234.783 37.216C234.783 44.944 232.207 48.472 227.503 48.472ZM271.124 36.376C271.124 27.36 266.924 21.816 258.972 21.816C251.356 21.816 246.708 28.368 246.708 37.552C246.708 46.904 251.524 52.672 259.756 52.672C263.844 52.672 267.148 51.272 270.06 48.976L267.82 45.896C265.244 47.688 263.06 48.472 260.148 48.472C255.892 48.472 252.7 45.84 252.196 39.008H271.012C271.068 38.336 271.124 37.384 271.124 36.376ZM266.028 35.2H252.196C252.588 28.648 255.164 25.904 259.084 25.904C263.732 25.904 266.028 29.096 266.028 34.864V35.2ZM293.017 21.816C289.153 21.816 286.017 23.832 284.001 26.856L283.553 22.488H279.129V52H284.281V31.056C286.241 27.92 288.481 25.848 291.785 25.848C294.641 25.848 296.433 27.136 296.433 31.56V52H301.585V30.832C301.585 25.232 298.449 21.816 293.017 21.816ZM319.734 21.816C313.63 21.816 309.094 25.232 309.094 29.936C309.094 34.08 311.614 36.824 317.998 38.504C323.71 40.016 325.166 41.136 325.166 44.048C325.166 46.848 322.702 48.528 318.838 48.528C315.646 48.528 312.902 47.464 310.55 45.672L307.806 48.808C310.382 51.048 313.966 52.672 318.95 52.672C324.942 52.672 330.598 49.872 330.598 43.712C330.598 38.56 327.014 36.096 320.798 34.528C316.038 33.296 314.47 32.176 314.47 29.768C314.47 27.416 316.542 25.904 319.902 25.904C322.646 25.904 324.942 26.744 327.574 28.424L329.758 25.176C326.958 23.048 323.878 21.816 319.734 21.816ZM348.955 21.816C340.555 21.816 335.739 28.144 335.739 37.272C335.739 46.624 340.499 52.672 348.899 52.672C357.243 52.672 362.059 46.344 362.059 37.216C362.059 27.864 357.355 21.816 348.955 21.816ZM348.955 25.96C353.827 25.96 356.515 29.544 356.515 37.216C356.515 44.944 353.827 48.528 348.899 48.528C343.971 48.528 341.283 44.944 341.283 37.272C341.283 29.544 344.027 25.96 348.955 25.96ZM392.298 22.488H387.146V43.544C385.354 46.512 382.946 48.64 379.754 48.64C376.562 48.64 375.218 47.128 375.218 43.096V22.488H370.066V43.656C370.066 49.424 373.146 52.672 378.298 52.672C382.498 52.672 385.242 50.992 387.482 47.408L387.874 52H392.298V22.488ZM415.437 21.816C411.853 21.816 409.109 24.056 407.541 28.48L407.037 22.488H402.613V52H407.765V35.144C408.997 29.488 411.125 26.856 414.821 26.856C415.885 26.856 416.501 26.968 417.397 27.192L418.349 22.152C417.453 21.928 416.389 21.816 415.437 21.816ZM433.877 21.816C425.869 21.816 420.997 28.088 420.997 37.496C420.997 47.016 425.925 52.672 433.877 52.672C437.293 52.672 440.261 51.552 442.893 49.424L440.541 46.064C438.301 47.52 436.565 48.304 434.101 48.304C429.453 48.304 426.541 45.112 426.541 37.384C426.541 29.712 429.453 26.072 434.101 26.072C436.565 26.072 438.413 26.8 440.429 28.256L442.893 25.008C440.149 22.712 437.349 21.816 433.877 21.816ZM471.28 36.376C471.28 27.36 467.08 21.816 459.128 21.816C451.512 21.816 446.864 28.368 446.864 37.552C446.864 46.904 451.68 52.672 459.912 52.672C464 52.672 467.304 51.272 470.216 48.976L467.976 45.896C465.4 47.688 463.216 48.472 460.304 48.472C456.048 48.472 452.856 45.84 452.352 39.008H471.168C471.224 38.336 471.28 37.384 471.28 36.376ZM466.184 35.2H452.352C452.744 28.648 455.32 25.904 459.24 25.904C463.888 25.904 466.184 29.096 466.184 34.864V35.2Z" fill="#EA9B00"/>
</g>
</svg>
